<svg width="473" height="1195" xmlns="http://www.w3.org/2000/svg" xmlns:xlink="http://www.w3.org/1999/xlink" overflow="hidden"><defs><clipPath id="clip0"><rect x="146" y="-523" width="473" height="1195"/></clipPath></defs><g clip-path="url(#clip0)" transform="translate(-146 523)"><rect x="207.5" y="135.5" width="277" height="193" stroke="#5B9BD5" stroke-width="3" stroke-miterlimit="8" fill="#DEEBF7" fill-opacity="0.501961"/><rect x="382.5" y="124.5" width="173" height="195" stroke="#BA8BDD" stroke-width="3" stroke-miterlimit="8" fill="#E8D8F4" fill-opacity="0.498039"/><text font-family="Cambria Math,Cambria Math_MSFontService,sans-serif" font-weight="400" font-size="27" transform="translate(166.525 301)">𝑞<tspan font-size="20" x="13.8133" y="6">2</tspan><tspan font-size="27" x="0.310074" y="-71">𝑞</tspan><tspan font-size="20" x="13.5034" y="-66">1</tspan><tspan font-size="27" x="-0.195282" y="-141">𝑞</tspan><tspan font-size="20" x="13.6181" y="-135">0</tspan></text><path d="M199 296 617.306 296" stroke="#000000" stroke-width="2" stroke-miterlimit="8" fill="none" fill-rule="evenodd"/><path d="M199 225 617.306 225" stroke="#000000" stroke-width="2" stroke-miterlimit="8" fill="none" fill-rule="evenodd"/><path d="M199 155 617.463 155" stroke="#000000" stroke-width="2" stroke-miterlimit="8" fill="none" fill-rule="evenodd"/><path d="M370 296C370 304.284 363.06 311 354.5 311 345.94 311 339 304.284 339 296 339 287.716 345.94 281 354.5 281 363.06 281 370 287.716 370 296Z" fill="#FFFFFF" fill-rule="evenodd"/><path d="M354.5 311 354.5 281M370 296 339 296" stroke="#ED7D31" stroke-width="2" stroke-miterlimit="8" fill="none" fill-rule="evenodd"/><path d="M370 296C370 304.284 363.06 311 354.5 311 345.94 311 339 304.284 339 296 339 287.716 345.94 281 354.5 281 363.06 281 370 287.716 370 296Z" stroke="#ED7D31" stroke-width="2" stroke-miterlimit="8" fill="none" fill-rule="evenodd"/><path d="M360 225C360 228.314 357.314 231 354 231 350.686 231 348 228.314 348 225 348 221.686 350.686 219 354 219 357.314 219 360 221.686 360 225Z" fill="#ED7D31" fill-rule="evenodd"/><path d="M0 0 0.000104987 49.8056" stroke="#ED7D31" stroke-width="2" stroke-miterlimit="8" fill="none" fill-rule="evenodd" transform="matrix(-1 1.22465e-16 1.22465e-16 1 354 231)"/><path d="M248 296C248 304.284 241.06 311 232.5 311 223.94 311 217 304.284 217 296 217 287.716 223.94 281 232.5 281 241.06 281 248 287.716 248 296Z" fill="#FFFFFF" fill-rule="evenodd"/><path d="M232.5 311 232.5 281M248 296 217 296" stroke="#ED7D31" stroke-width="2" stroke-miterlimit="8" fill="none" fill-rule="evenodd"/><path d="M248 296C248 304.284 241.06 311 232.5 311 223.94 311 217 304.284 217 296 217 287.716 223.94 281 232.5 281 241.06 281 248 287.716 248 296Z" stroke="#ED7D31" stroke-width="2" stroke-miterlimit="8" fill="none" fill-rule="evenodd"/><path d="M238 156C238 159.314 235.314 162 232 162 228.686 162 226 159.314 226 156 226 152.686 228.686 150 232 150 235.314 150 238 152.686 238 156Z" fill="#ED7D31" fill-rule="evenodd"/><path d="M0 0 0.000104987 119.518" stroke="#ED7D31" stroke-width="2" stroke-miterlimit="8" fill="none" fill-rule="evenodd" transform="matrix(-1 1.22465e-16 1.22465e-16 1 232 162)"/><rect x="263" y="274" width="48" height="45" stroke="#ED7D31" stroke-width="2" stroke-miterlimit="8" fill="#FFFFFF"/><text fill="#ED7D31" font-family="Cambria Math,Cambria Math_MSFontService,sans-serif" font-weight="400" font-size="32" transform="translate(272.537 307)">𝑇<tspan font-size="23" x="20.7133" y="-11">†</tspan></text><rect x="495" y="133" width="48" height="45" stroke="#ED7D31" stroke-width="2" stroke-miterlimit="8" fill="#FFFFFF"/><text fill="#ED7D31" font-family="Cambria Math,Cambria Math_MSFontService,sans-serif" font-weight="400" font-size="32" transform="translate(504.435 166)">𝑇</text><path d="M426 297C426 305.284 419.284 312 411 312 402.716 312 396 305.284 396 297 396 288.716 402.716 282 411 282 419.284 282 426 288.716 426 297Z" fill="#FFFFFF" fill-rule="evenodd"/><path d="M411 312 411 282M426 297 396 297" stroke="#ED7D31" stroke-width="2" stroke-miterlimit="8" fill="none" fill-rule="evenodd"/><path d="M426 297C426 305.284 419.284 312 411 312 402.716 312 396 305.284 396 297 396 288.716 402.716 282 411 282 419.284 282 426 288.716 426 297Z" stroke="#ED7D31" stroke-width="2" stroke-miterlimit="8" fill="none" fill-rule="evenodd"/><path d="M417 156C417 159.314 414.314 162 411 162 407.686 162 405 159.314 405 156 405 152.686 407.686 150 411 150 414.314 150 417 152.686 417 156Z" fill="#ED7D31" fill-rule="evenodd"/><path d="M0 0 0.000104987 120.16" stroke="#ED7D31" stroke-width="2" stroke-miterlimit="8" fill="none" fill-rule="evenodd" transform="matrix(-1 1.22465e-16 1.22465e-16 1 411 162)"/><path d="M445 155.5C445 146.94 451.716 140 460 140 468.284 140 475 146.94 475 155.5 475 164.06 468.284 171 460 171 451.716 171 445 164.06 445 155.5Z" fill="#FFFFFF" fill-rule="evenodd"/><path d="M460 140 460 171M445 155.5 475 155.5" stroke="#ED7D31" stroke-width="2" stroke-miterlimit="8" fill="none" fill-rule="evenodd"/><path d="M445 155.5C445 146.94 451.716 140 460 140 468.284 140 475 146.94 475 155.5 475 164.06 468.284 171 460 171 451.716 171 445 164.06 445 155.5Z" stroke="#ED7D31" stroke-width="2" stroke-miterlimit="8" fill="none" fill-rule="evenodd"/><path d="M454 296C454 292.686 456.686 290 460 290 463.314 290 466 292.686 466 296 466 299.314 463.314 302 460 302 456.686 302 454 299.314 454 296Z" fill="#ED7D31" fill-rule="evenodd"/><path d="M0 0 0.000104987 119.518" stroke="#ED7D31" stroke-width="2" stroke-miterlimit="8" fill="none" fill-rule="evenodd" transform="matrix(1 0 0 -1 460 290.518)"/><path d="M564 155.5C564 146.94 570.716 140 579 140 587.284 140 594 146.94 594 155.5 594 164.06 587.284 171 579 171 570.716 171 564 164.06 564 155.5Z" fill="#FFFFFF" fill-rule="evenodd"/><path d="M579 140 579 171M564 155.5 594 155.5" stroke="#ED7D31" stroke-width="2" stroke-miterlimit="8" fill="none" fill-rule="evenodd"/><path d="M564 155.5C564 146.94 570.716 140 579 140 587.284 140 594 146.94 594 155.5 594 164.06 587.284 171 579 171 570.716 171 564 164.06 564 155.5Z" stroke="#ED7D31" stroke-width="2" stroke-miterlimit="8" fill="none" fill-rule="evenodd"/><path d="M573 296C573 292.686 575.686 290 579 290 582.314 290 585 292.686 585 296 585 299.314 582.314 302 579 302 575.686 302 573 299.314 573 296Z" fill="#ED7D31" fill-rule="evenodd"/><path d="M0 0 0.000104987 119.518" stroke="#ED7D31" stroke-width="2" stroke-miterlimit="8" fill="none" fill-rule="evenodd" transform="matrix(1 0 0 -1 579 290.518)"/><path d="M404-306.5 404-268.5 421.5-268.5 386.5-233.5 351.5-268.5 369-268.5 369-306.5Z" stroke="#70AD47" stroke-width="3" stroke-miterlimit="8" fill="#E2F0D9" fill-rule="evenodd"/><rect x="326.5" y="-520.5" width="115" height="189" stroke="#70AD47" stroke-width="3" stroke-miterlimit="8" fill="#E2F0D9" fill-opacity="0.501961"/><text font-family="Cambria Math,Cambria Math_MSFontService,sans-serif" font-weight="400" font-size="27" transform="translate(156.784 -352)">𝑞<tspan font-size="20" x="13.8133" y="6">2</tspan><tspan font-size="27" x="0.310089" y="-71">𝑞</tspan><tspan font-size="20" x="13.5034" y="-65">1</tspan><tspan font-size="27" x="-0.195267" y="-141">𝑞</tspan><tspan font-size="20" x="13.6181" y="-135">0</tspan></text><path d="M189-357 607.054-357" stroke="#000000" stroke-width="2" stroke-miterlimit="8" fill="none" fill-rule="evenodd"/><path d="M189-428 607.054-428" stroke="#000000" stroke-width="2" stroke-miterlimit="8" fill="none" fill-rule="evenodd"/><path d="M189-498 607.211-498" stroke="#000000" stroke-width="2" stroke-miterlimit="8" fill="none" fill-rule="evenodd"/><path d="M371-357C371-348.716 364.06-342 355.5-342 346.94-342 340-348.716 340-357 340-365.284 346.94-372 355.5-372 364.06-372 371-365.284 371-357Z" fill="#FFFFFF" fill-rule="evenodd"/><path d="M355.5-342 355.5-372M371-357 340-357" stroke="#ED7D31" stroke-width="2" stroke-miterlimit="8" fill="none" fill-rule="evenodd"/><path d="M371-357C371-348.716 364.06-342 355.5-342 346.94-342 340-348.716 340-357 340-365.284 346.94-372 355.5-372 364.06-372 371-365.284 371-357Z" stroke="#ED7D31" stroke-width="2" stroke-miterlimit="8" fill="none" fill-rule="evenodd"/><path d="M361-428C361-424.686 358.314-422 355-422 351.686-422 349-424.686 349-428 349-431.314 351.686-434 355-434 358.314-434 361-431.314 361-428Z" fill="#ED7D31" fill-rule="evenodd"/><path d="M0 0 0.000104987 49.8056" stroke="#ED7D31" stroke-width="2" stroke-miterlimit="8" fill="none" fill-rule="evenodd" transform="matrix(-1 1.22465e-16 1.22465e-16 1 355 -422)"/><path d="M208-498C208-506.284 214.94-513 223.5-513 232.06-513 239-506.284 239-498 239-489.716 232.06-483 223.5-483 214.94-483 208-489.716 208-498Z" fill="#FFFFFF" fill-rule="evenodd"/><path d="M223.5-513 223.5-483M208-498 239-498" stroke="#ED7D31" stroke-width="2" stroke-miterlimit="8" fill="none" fill-rule="evenodd"/><path d="M208-498C208-506.284 214.94-513 223.5-513 232.06-513 239-506.284 239-498 239-489.716 232.06-483 223.5-483 214.94-483 208-489.716 208-498Z" stroke="#ED7D31" stroke-width="2" stroke-miterlimit="8" fill="none" fill-rule="evenodd"/><path d="M217-357C217-360.314 219.686-363 223-363 226.314-363 229-360.314 229-357 229-353.686 226.314-351 223-351 219.686-351 217-353.686 217-357Z" fill="#ED7D31" fill-rule="evenodd"/><path d="M0 0 0.000104987 119.518" stroke="#ED7D31" stroke-width="2" stroke-miterlimit="8" fill="none" fill-rule="evenodd" transform="matrix(1 0 0 -1 223 -363.482)"/><rect x="260" y="-520" width="48" height="45" stroke="#ED7D31" stroke-width="2" stroke-miterlimit="8" fill="#FFFFFF"/><text fill="#ED7D31" font-family="Cambria Math,Cambria Math_MSFontService,sans-serif" font-weight="400" font-size="32" transform="translate(270.004 -486)">𝑇<tspan font-size="23" x="20.7133" y="-12">†</tspan></text><path d="M391-498C391-506.284 397.716-513 406-513 414.284-513 421-506.284 421-498 421-489.716 414.284-483 406-483 397.716-483 391-489.716 391-498Z" fill="#FFFFFF" fill-rule="evenodd"/><path d="M406-513 406-483M391-498 421-498" stroke="#ED7D31" stroke-width="2" stroke-miterlimit="8" fill="none" fill-rule="evenodd"/><path d="M391-498C391-506.284 397.716-513 406-513 414.284-513 421-506.284 421-498 421-489.716 414.284-483 406-483 397.716-483 391-489.716 391-498Z" stroke="#ED7D31" stroke-width="2" stroke-miterlimit="8" fill="none" fill-rule="evenodd"/><path d="M400-427C400-430.314 402.686-433 406-433 409.314-433 412-430.314 412-427 412-423.686 409.314-421 406-421 402.686-421 400-423.686 400-427Z" fill="#ED7D31" fill-rule="evenodd"/><path d="M0 0 0.000104987 50.0063" stroke="#ED7D31" stroke-width="2" stroke-miterlimit="8" fill="none" fill-rule="evenodd" transform="matrix(1 0 0 -1 406 -432.994)"/><rect x="474" y="-520" width="48" height="45" stroke="#ED7D31" stroke-width="2" stroke-miterlimit="8" fill="#FFFFFF"/><text fill="#ED7D31" font-family="Cambria Math,Cambria Math_MSFontService,sans-serif" font-weight="400" font-size="32" transform="translate(484.052 -486)">𝑇</text><path d="M554-498.5C554-507.06 560.94-514 569.5-514 578.06-514 585-507.06 585-498.5 585-489.94 578.06-483 569.5-483 560.94-483 554-489.94 554-498.5Z" fill="#FFFFFF" fill-rule="evenodd"/><path d="M569.5-514 569.5-483M554-498.5 585-498.5" stroke="#ED7D31" stroke-width="2" stroke-miterlimit="8" fill="none" fill-rule="evenodd"/><path d="M554-498.5C554-507.06 560.94-514 569.5-514 578.06-514 585-507.06 585-498.5 585-489.94 578.06-483 569.5-483 560.94-483 554-489.94 554-498.5Z" stroke="#ED7D31" stroke-width="2" stroke-miterlimit="8" fill="none" fill-rule="evenodd"/><path d="M563-357C563-360.314 565.686-363 569-363 572.314-363 575-360.314 575-357 575-353.686 572.314-351 569-351 565.686-351 563-353.686 563-357Z" fill="#ED7D31" fill-rule="evenodd"/><path d="M0 0 0.000104987 120.16" stroke="#ED7D31" stroke-width="2" stroke-miterlimit="8" fill="none" fill-rule="evenodd" transform="matrix(1 0 0 -1 569 -362.84)"/><rect x="324.5" y="-206.5" width="134" height="196" stroke="#70AD47" stroke-width="3" stroke-miterlimit="8" fill="#E2F0D9" fill-opacity="0.501961"/><rect x="198.5" y="-198.5" width="247" height="196" stroke="#5B9BD5" stroke-width="3" stroke-miterlimit="8" fill="#DEEBF7" fill-opacity="0.501961"/><text font-family="Cambria Math,Cambria Math_MSFontService,sans-serif" font-weight="400" font-size="27" transform="translate(157.662 -28)">𝑞<tspan font-size="20" x="13.8133" y="5">2</tspan><tspan font-size="27" x="0.310074" y="-72">𝑞</tspan><tspan font-size="20" x="13.5034" y="-66">1</tspan><tspan font-size="27" x="-0.195282" y="-141">𝑞</tspan><tspan font-size="20" x="13.6181" y="-136">0</tspan></text><path d="M190-33 608.102-32.9999" stroke="#000000" stroke-width="2" stroke-miterlimit="8" fill="none" fill-rule="evenodd"/><path d="M190-105 608.102-105" stroke="#000000" stroke-width="2" stroke-miterlimit="8" fill="none" fill-rule="evenodd"/><path d="M190-174 608.258-174" stroke="#000000" stroke-width="2" stroke-miterlimit="8" fill="none" fill-rule="evenodd"/><path d="M429-34.5C429-25.9396 422.284-19 414-19 405.716-19 399-25.9396 399-34.5 399-43.0604 405.716-50 414-50 422.284-50 429-43.0604 429-34.5Z" fill="#FFFFFF" fill-rule="evenodd"/><path d="M414-19 414-50M429-34.5 399-34.5" stroke="#ED7D31" stroke-width="2" stroke-miterlimit="8" fill="none" fill-rule="evenodd"/><path d="M429-34.5C429-25.9396 422.284-19 414-19 405.716-19 399-25.9396 399-34.5 399-43.0604 405.716-50 414-50 422.284-50 429-43.0604 429-34.5Z" stroke="#ED7D31" stroke-width="2" stroke-miterlimit="8" fill="none" fill-rule="evenodd"/><path d="M420-105C420-101.686 417.314-99 414-99 410.686-99 408-101.686 408-105 408-108.314 410.686-111 414-111 417.314-111 420-108.314 420-105Z" fill="#ED7D31" fill-rule="evenodd"/><path d="M0 0 0.000104987 49.8056" stroke="#ED7D31" stroke-width="2" stroke-miterlimit="8" fill="none" fill-rule="evenodd" transform="matrix(-1 1.22465e-16 1.22465e-16 1 414 -99)"/><path d="M209-174C209-182.284 215.716-189 224-189 232.284-189 239-182.284 239-174 239-165.716 232.284-159 224-159 215.716-159 209-165.716 209-174Z" fill="#FFFFFF" fill-rule="evenodd"/><path d="M224-189 224-159M209-174 239-174" stroke="#ED7D31" stroke-width="2" stroke-miterlimit="8" fill="none" fill-rule="evenodd"/><path d="M209-174C209-182.284 215.716-189 224-189 232.284-189 239-182.284 239-174 239-165.716 232.284-159 224-159 215.716-159 209-165.716 209-174Z" stroke="#ED7D31" stroke-width="2" stroke-miterlimit="8" fill="none" fill-rule="evenodd"/><path d="M218-33C218-36.3137 220.686-39 224-39 227.314-39 230-36.3137 230-33 230-29.6863 227.314-27 224-27 220.686-27 218-29.6863 218-33Z" fill="#ED7D31" fill-rule="evenodd"/><path d="M0 0 0.000104987 119.518" stroke="#ED7D31" stroke-width="2" stroke-miterlimit="8" fill="none" fill-rule="evenodd" transform="matrix(1 0 0 -1 224 -39.4817)"/><rect x="260" y="-196" width="48" height="45" stroke="#ED7D31" stroke-width="2" stroke-miterlimit="8" fill="#FFFFFF"/><text fill="#ED7D31" font-family="Cambria Math,Cambria Math_MSFontService,sans-serif" font-weight="400" font-size="32" transform="translate(269.487 -162)">𝑇<tspan font-size="23" x="20.7133" y="-12">†</tspan></text><path d="M344-174.5C344-183.06 350.94-190 359.5-190 368.06-190 375-183.06 375-174.5 375-165.94 368.06-159 359.5-159 350.94-159 344-165.94 344-174.5Z" fill="#FFFFFF" fill-rule="evenodd"/><path d="M359.5-190 359.5-159M344-174.5 375-174.5" stroke="#ED7D31" stroke-width="2" stroke-miterlimit="8" fill="none" fill-rule="evenodd"/><path d="M344-174.5C344-183.06 350.94-190 359.5-190 368.06-190 375-183.06 375-174.5 375-165.94 368.06-159 359.5-159 350.94-159 344-165.94 344-174.5Z" stroke="#ED7D31" stroke-width="2" stroke-miterlimit="8" fill="none" fill-rule="evenodd"/><path d="M353-103C353-106.314 355.686-109 359-109 362.314-109 365-106.314 365-103 365-99.6863 362.314-97 359-97 355.686-97 353-99.6863 353-103Z" fill="#ED7D31" fill-rule="evenodd"/><path d="M0 0 0.000104987 50.0063" stroke="#ED7D31" stroke-width="2" stroke-miterlimit="8" fill="none" fill-rule="evenodd" transform="matrix(1 0 0 -1 359 -108.994)"/><rect x="482" y="-196" width="48" height="45" stroke="#ED7D31" stroke-width="2" stroke-miterlimit="8" fill="#FFFFFF"/><text fill="#ED7D31" font-family="Cambria Math,Cambria Math_MSFontService,sans-serif" font-weight="400" font-size="32" transform="translate(491.611 -163)">𝑇</text><path d="M555-174.5C555-183.06 561.716-190 570-190 578.284-190 585-183.06 585-174.5 585-165.94 578.284-159 570-159 561.716-159 555-165.94 555-174.5Z" fill="#FFFFFF" fill-rule="evenodd"/><path d="M570-190 570-159M555-174.5 585-174.5" stroke="#ED7D31" stroke-width="2" stroke-miterlimit="8" fill="none" fill-rule="evenodd"/><path d="M555-174.5C555-183.06 561.716-190 570-190 578.284-190 585-183.06 585-174.5 585-165.94 578.284-159 570-159 561.716-159 555-165.94 555-174.5Z" stroke="#ED7D31" stroke-width="2" stroke-miterlimit="8" fill="none" fill-rule="evenodd"/><path d="M564-33C564-36.3137 566.686-39 570-39 573.314-39 576-36.3137 576-33 576-29.6863 573.314-27 570-27 566.686-27 564-29.6863 564-33Z" fill="#ED7D31" fill-rule="evenodd"/><path d="M0 0 0.000104987 120.16" stroke="#ED7D31" stroke-width="2" stroke-miterlimit="8" fill="none" fill-rule="evenodd" transform="matrix(1 0 0 -1 570 -38.8397)"/><path d="M367.5 22.5 367.5 79.5 386.5 79.5 348.5 117.5 310.5 79.5 329.5 79.5 329.5 22.5Z" stroke="#5B9BD5" stroke-width="3" stroke-miterlimit="8" fill="#DEEBF7" fill-rule="evenodd"/><rect x="451.5" y="565.5" width="78" height="73" stroke="#BA8BDD" stroke-width="3" stroke-miterlimit="8" fill="#E8D8F4" fill-opacity="0.498039"/><text font-family="Cambria Math,Cambria Math_MSFontService,sans-serif" font-weight="400" font-size="27" transform="translate(157.505 607)">𝑞<tspan font-size="20" x="13.8133" y="6">2</tspan><tspan font-size="27" x="0.310074" y="-71">𝑞</tspan><tspan font-size="20" x="13.5034" y="-66">1</tspan><tspan font-size="27" x="-0.195282" y="-141">𝑞</tspan><tspan font-size="20" x="13.6181" y="-135">0</tspan></text><path d="M190 602 608.306 602" stroke="#000000" stroke-width="2" stroke-miterlimit="8" fill="none" fill-rule="evenodd"/><path d="M190 531 608.306 531" stroke="#000000" stroke-width="2" stroke-miterlimit="8" fill="none" fill-rule="evenodd"/><path d="M190 461 608.463 461" stroke="#000000" stroke-width="2" stroke-miterlimit="8" fill="none" fill-rule="evenodd"/><path d="M416 602C416 610.284 409.284 617 401 617 392.716 617 386 610.284 386 602 386 593.716 392.716 587 401 587 409.284 587 416 593.716 416 602Z" fill="#FFFFFF" fill-rule="evenodd"/><path d="M401 617 401 587M416 602 386 602" stroke="#ED7D31" stroke-width="2" stroke-miterlimit="8" fill="none" fill-rule="evenodd"/><path d="M416 602C416 610.284 409.284 617 401 617 392.716 617 386 610.284 386 602 386 593.716 392.716 587 401 587 409.284 587 416 593.716 416 602Z" stroke="#ED7D31" stroke-width="2" stroke-miterlimit="8" fill="none" fill-rule="evenodd"/><path d="M407 531C407 534.314 404.314 537 401 537 397.686 537 395 534.314 395 531 395 527.686 397.686 525 401 525 404.314 525 407 527.686 407 531Z" fill="#ED7D31" fill-rule="evenodd"/><path d="M0 0 0.000104987 49.8056" stroke="#ED7D31" stroke-width="2" stroke-miterlimit="8" fill="none" fill-rule="evenodd" transform="matrix(-1 1.22465e-16 1.22465e-16 1 401 537)"/><path d="M239 602C239 610.284 232.284 617 224 617 215.716 617 209 610.284 209 602 209 593.716 215.716 587 224 587 232.284 587 239 593.716 239 602Z" fill="#FFFFFF" fill-rule="evenodd"/><path d="M224 617 224 587M239 602 209 602" stroke="#ED7D31" stroke-width="2" stroke-miterlimit="8" fill="none" fill-rule="evenodd"/><path d="M239 602C239 610.284 232.284 617 224 617 215.716 617 209 610.284 209 602 209 593.716 215.716 587 224 587 232.284 587 239 593.716 239 602Z" stroke="#ED7D31" stroke-width="2" stroke-miterlimit="8" fill="none" fill-rule="evenodd"/><path d="M230 461C230 464.314 227.314 467 224 467 220.686 467 218 464.314 218 461 218 457.686 220.686 455 224 455 227.314 455 230 457.686 230 461Z" fill="#ED7D31" fill-rule="evenodd"/><path d="M0 0 0.000104987 119.518" stroke="#ED7D31" stroke-width="2" stroke-miterlimit="8" fill="none" fill-rule="evenodd" transform="matrix(-1 1.22465e-16 1.22465e-16 1 224 467)"/><rect x="289" y="579" width="48" height="46" stroke="#ED7D31" stroke-width="2" stroke-miterlimit="8" fill="#FFFFFF"/><text fill="#ED7D31" font-family="Cambria Math,Cambria Math_MSFontService,sans-serif" font-weight="400" font-size="32" transform="translate(298.612 613)">𝑇<tspan font-size="23" x="20.7133" y="-11">†</tspan></text><rect x="466" y="579" width="48" height="46" stroke="#ED7D31" stroke-width="2" stroke-miterlimit="8" fill="#FFFFFF"/><text fill="#ED7D31" font-family="Cambria Math,Cambria Math_MSFontService,sans-serif" font-weight="400" font-size="32" transform="translate(475.945 613)">𝑇</text><path d="M555 461.5C555 452.94 561.716 446 570 446 578.284 446 585 452.94 585 461.5 585 470.06 578.284 477 570 477 561.716 477 555 470.06 555 461.5Z" fill="#FFFFFF" fill-rule="evenodd"/><path d="M570 446 570 477M555 461.5 585 461.5" stroke="#ED7D31" stroke-width="2" stroke-miterlimit="8" fill="none" fill-rule="evenodd"/><path d="M555 461.5C555 452.94 561.716 446 570 446 578.284 446 585 452.94 585 461.5 585 470.06 578.284 477 570 477 561.716 477 555 470.06 555 461.5Z" stroke="#ED7D31" stroke-width="2" stroke-miterlimit="8" fill="none" fill-rule="evenodd"/><path d="M564 602C564 598.686 566.686 596 570 596 573.314 596 576 598.686 576 602 576 605.314 573.314 608 570 608 566.686 608 564 605.314 564 602Z" fill="#ED7D31" fill-rule="evenodd"/><path d="M0 0 0.000104987 119.518" stroke="#ED7D31" stroke-width="2" stroke-miterlimit="8" fill="none" fill-rule="evenodd" transform="matrix(1 0 0 -1 570 596.518)"/><path d="M506.5 348.5 506.5 399.5 527.5 399.5 485.5 441.5 443.5 399.5 464.5 399.5 464.5 348.5Z" stroke="#BA8BDD" stroke-width="3" stroke-miterlimit="8" fill="#E8D8F4" fill-rule="evenodd"/><text fill="#70AD47" font-family="Cambria Math,Cambria Math_MSFontService,sans-serif" font-weight="400" font-size="32" transform="translate(424.946 -301)">𝑺<tspan font-size="23" x="18.1667" y="6">𝟏</tspan><tspan font-size="23" x="32.1667" y="6">𝟏</tspan><tspan font-size="32" x="2.2991" y="78">𝑻</tspan><tspan font-size="23" x="22.2991" y="84">𝟏</tspan><tspan font-size="23" x="36.2991" y="84">𝟏</tspan><tspan fill="#5B9BD5" font-size="32" x="-37.8794" y="328">𝑺</tspan><tspan fill="#5B9BD5" font-size="23" x="-19.7127" y="335">𝟏</tspan><tspan fill="#5B9BD5" font-size="23" x="-5.71271" y="335">𝟐</tspan><tspan fill="#5B9BD5" font-size="32" x="-184.738" y="421">𝑻</tspan><tspan fill="#5B9BD5" font-size="23" x="-164.738" y="427">𝟏</tspan><tspan fill="#5B9BD5" font-size="23" x="-150.738" y="427">𝟐</tspan><tspan fill="#BA8BDD" font-size="32" x="103.478" y="652">𝑺</tspan><tspan fill="#BA8BDD" font-size="23" x="121.645" y="658">𝟏</tspan><tspan fill="#BA8BDD" font-size="23" x="135.645" y="658">𝟑</tspan><tspan fill="#BA8BDD" font-size="32" x="94.0352" y="858">𝑻</tspan><tspan fill="#BA8BDD" font-size="23" x="114.035" y="865">𝟏</tspan><tspan fill="#BA8BDD" font-size="23" x="128.035" y="865">𝟑</tspan><tspan fill="#9F5ED0" font-size="32" x="-247.564" y="-16">|</tspan><tspan fill="#9F5ED0" font-size="32" x="-237.397" y="-16">𝑪</tspan><tspan fill="#9F5ED0" font-size="23" x="-217.397" y="-10">𝟏</tspan><tspan fill="#9F5ED0" font-size="23" x="-203.397" y="-10">𝟏</tspan><tspan fill="#9F5ED0" font-size="32" x="-188.07" y="-16">|</tspan><tspan fill="#9F5ED0" font-size="32" x="-169.017" y="-16">=</tspan><tspan fill="#9F5ED0" font-size="32" x="-136.297" y="-16">𝟔</tspan><tspan fill="#9F5ED0" font-size="32" x="-247.564" y="333">|</tspan><tspan fill="#9F5ED0" font-size="32" x="-237.397" y="333">𝑪</tspan><tspan fill="#9F5ED0" font-size="23" x="-217.397" y="340">𝟏</tspan><tspan fill="#9F5ED0" font-size="23" x="-203.397" y="340">𝟐</tspan><tspan fill="#9F5ED0" font-size="32" x="-188.071" y="333">|</tspan><tspan fill="#9F5ED0" font-size="32" x="-169.017" y="333">=</tspan><tspan fill="#9F5ED0" font-size="32" x="-136.297" y="333">𝟔</tspan><tspan fill="#9F5ED0" font-size="32" x="-236.819" y="666">|</tspan><tspan fill="#9F5ED0" font-size="32" x="-226.653" y="666">𝑪</tspan><tspan fill="#9F5ED0" font-size="23" x="-206.653" y="672">𝟏</tspan><tspan fill="#9F5ED0" font-size="23" x="-192.653" y="672">𝟑</tspan><tspan fill="#9F5ED0" font-size="32" x="-177.326" y="666">|</tspan><tspan fill="#9F5ED0" font-size="32" x="-158.273" y="666">=</tspan><tspan fill="#9F5ED0" font-size="32" x="-125.553" y="666">𝟕</tspan><tspan fill="#9F5ED0" font-size="32" x="-240.968" y="958">|</tspan><tspan fill="#9F5ED0" font-size="32" x="-230.802" y="958">𝑪</tspan><tspan fill="#9F5ED0" font-size="23" x="-210.802" y="965">𝟏</tspan><tspan fill="#9F5ED0" font-size="23" x="-196.802" y="965">𝟒</tspan><tspan fill="#9F5ED0" font-size="32" x="-181.475" y="958">|</tspan><tspan fill="#9F5ED0" font-size="32" x="-162.422" y="958">=</tspan><tspan fill="#9F5ED0" font-size="32" x="-129.702" y="958">𝟓</tspan></text></g></svg>