<svg width="999" height="1630" xmlns="http://www.w3.org/2000/svg" xmlns:xlink="http://www.w3.org/1999/xlink" overflow="hidden"><defs><clipPath id="clip0"><rect x="298" y="54" width="999" height="1630"/></clipPath></defs><g clip-path="url(#clip0)" transform="translate(-298 -54)"><rect x="585.5" y="1074.5" width="255" height="275" stroke="#9F5FCF" stroke-width="3" stroke-miterlimit="8" fill="#E8D9F3" fill-opacity="0.501961"/><rect x="786.5" y="1097.5" width="127" height="267" stroke="#FFC000" stroke-width="3" stroke-miterlimit="8" fill="#FFF2CC" fill-opacity="0.501961"/><rect x="365.5" y="734.5" width="278" height="264" stroke="#5B9BD5" stroke-width="3" stroke-miterlimit="8" fill="#DEEBF7" fill-opacity="0.501961"/><rect x="587.5" y="723.5" width="255" height="289" stroke="#9F5FCF" stroke-width="3" stroke-miterlimit="8" fill="#E8D9F3" fill-opacity="0.501961"/><path d="M359 904 1026.6 904" stroke="#000000" stroke-width="2" stroke-miterlimit="8" fill="none" fill-rule="evenodd"/><path d="M359 833 1026.6 833" stroke="#000000" stroke-width="2" stroke-miterlimit="8" fill="none" fill-rule="evenodd"/><path d="M359 763 1026.85 763" stroke="#000000" stroke-width="2" stroke-miterlimit="8" fill="none" fill-rule="evenodd"/><path d="M359 974 1026.6 974" stroke="#000000" stroke-width="2" stroke-miterlimit="8" fill="none" fill-rule="evenodd"/><text font-family="Cambria Math,Cambria Math_MSFontService,sans-serif" font-weight="400" font-size="32" transform="translate(313.519 914)">𝑞<tspan font-size="23" x="16.54" y="7">2</tspan><tspan font-size="32" x="0.0400085" y="-71">𝑞</tspan><tspan font-size="23" x="15.84" y="-64">1</tspan><tspan font-size="32" x="-0.195251" y="-141">𝑞</tspan><tspan font-size="23" x="16.3447" y="-134">0</tspan></text><path d="M405 974C405 982.284 398.06 989 389.5 989 380.94 989 374 982.284 374 974 374 965.716 380.94 959 389.5 959 398.06 959 405 965.716 405 974Z" fill="#FFFFFF" fill-rule="evenodd"/><path d="M389.5 989 389.5 959M405 974 374 974" stroke="#ED7D31" stroke-width="2" stroke-miterlimit="8" fill="none" fill-rule="evenodd"/><path d="M405 974C405 982.284 398.06 989 389.5 989 380.94 989 374 982.284 374 974 374 965.716 380.94 959 389.5 959 398.06 959 405 965.716 405 974Z" stroke="#ED7D31" stroke-width="2" stroke-miterlimit="8" fill="none" fill-rule="evenodd"/><path d="M395 763C395 766.314 392.314 769 389 769 385.686 769 383 766.314 383 763 383 759.686 385.686 757 389 757 392.314 757 395 759.686 395 763Z" fill="#ED7D31" fill-rule="evenodd"/><path d="M389.469 959.082 389 769" stroke="#ED7D31" stroke-width="2" stroke-miterlimit="8" fill="none" fill-rule="evenodd"/><rect x="719" y="740" width="47" height="45" stroke="#ED7D31" stroke-width="2" stroke-miterlimit="8" fill="#FFFFFF"/><text fill="#ED7D31" font-family="Cambria Math,Cambria Math_MSFontService,sans-serif" font-weight="400" font-size="32" transform="translate(728.354 774)">𝑇</text><rect x="478" y="810" width="48" height="45" stroke="#ED7D31" stroke-width="2" stroke-miterlimit="8" fill="#FFFFFF"/><text fill="#ED7D31" font-family="Cambria Math,Cambria Math_MSFontService,sans-serif" font-weight="400" font-size="32" transform="translate(488.09 844)">𝑇<tspan font-size="23" x="20.7133" y="-12">†</tspan></text><path d="M551 833C551 824.716 557.716 818 566 818 574.284 818 581 824.716 581 833 581 841.284 574.284 848 566 848 557.716 848 551 841.284 551 833Z" fill="#FFFFFF" fill-rule="evenodd"/><path d="M566 818 566 848M551 833 581 833" stroke="#ED7D31" stroke-width="2" stroke-miterlimit="8" fill="none" fill-rule="evenodd"/><path d="M551 833C551 824.716 557.716 818 566 818 574.284 818 581 824.716 581 833 581 841.284 574.284 848 566 848 557.716 848 551 841.284 551 833Z" stroke="#ED7D31" stroke-width="2" stroke-miterlimit="8" fill="none" fill-rule="evenodd"/><path d="M560 974C560 970.686 562.686 968 566 968 569.314 968 572 970.686 572 974 572 977.314 569.314 980 566 980 562.686 980 560 977.314 560 974Z" fill="#ED7D31" fill-rule="evenodd"/><path d="M0 0 0.000104987 119.754" stroke="#ED7D31" stroke-width="2" stroke-miterlimit="8" fill="none" fill-rule="evenodd" transform="matrix(1 0 0 -1 566 967.754)"/><path d="M633 974C633 982.284 626.284 989 618 989 609.716 989 603 982.284 603 974 603 965.716 609.716 959 618 959 626.284 959 633 965.716 633 974Z" fill="#FFFFFF" fill-rule="evenodd"/><path d="M618 989 618 959M633 974 603 974" stroke="#ED7D31" stroke-width="2" stroke-miterlimit="8" fill="none" fill-rule="evenodd"/><path d="M633 974C633 982.284 626.284 989 618 989 609.716 989 603 982.284 603 974 603 965.716 609.716 959 618 959 626.284 959 633 965.716 633 974Z" stroke="#ED7D31" stroke-width="2" stroke-miterlimit="8" fill="none" fill-rule="evenodd"/><path d="M624 763C624 766.314 621.314 769 618 769 614.686 769 612 766.314 612 763 612 759.686 614.686 757 618 757 621.314 757 624 759.686 624 763Z" fill="#ED7D31" fill-rule="evenodd"/><path d="M618 958.812 618 769" stroke="#ED7D31" stroke-width="2" stroke-miterlimit="8" fill="none" fill-rule="evenodd"/><text font-family="Cambria Math,Cambria Math_MSFontService,sans-serif" font-weight="400" font-size="32" transform="translate(313.323 985)">𝑞<tspan font-size="23" x="16.54" y="6">3</tspan></text><path d="M892 974C892 982.284 885.284 989 877 989 868.716 989 862 982.284 862 974 862 965.716 868.716 959 877 959 885.284 959 892 965.716 892 974Z" fill="#FFFFFF" fill-rule="evenodd"/><path d="M877 989 877 959M892 974 862 974" stroke="#ED7D31" stroke-width="2" stroke-miterlimit="8" fill="none" fill-rule="evenodd"/><path d="M892 974C892 982.284 885.284 989 877 989 868.716 989 862 982.284 862 974 862 965.716 868.716 959 877 959 885.284 959 892 965.716 892 974Z" stroke="#ED7D31" stroke-width="2" stroke-miterlimit="8" fill="none" fill-rule="evenodd"/><path d="M883 763C883 766.314 880.314 769 877 769 873.686 769 871 766.314 871 763 871 759.686 873.686 757 877 757 880.314 757 883 759.686 883 763Z" fill="#ED7D31" fill-rule="evenodd"/><path d="M877 958.862 877 769" stroke="#ED7D31" stroke-width="2" stroke-miterlimit="8" fill="none" fill-rule="evenodd"/><path d="M659 763C659 754.716 665.716 748 674 748 682.284 748 689 754.716 689 763 689 771.284 682.284 778 674 778 665.716 778 659 771.284 659 763Z" fill="#FFFFFF" fill-rule="evenodd"/><path d="M674 748 674 778M659 763 689 763" stroke="#ED7D31" stroke-width="2" stroke-miterlimit="8" fill="none" fill-rule="evenodd"/><path d="M659 763C659 754.716 665.716 748 674 748 682.284 748 689 754.716 689 763 689 771.284 682.284 778 674 778 665.716 778 659 771.284 659 763Z" stroke="#ED7D31" stroke-width="2" stroke-miterlimit="8" fill="none" fill-rule="evenodd"/><path d="M668 834C668 830.686 670.686 828 674 828 677.314 828 680 830.686 680 834 680 837.314 677.314 840 674 840 670.686 840 668 837.314 668 834Z" fill="#ED7D31" fill-rule="evenodd"/><path d="M0 0 0.000104987 50.0063" stroke="#ED7D31" stroke-width="2" stroke-miterlimit="8" fill="none" fill-rule="evenodd" transform="matrix(1 0 0 -1 674 828.006)"/><rect x="944" y="951" width="48" height="45" stroke="#ED7D31" stroke-width="2" stroke-miterlimit="8" fill="#FFFFFF"/><text fill="#ED7D31" font-family="Cambria Math,Cambria Math_MSFontService,sans-serif" font-weight="400" font-size="32" transform="translate(954.051 985)">𝑇<tspan font-size="23" x="20.7133" y="-12">†</tspan></text><path d="M796 762.5C796 753.94 802.94 747 811.5 747 820.06 747 827 753.94 827 762.5 827 771.06 820.06 778 811.5 778 802.94 778 796 771.06 796 762.5Z" fill="#FFFFFF" fill-rule="evenodd"/><path d="M811.5 747 811.5 778M796 762.5 827 762.5" stroke="#ED7D31" stroke-width="2" stroke-miterlimit="8" fill="none" fill-rule="evenodd"/><path d="M796 762.5C796 753.94 802.94 747 811.5 747 820.06 747 827 753.94 827 762.5 827 771.06 820.06 778 811.5 778 802.94 778 796 771.06 796 762.5Z" stroke="#ED7D31" stroke-width="2" stroke-miterlimit="8" fill="none" fill-rule="evenodd"/><path d="M805 834C805 830.686 807.686 828 811 828 814.314 828 817 830.686 817 834 817 837.314 814.314 840 811 840 807.686 840 805 837.314 805 834Z" fill="#ED7D31" fill-rule="evenodd"/><path d="M0 0 0.000104987 50.0063" stroke="#ED7D31" stroke-width="2" stroke-miterlimit="8" fill="none" fill-rule="evenodd" transform="matrix(1 0 0 -1 811 828.006)"/><path d="M454 832.5C454 841.06 447.284 848 439 848 430.716 848 424 841.06 424 832.5 424 823.94 430.716 817 439 817 447.284 817 454 823.94 454 832.5Z" fill="#FFFFFF" fill-rule="evenodd"/><path d="M439 848 439 817M454 832.5 424 832.5" stroke="#ED7D31" stroke-width="2" stroke-miterlimit="8" fill="none" fill-rule="evenodd"/><path d="M454 832.5C454 841.06 447.284 848 439 848 430.716 848 424 841.06 424 832.5 424 823.94 430.716 817 439 817 447.284 817 454 823.94 454 832.5Z" stroke="#ED7D31" stroke-width="2" stroke-miterlimit="8" fill="none" fill-rule="evenodd"/><path d="M445 762C445 765.314 442.314 768 439 768 435.686 768 433 765.314 433 762 433 758.686 435.686 756 439 756 442.314 756 445 758.686 445 762Z" fill="#ED7D31" fill-rule="evenodd"/><path d="M0 0 0.288924 49.2572" stroke="#ED7D31" stroke-width="2" stroke-miterlimit="8" fill="none" fill-rule="evenodd" transform="matrix(-1 1.22465e-16 1.22465e-16 1 439.289 768)"/><rect x="633.5" y="396.5" width="279" height="276" stroke="#70AD47" stroke-width="3" stroke-miterlimit="8" fill="#E2F0D9" fill-opacity="0.501961"/><rect x="371.5" y="395.5" width="253" height="276" stroke="#5B9BD5" stroke-width="3" stroke-miterlimit="8" fill="#DEEBF7" fill-opacity="0.501961"/><rect x="633.5" y="56.5001" width="279" height="276" stroke="#70AD47" stroke-width="3" stroke-miterlimit="8" fill="#E2F0D9" fill-opacity="0.501961"/><path d="M786.25 338.5 786.25 365 799.5 365 773 391.5 746.5 365 759.75 365 759.75 338.5Z" stroke="#70AD47" stroke-width="3" stroke-miterlimit="8" fill="#E2F0D9" fill-rule="evenodd"/><path d="M359 232 1026.6 232" stroke="#000000" stroke-width="2" stroke-miterlimit="8" fill="none" fill-rule="evenodd"/><path d="M359 161 1026.6 161" stroke="#000000" stroke-width="2" stroke-miterlimit="8" fill="none" fill-rule="evenodd"/><path d="M359 91 1026.85 91.0001" stroke="#000000" stroke-width="2" stroke-miterlimit="8" fill="none" fill-rule="evenodd"/><path d="M359 302 1026.6 302" stroke="#000000" stroke-width="2" stroke-miterlimit="8" fill="none" fill-rule="evenodd"/><text font-family="Cambria Math,Cambria Math_MSFontService,sans-serif" font-weight="400" font-size="32" transform="translate(313.595 243)">𝑞<tspan font-size="23" x="16.54" y="6">2</tspan><tspan font-size="32" x="0.0400085" y="-72">𝑞</tspan><tspan font-size="23" x="15.84" y="-65">1</tspan><tspan font-size="32" x="-0.195282" y="-141">𝑞</tspan><tspan font-size="23" x="16.3447" y="-135">0</tspan></text><path d="M390 91C390 82.7157 396.94 76 405.5 76 414.06 76 421 82.7157 421 91 421 99.2843 414.06 106 405.5 106 396.94 106 390 99.2843 390 91Z" fill="#FFFFFF" fill-rule="evenodd"/><path d="M405.5 76 405.5 106M390 91 421 91" stroke="#ED7D31" stroke-width="2" stroke-miterlimit="8" fill="none" fill-rule="evenodd"/><path d="M390 91C390 82.7157 396.94 76 405.5 76 414.06 76 421 82.7157 421 91 421 99.2843 414.06 106 405.5 106 396.94 106 390 99.2843 390 91Z" stroke="#ED7D31" stroke-width="2" stroke-miterlimit="8" fill="none" fill-rule="evenodd"/><path d="M399 161C399 157.686 401.686 155 405 155 408.314 155 411 157.686 411 161 411 164.314 408.314 167 405 167 401.686 167 399 164.314 399 161Z" fill="#ED7D31" fill-rule="evenodd"/><path d="M0 0 0.288924 49.2572" stroke="#ED7D31" stroke-width="2" stroke-miterlimit="8" fill="none" fill-rule="evenodd" transform="matrix(1 0 0 -1 405 155.257)"/><rect x="779" y="69" width="47" height="45" stroke="#ED7D31" stroke-width="2" stroke-miterlimit="8" fill="#FFFFFF"/><text fill="#ED7D31" font-family="Cambria Math,Cambria Math_MSFontService,sans-serif" font-weight="400" font-size="32" transform="translate(788.293 102)">𝑇</text><rect x="445" y="68" width="47" height="45" stroke="#ED7D31" stroke-width="2" stroke-miterlimit="8" fill="#FFFFFF"/><text fill="#ED7D31" font-family="Cambria Math,Cambria Math_MSFontService,sans-serif" font-weight="400" font-size="32" transform="translate(454.172 102)">𝑇<tspan font-size="23" x="20.7133" y="-12">†</tspan></text><path d="M516 91C516 82.7157 522.716 76 531 76 539.284 76 546 82.7157 546 91 546 99.2843 539.284 106 531 106 522.716 106 516 99.2843 516 91Z" fill="#FFFFFF" fill-rule="evenodd"/><path d="M531 76 531 106M516 91 546 91" stroke="#ED7D31" stroke-width="2" stroke-miterlimit="8" fill="none" fill-rule="evenodd"/><path d="M516 91C516 82.7157 522.716 76 531 76 539.284 76 546 82.7157 546 91 546 99.2843 539.284 106 531 106 522.716 106 516 99.2843 516 91Z" stroke="#ED7D31" stroke-width="2" stroke-miterlimit="8" fill="none" fill-rule="evenodd"/><path d="M525 162C525 158.686 527.686 156 531 156 534.314 156 537 158.686 537 162 537 165.314 534.314 168 531 168 527.686 168 525 165.314 525 162Z" fill="#ED7D31" fill-rule="evenodd"/><path d="M0 0 0.000104987 50.0063" stroke="#ED7D31" stroke-width="2" stroke-miterlimit="8" fill="none" fill-rule="evenodd" transform="matrix(1 0 0 -1 531 156.006)"/><path d="M581 161C581 152.716 587.94 146 596.5 146 605.06 146 612 152.716 612 161 612 169.284 605.06 176 596.5 176 587.94 176 581 169.284 581 161Z" fill="#FFFFFF" fill-rule="evenodd"/><path d="M596.5 146 596.5 176M581 161 612 161" stroke="#ED7D31" stroke-width="2" stroke-miterlimit="8" fill="none" fill-rule="evenodd"/><path d="M581 161C581 152.716 587.94 146 596.5 146 605.06 146 612 152.716 612 161 612 169.284 605.06 176 596.5 176 587.94 176 581 169.284 581 161Z" stroke="#ED7D31" stroke-width="2" stroke-miterlimit="8" fill="none" fill-rule="evenodd"/><path d="M591 302C591 298.686 593.686 296 597 296 600.314 296 603 298.686 603 302 603 305.314 600.314 308 597 308 593.686 308 591 305.314 591 302Z" fill="#ED7D31" fill-rule="evenodd"/><path d="M0 0 0.000104987 120.16" stroke="#ED7D31" stroke-width="2" stroke-miterlimit="8" fill="none" fill-rule="evenodd" transform="matrix(1 0 0 -1 597 296.16)"/><text font-family="Cambria Math,Cambria Math_MSFontService,sans-serif" font-weight="400" font-size="32" transform="translate(313.4 313)">𝑞<tspan font-size="23" x="16.54" y="6">3</tspan></text><path d="M687 302C687 310.284 680.06 317 671.5 317 662.94 317 656 310.284 656 302 656 293.716 662.94 287 671.5 287 680.06 287 687 293.716 687 302Z" fill="#FFFFFF" fill-rule="evenodd"/><path d="M671.5 317 671.5 287M687 302 656 302" stroke="#ED7D31" stroke-width="2" stroke-miterlimit="8" fill="none" fill-rule="evenodd"/><path d="M687 302C687 310.284 680.06 317 671.5 317 662.94 317 656 310.284 656 302 656 293.716 662.94 287 671.5 287 680.06 287 687 293.716 687 302Z" stroke="#ED7D31" stroke-width="2" stroke-miterlimit="8" fill="none" fill-rule="evenodd"/><path d="M678 91C678 94.3137 675.314 97 672 97 668.686 97 666 94.3137 666 91 666 87.6863 668.686 85 672 85 675.314 85 678 87.6863 678 91Z" fill="#ED7D31" fill-rule="evenodd"/><path d="M672 286.862 672 97" stroke="#ED7D31" stroke-width="2" stroke-miterlimit="8" fill="none" fill-rule="evenodd"/><path d="M719 91C719 82.7157 725.716 76 734 76 742.284 76 749 82.7157 749 91 749 99.2843 742.284 106 734 106 725.716 106 719 99.2843 719 91Z" fill="#FFFFFF" fill-rule="evenodd"/><path d="M734 76 734 106M719 91 749 91" stroke="#ED7D31" stroke-width="2" stroke-miterlimit="8" fill="none" fill-rule="evenodd"/><path d="M719 91C719 82.7157 725.716 76 734 76 742.284 76 749 82.7157 749 91 749 99.2843 742.284 106 734 106 725.716 106 719 99.2843 719 91Z" stroke="#ED7D31" stroke-width="2" stroke-miterlimit="8" fill="none" fill-rule="evenodd"/><path d="M728 162C728 158.686 730.686 156 734 156 737.314 156 740 158.686 740 162 740 165.314 737.314 168 734 168 730.686 168 728 165.314 728 162Z" fill="#ED7D31" fill-rule="evenodd"/><path d="M0 0 0.000104987 50.0063" stroke="#ED7D31" stroke-width="2" stroke-miterlimit="8" fill="none" fill-rule="evenodd" transform="matrix(1 0 0 -1 734 156.006)"/><rect x="931" y="279" width="48" height="46" stroke="#ED7D31" stroke-width="2" stroke-miterlimit="8" fill="#FFFFFF"/><text fill="#ED7D31" font-family="Cambria Math,Cambria Math_MSFontService,sans-serif" font-weight="400" font-size="32" transform="translate(940.528 313)">𝑇<tspan font-size="23" x="20.7133" y="-12">†</tspan></text><path d="M856 91C856 82.7157 862.94 76 871.5 76 880.06 76 887 82.7157 887 91 887 99.2843 880.06 106 871.5 106 862.94 106 856 99.2843 856 91Z" fill="#FFFFFF" fill-rule="evenodd"/><path d="M871.5 76 871.5 106M856 91 887 91" stroke="#ED7D31" stroke-width="2" stroke-miterlimit="8" fill="none" fill-rule="evenodd"/><path d="M856 91C856 82.7157 862.94 76 871.5 76 880.06 76 887 82.7157 887 91 887 99.2843 880.06 106 871.5 106 862.94 106 856 99.2843 856 91Z" stroke="#ED7D31" stroke-width="2" stroke-miterlimit="8" fill="none" fill-rule="evenodd"/><path d="M865 162C865 158.686 867.686 156 871 156 874.314 156 877 158.686 877 162 877 165.314 874.314 168 871 168 867.686 168 865 165.314 865 162Z" fill="#ED7D31" fill-rule="evenodd"/><path d="M0 0 0.000104987 50.0063" stroke="#ED7D31" stroke-width="2" stroke-miterlimit="8" fill="none" fill-rule="evenodd" transform="matrix(1 0 0 -1 871 156.006)"/><path d="M359 566 1026.6 566" stroke="#000000" stroke-width="2" stroke-miterlimit="8" fill="none" fill-rule="evenodd"/><path d="M359 495 1026.6 495" stroke="#000000" stroke-width="2" stroke-miterlimit="8" fill="none" fill-rule="evenodd"/><path d="M359 425 1026.85 425" stroke="#000000" stroke-width="2" stroke-miterlimit="8" fill="none" fill-rule="evenodd"/><path d="M359 636 1026.6 636" stroke="#000000" stroke-width="2" stroke-miterlimit="8" fill="none" fill-rule="evenodd"/><text font-family="Cambria Math,Cambria Math_MSFontService,sans-serif" font-weight="400" font-size="32" transform="translate(313.595 576)">𝑞<tspan font-size="23" x="16.54" y="7">2</tspan><tspan font-size="32" x="0.0400085" y="-71">𝑞</tspan><tspan font-size="23" x="15.84" y="-64">1</tspan><tspan font-size="32" x="-0.195282" y="-141">𝑞</tspan><tspan font-size="23" x="16.3447" y="-134">0</tspan></text><path d="M390 424.5C390 415.94 396.94 409 405.5 409 414.06 409 421 415.94 421 424.5 421 433.06 414.06 440 405.5 440 396.94 440 390 433.06 390 424.5Z" fill="#FFFFFF" fill-rule="evenodd"/><path d="M405.5 409 405.5 440M390 424.5 421 424.5" stroke="#ED7D31" stroke-width="2" stroke-miterlimit="8" fill="none" fill-rule="evenodd"/><path d="M390 424.5C390 415.94 396.94 409 405.5 409 414.06 409 421 415.94 421 424.5 421 433.06 414.06 440 405.5 440 396.94 440 390 433.06 390 424.5Z" stroke="#ED7D31" stroke-width="2" stroke-miterlimit="8" fill="none" fill-rule="evenodd"/><path d="M399 495C399 491.686 401.686 489 405 489 408.314 489 411 491.686 411 495 411 498.314 408.314 501 405 501 401.686 501 399 498.314 399 495Z" fill="#ED7D31" fill-rule="evenodd"/><path d="M0 0 0.288924 49.2572" stroke="#ED7D31" stroke-width="2" stroke-miterlimit="8" fill="none" fill-rule="evenodd" transform="matrix(1 0 0 -1 405 489.257)"/><rect x="705" y="402" width="48" height="45" stroke="#ED7D31" stroke-width="2" stroke-miterlimit="8" fill="#FFFFFF"/><text fill="#ED7D31" font-family="Cambria Math,Cambria Math_MSFontService,sans-serif" font-weight="400" font-size="32" transform="translate(714.83 436)">𝑇</text><rect x="445" y="401" width="47" height="46" stroke="#ED7D31" stroke-width="2" stroke-miterlimit="8" fill="#FFFFFF"/><text fill="#ED7D31" font-family="Cambria Math,Cambria Math_MSFontService,sans-serif" font-weight="400" font-size="32" transform="translate(454.172 435)">𝑇<tspan font-size="23" x="20.7133" y="-11">†</tspan></text><path d="M516 424.5C516 415.94 522.716 409 531 409 539.284 409 546 415.94 546 424.5 546 433.06 539.284 440 531 440 522.716 440 516 433.06 516 424.5Z" fill="#FFFFFF" fill-rule="evenodd"/><path d="M531 409 531 440M516 424.5 546 424.5" stroke="#ED7D31" stroke-width="2" stroke-miterlimit="8" fill="none" fill-rule="evenodd"/><path d="M516 424.5C516 415.94 522.716 409 531 409 539.284 409 546 415.94 546 424.5 546 433.06 539.284 440 531 440 522.716 440 516 433.06 516 424.5Z" stroke="#ED7D31" stroke-width="2" stroke-miterlimit="8" fill="none" fill-rule="evenodd"/><path d="M525 496C525 492.686 527.686 490 531 490 534.314 490 537 492.686 537 496 537 499.314 534.314 502 531 502 527.686 502 525 499.314 525 496Z" fill="#ED7D31" fill-rule="evenodd"/><path d="M0 0 0.000104987 50.0063" stroke="#ED7D31" stroke-width="2" stroke-miterlimit="8" fill="none" fill-rule="evenodd" transform="matrix(1 0 0 -1 531 490.006)"/><path d="M581 494.5C581 485.94 587.94 479 596.5 479 605.06 479 612 485.94 612 494.5 612 503.06 605.06 510 596.5 510 587.94 510 581 503.06 581 494.5Z" fill="#FFFFFF" fill-rule="evenodd"/><path d="M596.5 479 596.5 510M581 494.5 612 494.5" stroke="#ED7D31" stroke-width="2" stroke-miterlimit="8" fill="none" fill-rule="evenodd"/><path d="M581 494.5C581 485.94 587.94 479 596.5 479 605.06 479 612 485.94 612 494.5 612 503.06 605.06 510 596.5 510 587.94 510 581 503.06 581 494.5Z" stroke="#ED7D31" stroke-width="2" stroke-miterlimit="8" fill="none" fill-rule="evenodd"/><path d="M591 636C591 632.686 593.686 630 597 630 600.314 630 603 632.686 603 636 603 639.314 600.314 642 597 642 593.686 642 591 639.314 591 636Z" fill="#ED7D31" fill-rule="evenodd"/><path d="M0 0 0.000104987 120.16" stroke="#ED7D31" stroke-width="2" stroke-miterlimit="8" fill="none" fill-rule="evenodd" transform="matrix(1 0 0 -1 597 630.16)"/><text font-family="Cambria Math,Cambria Math_MSFontService,sans-serif" font-weight="400" font-size="32" transform="translate(313.4 646)">𝑞<tspan font-size="23" x="16.54" y="7">3</tspan></text><path d="M879 636C879 644.284 872.06 651 863.5 651 854.94 651 848 644.284 848 636 848 627.716 854.94 621 863.5 621 872.06 621 879 627.716 879 636Z" fill="#FFFFFF" fill-rule="evenodd"/><path d="M863.5 651 863.5 621M879 636 848 636" stroke="#ED7D31" stroke-width="2" stroke-miterlimit="8" fill="none" fill-rule="evenodd"/><path d="M879 636C879 644.284 872.06 651 863.5 651 854.94 651 848 644.284 848 636 848 627.716 854.94 621 863.5 621 872.06 621 879 627.716 879 636Z" stroke="#ED7D31" stroke-width="2" stroke-miterlimit="8" fill="none" fill-rule="evenodd"/><path d="M870 425C870 428.314 867.314 431 864 431 860.686 431 858 428.314 858 425 858 421.686 860.686 419 864 419 867.314 419 870 421.686 870 425Z" fill="#ED7D31" fill-rule="evenodd"/><path d="M864 620.862 864 431" stroke="#ED7D31" stroke-width="2" stroke-miterlimit="8" fill="none" fill-rule="evenodd"/><path d="M645 425C645 416.716 651.716 410 660 410 668.284 410 675 416.716 675 425 675 433.284 668.284 440 660 440 651.716 440 645 433.284 645 425Z" fill="#FFFFFF" fill-rule="evenodd"/><path d="M660 410 660 440M645 425 675 425" stroke="#ED7D31" stroke-width="2" stroke-miterlimit="8" fill="none" fill-rule="evenodd"/><path d="M645 425C645 416.716 651.716 410 660 410 668.284 410 675 416.716 675 425 675 433.284 668.284 440 660 440 651.716 440 645 433.284 645 425Z" stroke="#ED7D31" stroke-width="2" stroke-miterlimit="8" fill="none" fill-rule="evenodd"/><path d="M654 496C654 492.686 656.686 490 660 490 663.314 490 666 492.686 666 496 666 499.314 663.314 502 660 502 656.686 502 654 499.314 654 496Z" fill="#ED7D31" fill-rule="evenodd"/><path d="M0 0 0.000104987 50.0063" stroke="#ED7D31" stroke-width="2" stroke-miterlimit="8" fill="none" fill-rule="evenodd" transform="matrix(1 0 0 -1 660 490.006)"/><rect x="931" y="613" width="48" height="45" stroke="#ED7D31" stroke-width="2" stroke-miterlimit="8" fill="#FFFFFF"/><text fill="#ED7D31" font-family="Cambria Math,Cambria Math_MSFontService,sans-serif" font-weight="400" font-size="32" transform="translate(940.528 647)">𝑇<tspan font-size="23" x="20.7133" y="-12">†</tspan></text><path d="M783 424C783 415.716 789.716 409 798 409 806.284 409 813 415.716 813 424 813 432.284 806.284 439 798 439 789.716 439 783 432.284 783 424Z" fill="#FFFFFF" fill-rule="evenodd"/><path d="M798 409 798 439M783 424 813 424" stroke="#ED7D31" stroke-width="2" stroke-miterlimit="8" fill="none" fill-rule="evenodd"/><path d="M783 424C783 415.716 789.716 409 798 409 806.284 409 813 415.716 813 424 813 432.284 806.284 439 798 439 789.716 439 783 432.284 783 424Z" stroke="#ED7D31" stroke-width="2" stroke-miterlimit="8" fill="none" fill-rule="evenodd"/><path d="M792 495C792 491.686 794.686 489 798 489 801.314 489 804 491.686 804 495 804 498.314 801.314 501 798 501 794.686 501 792 498.314 792 495Z" fill="#ED7D31" fill-rule="evenodd"/><path d="M0 0 0.000104987 50.0063" stroke="#ED7D31" stroke-width="2" stroke-miterlimit="8" fill="none" fill-rule="evenodd" transform="matrix(1 0 0 -1 798 489.006)"/><path d="M511.25 676.5 511.25 703 524.5 703 498 729.5 471.5 703 484.75 703 484.75 676.5Z" stroke="#5B9BD5" stroke-width="3" stroke-miterlimit="8" fill="#DEEBF7" fill-rule="evenodd"/><path d="M359 1254 1026.6 1254" stroke="#000000" stroke-width="2" stroke-miterlimit="8" fill="none" fill-rule="evenodd"/><path d="M359 1183 1026.6 1183" stroke="#000000" stroke-width="2" stroke-miterlimit="8" fill="none" fill-rule="evenodd"/><path d="M359 1113 1026.85 1113" stroke="#000000" stroke-width="2" stroke-miterlimit="8" fill="none" fill-rule="evenodd"/><path d="M359 1324 1026.6 1324" stroke="#000000" stroke-width="2" stroke-miterlimit="8" fill="none" fill-rule="evenodd"/><text font-family="Cambria Math,Cambria Math_MSFontService,sans-serif" font-weight="400" font-size="32" transform="translate(313.519 1265)">𝑞<tspan font-size="23" x="16.54" y="6">2</tspan><tspan font-size="32" x="0.0400085" y="-72">𝑞</tspan><tspan font-size="23" x="15.84" y="-65">1</tspan><tspan font-size="32" x="-0.195251" y="-141">𝑞</tspan><tspan font-size="23" x="16.3447" y="-135">0</tspan></text><path d="M405 1324C405 1332.28 398.06 1339 389.5 1339 380.94 1339 374 1332.28 374 1324 374 1315.72 380.94 1309 389.5 1309 398.06 1309 405 1315.72 405 1324Z" fill="#FFFFFF" fill-rule="evenodd"/><path d="M389.5 1339 389.5 1309M405 1324 374 1324" stroke="#ED7D31" stroke-width="2" stroke-miterlimit="8" fill="none" fill-rule="evenodd"/><path d="M405 1324C405 1332.28 398.06 1339 389.5 1339 380.94 1339 374 1332.28 374 1324 374 1315.72 380.94 1309 389.5 1309 398.06 1309 405 1315.72 405 1324Z" stroke="#ED7D31" stroke-width="2" stroke-miterlimit="8" fill="none" fill-rule="evenodd"/><path d="M395 1113C395 1116.31 392.314 1119 389 1119 385.686 1119 383 1116.31 383 1113 383 1109.69 385.686 1107 389 1107 392.314 1107 395 1109.69 395 1113Z" fill="#ED7D31" fill-rule="evenodd"/><path d="M389.469 1309.08 389 1119" stroke="#ED7D31" stroke-width="2" stroke-miterlimit="8" fill="none" fill-rule="evenodd"/><rect x="658" y="1091" width="48" height="45" stroke="#ED7D31" stroke-width="2" stroke-miterlimit="8" fill="#FFFFFF"/><text fill="#ED7D31" font-family="Cambria Math,Cambria Math_MSFontService,sans-serif" font-weight="400" font-size="32" transform="translate(667.431 1124)">𝑇</text><rect x="478" y="1160" width="48" height="46" stroke="#ED7D31" stroke-width="2" stroke-miterlimit="8" fill="#FFFFFF"/><text fill="#ED7D31" font-family="Cambria Math,Cambria Math_MSFontService,sans-serif" font-weight="400" font-size="32" transform="translate(488.09 1194)">𝑇<tspan font-size="23" x="20.7133" y="-12">†</tspan></text><path d="M551 1183C551 1174.72 557.716 1168 566 1168 574.284 1168 581 1174.72 581 1183 581 1191.28 574.284 1198 566 1198 557.716 1198 551 1191.28 551 1183Z" fill="#FFFFFF" fill-rule="evenodd"/><path d="M566 1168 566 1198M551 1183 581 1183" stroke="#ED7D31" stroke-width="2" stroke-miterlimit="8" fill="none" fill-rule="evenodd"/><path d="M551 1183C551 1174.72 557.716 1168 566 1168 574.284 1168 581 1174.72 581 1183 581 1191.28 574.284 1198 566 1198 557.716 1198 551 1191.28 551 1183Z" stroke="#ED7D31" stroke-width="2" stroke-miterlimit="8" fill="none" fill-rule="evenodd"/><path d="M560 1324C560 1320.69 562.686 1318 566 1318 569.314 1318 572 1320.69 572 1324 572 1327.31 569.314 1330 566 1330 562.686 1330 560 1327.31 560 1324Z" fill="#ED7D31" fill-rule="evenodd"/><path d="M0 0 0.000104987 119.754" stroke="#ED7D31" stroke-width="2" stroke-miterlimit="8" fill="none" fill-rule="evenodd" transform="matrix(1 0 0 -1 566 1317.75)"/><path d="M825 1324C825 1332.28 818.284 1339 810 1339 801.716 1339 795 1332.28 795 1324 795 1315.72 801.716 1309 810 1309 818.284 1309 825 1315.72 825 1324Z" fill="#FFFFFF" fill-rule="evenodd"/><path d="M810 1339 810 1309M825 1324 795 1324" stroke="#ED7D31" stroke-width="2" stroke-miterlimit="8" fill="none" fill-rule="evenodd"/><path d="M825 1324C825 1332.28 818.284 1339 810 1339 801.716 1339 795 1332.28 795 1324 795 1315.72 801.716 1309 810 1309 818.284 1309 825 1315.72 825 1324Z" stroke="#ED7D31" stroke-width="2" stroke-miterlimit="8" fill="none" fill-rule="evenodd"/><path d="M816 1113C816 1116.31 813.314 1119 810 1119 806.686 1119 804 1116.31 804 1113 804 1109.69 806.686 1107 810 1107 813.314 1107 816 1109.69 816 1113Z" fill="#ED7D31" fill-rule="evenodd"/><path d="M810 1308.81 810 1119" stroke="#ED7D31" stroke-width="2" stroke-miterlimit="8" fill="none" fill-rule="evenodd"/><text font-family="Cambria Math,Cambria Math_MSFontService,sans-serif" font-weight="400" font-size="32" transform="translate(313.323 1335)">𝑞<tspan font-size="23" x="16.54" y="6">3</tspan></text><path d="M892 1324C892 1332.28 885.284 1339 877 1339 868.716 1339 862 1332.28 862 1324 862 1315.72 868.716 1309 877 1309 885.284 1309 892 1315.72 892 1324Z" fill="#FFFFFF" fill-rule="evenodd"/><path d="M877 1339 877 1309M892 1324 862 1324" stroke="#ED7D31" stroke-width="2" stroke-miterlimit="8" fill="none" fill-rule="evenodd"/><path d="M892 1324C892 1332.28 885.284 1339 877 1339 868.716 1339 862 1332.28 862 1324 862 1315.72 868.716 1309 877 1309 885.284 1309 892 1315.72 892 1324Z" stroke="#ED7D31" stroke-width="2" stroke-miterlimit="8" fill="none" fill-rule="evenodd"/><path d="M883 1113C883 1116.31 880.314 1119 877 1119 873.686 1119 871 1116.31 871 1113 871 1109.69 873.686 1107 877 1107 880.314 1107 883 1109.69 883 1113Z" fill="#ED7D31" fill-rule="evenodd"/><path d="M877 1308.86 877 1119" stroke="#ED7D31" stroke-width="2" stroke-miterlimit="8" fill="none" fill-rule="evenodd"/><path d="M598 1113C598 1104.72 604.716 1098 613 1098 621.284 1098 628 1104.72 628 1113 628 1121.28 621.284 1128 613 1128 604.716 1128 598 1121.28 598 1113Z" fill="#FFFFFF" fill-rule="evenodd"/><path d="M613 1098 613 1128M598 1113 628 1113" stroke="#ED7D31" stroke-width="2" stroke-miterlimit="8" fill="none" fill-rule="evenodd"/><path d="M598 1113C598 1104.72 604.716 1098 613 1098 621.284 1098 628 1104.72 628 1113 628 1121.28 621.284 1128 613 1128 604.716 1128 598 1121.28 598 1113Z" stroke="#ED7D31" stroke-width="2" stroke-miterlimit="8" fill="none" fill-rule="evenodd"/><path d="M607 1184C607 1180.69 609.686 1178 613 1178 616.314 1178 619 1180.69 619 1184 619 1187.31 616.314 1190 613 1190 609.686 1190 607 1187.31 607 1184Z" fill="#ED7D31" fill-rule="evenodd"/><path d="M0 0 0.000104987 50.0063" stroke="#ED7D31" stroke-width="2" stroke-miterlimit="8" fill="none" fill-rule="evenodd" transform="matrix(1 0 0 -1 613 1178.01)"/><rect x="944" y="1301" width="48" height="46" stroke="#ED7D31" stroke-width="2" stroke-miterlimit="8" fill="#FFFFFF"/><text fill="#ED7D31" font-family="Cambria Math,Cambria Math_MSFontService,sans-serif" font-weight="400" font-size="32" transform="translate(954.051 1335)">𝑇<tspan font-size="23" x="20.7133" y="-12">†</tspan></text><path d="M735 1113C735 1104.72 741.94 1098 750.5 1098 759.06 1098 766 1104.72 766 1113 766 1121.28 759.06 1128 750.5 1128 741.94 1128 735 1121.28 735 1113Z" fill="#FFFFFF" fill-rule="evenodd"/><path d="M750.5 1098 750.5 1128M735 1113 766 1113" stroke="#ED7D31" stroke-width="2" stroke-miterlimit="8" fill="none" fill-rule="evenodd"/><path d="M735 1113C735 1104.72 741.94 1098 750.5 1098 759.06 1098 766 1104.72 766 1113 766 1121.28 759.06 1128 750.5 1128 741.94 1128 735 1121.28 735 1113Z" stroke="#ED7D31" stroke-width="2" stroke-miterlimit="8" fill="none" fill-rule="evenodd"/><path d="M745 1184C745 1180.69 747.686 1178 751 1178 754.314 1178 757 1180.69 757 1184 757 1187.31 754.314 1190 751 1190 747.686 1190 745 1187.31 745 1184Z" fill="#ED7D31" fill-rule="evenodd"/><path d="M0 0 0.000104987 50.0063" stroke="#ED7D31" stroke-width="2" stroke-miterlimit="8" fill="none" fill-rule="evenodd" transform="matrix(1 0 0 -1 751 1178.01)"/><path d="M454 1183C454 1191.28 447.284 1198 439 1198 430.716 1198 424 1191.28 424 1183 424 1174.72 430.716 1168 439 1168 447.284 1168 454 1174.72 454 1183Z" fill="#FFFFFF" fill-rule="evenodd"/><path d="M439 1198 439 1168M454 1183 424 1183" stroke="#ED7D31" stroke-width="2" stroke-miterlimit="8" fill="none" fill-rule="evenodd"/><path d="M454 1183C454 1191.28 447.284 1198 439 1198 430.716 1198 424 1191.28 424 1183 424 1174.72 430.716 1168 439 1168 447.284 1168 454 1174.72 454 1183Z" stroke="#ED7D31" stroke-width="2" stroke-miterlimit="8" fill="none" fill-rule="evenodd"/><path d="M445 1112C445 1115.31 442.314 1118 439 1118 435.686 1118 433 1115.31 433 1112 433 1108.69 435.686 1106 439 1106 442.314 1106 445 1108.69 445 1112Z" fill="#ED7D31" fill-rule="evenodd"/><path d="M0 0 0.288924 49.2572" stroke="#ED7D31" stroke-width="2" stroke-miterlimit="8" fill="none" fill-rule="evenodd" transform="matrix(-1 1.22465e-16 1.22465e-16 1 439.289 1118)"/><path d="M719.25 1017.5 719.25 1044 732.5 1044 706 1070.5 679.5 1044 692.75 1044 692.75 1017.5Z" stroke="#9F5FCF" stroke-width="3" stroke-miterlimit="8" fill="#E8D9F3" fill-rule="evenodd"/><path d="M359 1589 1026.6 1589" stroke="#000000" stroke-width="2" stroke-miterlimit="8" fill="none" fill-rule="evenodd"/><path d="M359 1517 1026.6 1517" stroke="#000000" stroke-width="2" stroke-miterlimit="8" fill="none" fill-rule="evenodd"/><path d="M359 1448 1026.85 1448" stroke="#000000" stroke-width="2" stroke-miterlimit="8" fill="none" fill-rule="evenodd"/><path d="M359 1659 1026.6 1659" stroke="#000000" stroke-width="2" stroke-miterlimit="8" fill="none" fill-rule="evenodd"/><text font-family="Cambria Math,Cambria Math_MSFontService,sans-serif" font-weight="400" font-size="32" transform="translate(313.519 1599)">𝑞<tspan font-size="23" x="16.54" y="7">2</tspan><tspan font-size="32" x="0.0400085" y="-71">𝑞</tspan><tspan font-size="23" x="15.84" y="-64">1</tspan><tspan font-size="32" x="-0.195251" y="-141">𝑞</tspan><tspan font-size="23" x="16.3447" y="-134">0</tspan></text><path d="M405 1659C405 1667.28 398.06 1674 389.5 1674 380.94 1674 374 1667.28 374 1659 374 1650.72 380.94 1644 389.5 1644 398.06 1644 405 1650.72 405 1659Z" fill="#FFFFFF" fill-rule="evenodd"/><path d="M389.5 1674 389.5 1644M405 1659 374 1659" stroke="#ED7D31" stroke-width="2" stroke-miterlimit="8" fill="none" fill-rule="evenodd"/><path d="M405 1659C405 1667.28 398.06 1674 389.5 1674 380.94 1674 374 1667.28 374 1659 374 1650.72 380.94 1644 389.5 1644 398.06 1644 405 1650.72 405 1659Z" stroke="#ED7D31" stroke-width="2" stroke-miterlimit="8" fill="none" fill-rule="evenodd"/><path d="M395 1447.5C395 1450.54 392.314 1453 389 1453 385.686 1453 383 1450.54 383 1447.5 383 1444.46 385.686 1442 389 1442 392.314 1442 395 1444.46 395 1447.5Z" fill="#ED7D31" fill-rule="evenodd"/><path d="M389.469 1643.08 389 1453" stroke="#ED7D31" stroke-width="2" stroke-miterlimit="8" fill="none" fill-rule="evenodd"/><rect x="658" y="1425" width="48" height="45" stroke="#ED7D31" stroke-width="2" stroke-miterlimit="8" fill="#FFFFFF"/><text fill="#ED7D31" font-family="Cambria Math,Cambria Math_MSFontService,sans-serif" font-weight="400" font-size="32" transform="translate(667.431 1458)">𝑇</text><rect x="478" y="1495" width="48" height="45" stroke="#ED7D31" stroke-width="2" stroke-miterlimit="8" fill="#FFFFFF"/><text fill="#ED7D31" font-family="Cambria Math,Cambria Math_MSFontService,sans-serif" font-weight="400" font-size="32" transform="translate(488.09 1529)">𝑇<tspan font-size="23" x="20.7133" y="-12">†</tspan></text><path d="M551 1517.5C551 1508.94 557.716 1502 566 1502 574.284 1502 581 1508.94 581 1517.5 581 1526.06 574.284 1533 566 1533 557.716 1533 551 1526.06 551 1517.5Z" fill="#FFFFFF" fill-rule="evenodd"/><path d="M566 1502 566 1533M551 1517.5 581 1517.5" stroke="#ED7D31" stroke-width="2" stroke-miterlimit="8" fill="none" fill-rule="evenodd"/><path d="M551 1517.5C551 1508.94 557.716 1502 566 1502 574.284 1502 581 1508.94 581 1517.5 581 1526.06 574.284 1533 566 1533 557.716 1533 551 1526.06 551 1517.5Z" stroke="#ED7D31" stroke-width="2" stroke-miterlimit="8" fill="none" fill-rule="evenodd"/><path d="M560 1658C560 1654.69 562.686 1652 566 1652 569.314 1652 572 1654.69 572 1658 572 1661.31 569.314 1664 566 1664 562.686 1664 560 1661.31 560 1658Z" fill="#ED7D31" fill-rule="evenodd"/><path d="M0 0 0.000104987 119.754" stroke="#ED7D31" stroke-width="2" stroke-miterlimit="8" fill="none" fill-rule="evenodd" transform="matrix(1 0 0 -1 566 1652.75)"/><text font-family="Cambria Math,Cambria Math_MSFontService,sans-serif" font-weight="400" font-size="32" transform="translate(313.323 1669)">𝑞<tspan font-size="23" x="16.54" y="7">3</tspan></text><path d="M598 1447.5C598 1438.94 604.716 1432 613 1432 621.284 1432 628 1438.94 628 1447.5 628 1456.06 621.284 1463 613 1463 604.716 1463 598 1456.06 598 1447.5Z" fill="#FFFFFF" fill-rule="evenodd"/><path d="M613 1432 613 1463M598 1447.5 628 1447.5" stroke="#ED7D31" stroke-width="2" stroke-miterlimit="8" fill="none" fill-rule="evenodd"/><path d="M598 1447.5C598 1438.94 604.716 1432 613 1432 621.284 1432 628 1438.94 628 1447.5 628 1456.06 621.284 1463 613 1463 604.716 1463 598 1456.06 598 1447.5Z" stroke="#ED7D31" stroke-width="2" stroke-miterlimit="8" fill="none" fill-rule="evenodd"/><path d="M607 1519C607 1515.69 609.686 1513 613 1513 616.314 1513 619 1515.69 619 1519 619 1522.31 616.314 1525 613 1525 609.686 1525 607 1522.31 607 1519Z" fill="#ED7D31" fill-rule="evenodd"/><path d="M0 0 0.000104987 50.0063" stroke="#ED7D31" stroke-width="2" stroke-miterlimit="8" fill="none" fill-rule="evenodd" transform="matrix(1 0 0 -1 613 1513.01)"/><rect x="944" y="1636" width="48" height="45" stroke="#ED7D31" stroke-width="2" stroke-miterlimit="8" fill="#FFFFFF"/><text fill="#ED7D31" font-family="Cambria Math,Cambria Math_MSFontService,sans-serif" font-weight="400" font-size="32" transform="translate(954.051 1670)">𝑇<tspan font-size="23" x="20.7133" y="-12">†</tspan></text><path d="M735 1447C735 1438.72 741.94 1432 750.5 1432 759.06 1432 766 1438.72 766 1447 766 1455.28 759.06 1462 750.5 1462 741.94 1462 735 1455.28 735 1447Z" fill="#FFFFFF" fill-rule="evenodd"/><path d="M750.5 1432 750.5 1462M735 1447 766 1447" stroke="#ED7D31" stroke-width="2" stroke-miterlimit="8" fill="none" fill-rule="evenodd"/><path d="M735 1447C735 1438.72 741.94 1432 750.5 1432 759.06 1432 766 1438.72 766 1447 766 1455.28 759.06 1462 750.5 1462 741.94 1462 735 1455.28 735 1447Z" stroke="#ED7D31" stroke-width="2" stroke-miterlimit="8" fill="none" fill-rule="evenodd"/><path d="M745 1518C745 1514.69 747.686 1512 751 1512 754.314 1512 757 1514.69 757 1518 757 1521.31 754.314 1524 751 1524 747.686 1524 745 1521.31 745 1518Z" fill="#ED7D31" fill-rule="evenodd"/><path d="M0 0 0.000104987 50.0063" stroke="#ED7D31" stroke-width="2" stroke-miterlimit="8" fill="none" fill-rule="evenodd" transform="matrix(1 0 0 -1 751 1512.01)"/><path d="M454 1517.5C454 1526.06 447.284 1533 439 1533 430.716 1533 424 1526.06 424 1517.5 424 1508.94 430.716 1502 439 1502 447.284 1502 454 1508.94 454 1517.5Z" fill="#FFFFFF" fill-rule="evenodd"/><path d="M439 1533 439 1502M454 1517.5 424 1517.5" stroke="#ED7D31" stroke-width="2" stroke-miterlimit="8" fill="none" fill-rule="evenodd"/><path d="M454 1517.5C454 1526.06 447.284 1533 439 1533 430.716 1533 424 1526.06 424 1517.5 424 1508.94 430.716 1502 439 1502 447.284 1502 454 1508.94 454 1517.5Z" stroke="#ED7D31" stroke-width="2" stroke-miterlimit="8" fill="none" fill-rule="evenodd"/><path d="M445 1447C445 1450.31 442.314 1453 439 1453 435.686 1453 433 1450.31 433 1447 433 1443.69 435.686 1441 439 1441 442.314 1441 445 1443.69 445 1447Z" fill="#ED7D31" fill-rule="evenodd"/><path d="M0 0 0.288924 49.2572" stroke="#ED7D31" stroke-width="2" stroke-miterlimit="8" fill="none" fill-rule="evenodd" transform="matrix(-1 1.22465e-16 1.22465e-16 1 439.289 1453)"/><rect x="786.5" y="1431.5" width="128" height="247" stroke="#FFC000" stroke-width="3" stroke-miterlimit="8" fill="#FFF2CC" fill-opacity="0.501961"/><path d="M863.25 1370.5 863.25 1397 876.5 1397 850 1423.5 823.5 1397 836.75 1397 836.75 1370.5Z" stroke="#FFC000" stroke-width="3" stroke-miterlimit="8" fill="#FFF2CC" fill-rule="evenodd"/><text fill="#9F5ED0" font-family="Cambria Math,Cambria Math_MSFontService,sans-serif" font-weight="400" font-size="48" transform="translate(1041.55 212)">|<tspan font-size="48" x="15.1666" y="0">𝑪</tspan><tspan font-size="35" x="45.3333" y="9">𝟏</tspan><tspan font-size="48" x="68.3267" y="0">|</tspan><tspan font-size="48" x="96.8267" y="0">=</tspan><tspan font-size="48" x="145.993" y="0">𝟗</tspan><tspan font-size="48" x="0" y="333">|</tspan><tspan font-size="48" x="15.1666" y="333">𝑪</tspan><tspan font-size="35" x="45.3333" y="343">𝟐</tspan><tspan font-size="48" x="68.3267" y="333">|</tspan><tspan font-size="48" x="96.8267" y="333">=</tspan><tspan font-size="48" x="145.993" y="333">𝟗</tspan><tspan font-size="48" x="-3.39673" y="672">|</tspan><tspan font-size="48" x="11.77" y="672">𝑪</tspan><tspan font-size="35" x="41.9366" y="681">𝟑</tspan><tspan font-size="48" x="64.9299" y="672">|</tspan><tspan font-size="48" x="93.4301" y="672">=</tspan><tspan font-size="48" x="142.597" y="672">𝟏𝟎</tspan><tspan font-size="48" x="1.87317" y="1021">|</tspan><tspan font-size="48" x="17.0398" y="1021">𝑪</tspan><tspan font-size="35" x="47.2064" y="1030">𝟒</tspan><tspan font-size="48" x="70.1998" y="1021">|</tspan><tspan font-size="48" x="98.6998" y="1021">=</tspan><tspan font-size="48" x="147.866" y="1021">𝟏𝟎</tspan><tspan font-size="48" x="16.2064" y="1357">|</tspan><tspan font-size="48" x="31.3732" y="1357">𝑪</tspan><tspan font-size="35" x="61.5398" y="1366">𝟓</tspan><tspan font-size="48" x="84.5332" y="1357">|</tspan><tspan font-size="48" x="113.033" y="1357">=</tspan><tspan font-size="48" x="162.2" y="1357">𝟖</tspan><tspan fill="#70AD47" font-size="48" x="-197.963" y="70">𝑺</tspan><tspan fill="#70AD47" font-size="35" x="-170.796" y="80">𝟏</tspan><tspan fill="#70AD47" font-size="48" x="-375.417" y="409">𝑻</tspan><tspan fill="#70AD47" font-size="35" x="-345.417" y="418">𝟏</tspan><tspan fill="#5B9BD5" font-size="48" x="-646.446" y="401">𝑺</tspan><tspan fill="#5B9BD5" font-size="35" x="-619.279" y="411">𝟐</tspan><tspan fill="#5B9BD5" font-size="48" x="-588.847" y="738">𝑻</tspan><tspan fill="#5B9BD5" font-size="35" x="-558.847" y="748">𝟐</tspan><tspan fill="#9F5FCF" font-size="48" x="-279.572" y="739">𝑺</tspan><tspan fill="#9F5FCF" font-size="35" x="-252.406" y="749">𝟑</tspan><tspan fill="#9F5FCF" font-size="48" x="-426.159" y="1090">𝑻</tspan><tspan fill="#9F5FCF" font-size="35" x="-396.159" y="1100">𝟑</tspan><tspan fill="#FFC000" font-size="48" x="-110.598" y="1357">𝑻</tspan><tspan fill="#FFC000" font-size="35" x="-80.5977" y="1367">𝟒</tspan><tspan fill="#FFC000" font-size="48" x="-116.931" y="1021">𝑺</tspan><tspan fill="#FFC000" font-size="35" x="-89.7639" y="1031">𝟒</tspan></text></g></svg>