<svg width="953" height="1272" xmlns="http://www.w3.org/2000/svg" xmlns:xlink="http://www.w3.org/1999/xlink" overflow="hidden"><defs><clipPath id="clip0"><rect x="298" y="54" width="953" height="1272"/></clipPath></defs><g clip-path="url(#clip0)" transform="translate(-298 -54)"><path d="M506.25 531.5 506.25 558 519.5 558 493 584.5 466.5 558 479.75 558 479.75 531.5Z" stroke="#5B9BD5" stroke-width="3" stroke-miterlimit="8" fill="#DEEBF7" fill-rule="evenodd"/><path d="M731.5 803.5 731.5 830.5 744.5 830.5 718.5 856.5 692.5 830.5 705.5 830.5 705.5 803.5Z" stroke="#9F5FCF" stroke-width="3" stroke-miterlimit="8" fill="#E8D9F3" fill-rule="evenodd"/><path d="M863.25 1083.5 863.25 1110 876.5 1110 850 1136.5 823.5 1110 836.75 1110 836.75 1083.5Z" stroke="#FFC000" stroke-width="3" stroke-miterlimit="8" fill="#FFF2CC" fill-rule="evenodd"/><rect x="633.5" y="56.5001" width="279" height="204" stroke="#70AD47" stroke-width="3" stroke-miterlimit="8" fill="#E2F0D9" fill-opacity="0.501961"/><path d="M786.25 267.5 786.25 294 799.5 294 773 320.5 746.5 294 759.75 294 759.75 267.5Z" stroke="#70AD47" stroke-width="3" stroke-miterlimit="8" fill="#E2F0D9" fill-rule="evenodd"/><path d="M359 232 954.775 232" stroke="#000000" stroke-width="2" stroke-miterlimit="8" fill="none" fill-rule="evenodd"/><path d="M359 161 954.775 161" stroke="#000000" stroke-width="2" stroke-miterlimit="8" fill="none" fill-rule="evenodd"/><path d="M359 91 954.998 91.0001" stroke="#000000" stroke-width="2" stroke-miterlimit="8" fill="none" fill-rule="evenodd"/><text font-family="Cambria Math,Cambria Math_MSFontService,sans-serif" font-weight="400" font-size="32" transform="translate(313.595 243)">𝑞<tspan font-size="23" x="16.54" y="6">2</tspan><tspan font-size="32" x="0.0400085" y="-72">𝑞</tspan><tspan font-size="23" x="15.84" y="-65">1</tspan><tspan font-size="32" x="-0.195282" y="-141">𝑞</tspan><tspan font-size="23" x="16.3447" y="-135">0</tspan></text><path d="M390 91C390 82.7157 396.94 76 405.5 76 414.06 76 421 82.7157 421 91 421 99.2843 414.06 106 405.5 106 396.94 106 390 99.2843 390 91Z" fill="#FFFFFF" fill-rule="evenodd"/><path d="M405.5 76 405.5 106M390 91 421 91" stroke="#ED7D31" stroke-width="2" stroke-miterlimit="8" fill="none" fill-rule="evenodd"/><path d="M390 91C390 82.7157 396.94 76 405.5 76 414.06 76 421 82.7157 421 91 421 99.2843 414.06 106 405.5 106 396.94 106 390 99.2843 390 91Z" stroke="#ED7D31" stroke-width="2" stroke-miterlimit="8" fill="none" fill-rule="evenodd"/><path d="M399 161C399 157.686 401.686 155 405 155 408.314 155 411 157.686 411 161 411 164.314 408.314 167 405 167 401.686 167 399 164.314 399 161Z" fill="#ED7D31" fill-rule="evenodd"/><path d="M0 0 0.288924 49.2572" stroke="#ED7D31" stroke-width="2" stroke-miterlimit="8" fill="none" fill-rule="evenodd" transform="matrix(1 0 0 -1 405 155.257)"/><rect x="779" y="69" width="47" height="45" stroke="#ED7D31" stroke-width="2" stroke-miterlimit="8" fill="#FFFFFF"/><text fill="#ED7D31" font-family="Cambria Math,Cambria Math_MSFontService,sans-serif" font-weight="400" font-size="32" transform="translate(788.293 102)">𝑇</text><rect x="445" y="68" width="47" height="45" stroke="#ED7D31" stroke-width="2" stroke-miterlimit="8" fill="#FFFFFF"/><text fill="#ED7D31" font-family="Cambria Math,Cambria Math_MSFontService,sans-serif" font-weight="400" font-size="32" transform="translate(454.172 102)">𝑇<tspan font-size="23" x="20.7133" y="-12">†</tspan></text><path d="M516 91C516 82.7157 522.716 76 531 76 539.284 76 546 82.7157 546 91 546 99.2843 539.284 106 531 106 522.716 106 516 99.2843 516 91Z" fill="#FFFFFF" fill-rule="evenodd"/><path d="M531 76 531 106M516 91 546 91" stroke="#ED7D31" stroke-width="2" stroke-miterlimit="8" fill="none" fill-rule="evenodd"/><path d="M516 91C516 82.7157 522.716 76 531 76 539.284 76 546 82.7157 546 91 546 99.2843 539.284 106 531 106 522.716 106 516 99.2843 516 91Z" stroke="#ED7D31" stroke-width="2" stroke-miterlimit="8" fill="none" fill-rule="evenodd"/><path d="M525 162C525 158.686 527.686 156 531 156 534.314 156 537 158.686 537 162 537 165.314 534.314 168 531 168 527.686 168 525 165.314 525 162Z" fill="#ED7D31" fill-rule="evenodd"/><path d="M0 0 0.000104987 50.0063" stroke="#ED7D31" stroke-width="2" stroke-miterlimit="8" fill="none" fill-rule="evenodd" transform="matrix(1 0 0 -1 531 156.006)"/><path d="M581 161C581 152.716 587.94 146 596.5 146 605.06 146 612 152.716 612 161 612 169.284 605.06 176 596.5 176 587.94 176 581 169.284 581 161Z" fill="#FFFFFF" fill-rule="evenodd"/><path d="M596.5 146 596.5 176M581 161 612 161" stroke="#ED7D31" stroke-width="2" stroke-miterlimit="8" fill="none" fill-rule="evenodd"/><path d="M581 161C581 152.716 587.94 146 596.5 146 605.06 146 612 152.716 612 161 612 169.284 605.06 176 596.5 176 587.94 176 581 169.284 581 161Z" stroke="#ED7D31" stroke-width="2" stroke-miterlimit="8" fill="none" fill-rule="evenodd"/><path d="M591 233C591 229.686 593.686 227 597 227 600.314 227 603 229.686 603 233 603 236.314 600.314 239 597 239 593.686 239 591 236.314 591 233Z" fill="#ED7D31" fill-rule="evenodd"/><path d="M0 0 0.000104987 51.3712" stroke="#ED7D31" stroke-width="2" stroke-miterlimit="8" fill="none" fill-rule="evenodd" transform="matrix(1 0 0 -1 597 227.371)"/><path d="M686 232.5C686 241.06 679.284 248 671 248 662.716 248 656 241.06 656 232.5 656 223.94 662.716 217 671 217 679.284 217 686 223.94 686 232.5Z" fill="#FFFFFF" fill-rule="evenodd"/><path d="M671 248 671 217M686 232.5 656 232.5" stroke="#ED7D31" stroke-width="2" stroke-miterlimit="8" fill="none" fill-rule="evenodd"/><path d="M686 232.5C686 241.06 679.284 248 671 248 662.716 248 656 241.06 656 232.5 656 223.94 662.716 217 671 217 679.284 217 686 223.94 686 232.5Z" stroke="#ED7D31" stroke-width="2" stroke-miterlimit="8" fill="none" fill-rule="evenodd"/><path d="M678 91C678 94.3137 675.314 97 672 97 668.686 97 666 94.3137 666 91 666 87.6863 668.686 85 672 85 675.314 85 678 87.6863 678 91Z" fill="#ED7D31" fill-rule="evenodd"/><path d="M0 0 0.258793 120.129" stroke="#ED7D31" stroke-width="2" stroke-miterlimit="8" fill="none" fill-rule="evenodd" transform="matrix(1 -1.22465e-16 -1.22465e-16 -1 671 217.129)"/><path d="M719 91C719 82.7157 725.716 76 734 76 742.284 76 749 82.7157 749 91 749 99.2843 742.284 106 734 106 725.716 106 719 99.2843 719 91Z" fill="#FFFFFF" fill-rule="evenodd"/><path d="M734 76 734 106M719 91 749 91" stroke="#ED7D31" stroke-width="2" stroke-miterlimit="8" fill="none" fill-rule="evenodd"/><path d="M719 91C719 82.7157 725.716 76 734 76 742.284 76 749 82.7157 749 91 749 99.2843 742.284 106 734 106 725.716 106 719 99.2843 719 91Z" stroke="#ED7D31" stroke-width="2" stroke-miterlimit="8" fill="none" fill-rule="evenodd"/><path d="M728 162C728 158.686 730.686 156 734 156 737.314 156 740 158.686 740 162 740 165.314 737.314 168 734 168 730.686 168 728 165.314 728 162Z" fill="#ED7D31" fill-rule="evenodd"/><path d="M0 0 0.000104987 50.0063" stroke="#ED7D31" stroke-width="2" stroke-miterlimit="8" fill="none" fill-rule="evenodd" transform="matrix(1 0 0 -1 734 156.006)"/><path d="M856 91C856 82.7157 862.94 76 871.5 76 880.06 76 887 82.7157 887 91 887 99.2843 880.06 106 871.5 106 862.94 106 856 99.2843 856 91Z" fill="#FFFFFF" fill-rule="evenodd"/><path d="M871.5 76 871.5 106M856 91 887 91" stroke="#ED7D31" stroke-width="2" stroke-miterlimit="8" fill="none" fill-rule="evenodd"/><path d="M856 91C856 82.7157 862.94 76 871.5 76 880.06 76 887 82.7157 887 91 887 99.2843 880.06 106 871.5 106 862.94 106 856 99.2843 856 91Z" stroke="#ED7D31" stroke-width="2" stroke-miterlimit="8" fill="none" fill-rule="evenodd"/><path d="M865 162C865 158.686 867.686 156 871 156 874.314 156 877 158.686 877 162 877 165.314 874.314 168 871 168 867.686 168 865 165.314 865 162Z" fill="#ED7D31" fill-rule="evenodd"/><path d="M0 0 0.000104987 50.0063" stroke="#ED7D31" stroke-width="2" stroke-miterlimit="8" fill="none" fill-rule="evenodd" transform="matrix(1 0 0 -1 871 156.006)"/><text fill="#9F5ED0" font-family="Cambria Math,Cambria Math_MSFontService,sans-serif" font-weight="400" font-size="48" transform="translate(1021.5 176)">|<tspan font-size="48" x="15.1667" y="0">𝑪</tspan><tspan font-size="35" x="45.3333" y="10">𝟏</tspan><tspan font-size="48" x="68.3267" y="0">|</tspan><tspan font-size="48" x="96.8267" y="0">=</tspan><tspan font-size="48" x="145.993" y="0">𝟖</tspan><tspan fill="#70AD47" font-size="48" x="-179.261" y="36">𝑺</tspan><tspan fill="#70AD47" font-size="35" x="-152.095" y="46">𝟏</tspan></text><rect x="633.5" y="326.5" width="279" height="200" stroke="#70AD47" stroke-width="3" stroke-miterlimit="8" fill="#E2F0D9" fill-opacity="0.501961"/><rect x="371.5" y="326.5" width="253" height="199" stroke="#5B9BD5" stroke-width="3" stroke-miterlimit="8" fill="#DEEBF7" fill-opacity="0.501961"/><path d="M359 497 957.284 497" stroke="#000000" stroke-width="2" stroke-miterlimit="8" fill="none" fill-rule="evenodd"/><path d="M359 425 957.284 425" stroke="#000000" stroke-width="2" stroke-miterlimit="8" fill="none" fill-rule="evenodd"/><path d="M359 356 957.508 356" stroke="#000000" stroke-width="2" stroke-miterlimit="8" fill="none" fill-rule="evenodd"/><text font-family="Cambria Math,Cambria Math_MSFontService,sans-serif" font-weight="400" font-size="32" transform="translate(313.595 507)">𝑞<tspan font-size="23" x="16.54" y="7">2</tspan><tspan font-size="32" x="0.0400085" y="-71">𝑞</tspan><tspan font-size="23" x="15.84" y="-65">1</tspan><tspan font-size="32" x="-0.195282" y="-141">𝑞</tspan><tspan font-size="23" x="16.3447" y="-134">0</tspan></text><path d="M390 355.5C390 346.94 396.94 340 405.5 340 414.06 340 421 346.94 421 355.5 421 364.06 414.06 371 405.5 371 396.94 371 390 364.06 390 355.5Z" fill="#FFFFFF" fill-rule="evenodd"/><path d="M405.5 340 405.5 371M390 355.5 421 355.5" stroke="#ED7D31" stroke-width="2" stroke-miterlimit="8" fill="none" fill-rule="evenodd"/><path d="M390 355.5C390 346.94 396.94 340 405.5 340 414.06 340 421 346.94 421 355.5 421 364.06 414.06 371 405.5 371 396.94 371 390 364.06 390 355.5Z" stroke="#ED7D31" stroke-width="2" stroke-miterlimit="8" fill="none" fill-rule="evenodd"/><path d="M399 426C399 422.686 401.686 420 405 420 408.314 420 411 422.686 411 426 411 429.314 408.314 432 405 432 401.686 432 399 429.314 399 426Z" fill="#ED7D31" fill-rule="evenodd"/><path d="M0 0 0.288924 49.2572" stroke="#ED7D31" stroke-width="2" stroke-miterlimit="8" fill="none" fill-rule="evenodd" transform="matrix(1 0 0 -1 405 420.257)"/><rect x="705" y="333" width="48" height="45" stroke="#ED7D31" stroke-width="2" stroke-miterlimit="8" fill="#FFFFFF"/><text fill="#ED7D31" font-family="Cambria Math,Cambria Math_MSFontService,sans-serif" font-weight="400" font-size="32" transform="translate(714.83 366)">𝑇</text><rect x="445" y="332" width="47" height="45" stroke="#ED7D31" stroke-width="2" stroke-miterlimit="8" fill="#FFFFFF"/><text fill="#ED7D31" font-family="Cambria Math,Cambria Math_MSFontService,sans-serif" font-weight="400" font-size="32" transform="translate(454.172 366)">𝑇<tspan font-size="23" x="20.7133" y="-12">†</tspan></text><path d="M516 355C516 346.716 522.716 340 531 340 539.284 340 546 346.716 546 355 546 363.284 539.284 370 531 370 522.716 370 516 363.284 516 355Z" fill="#FFFFFF" fill-rule="evenodd"/><path d="M531 340 531 370M516 355 546 355" stroke="#ED7D31" stroke-width="2" stroke-miterlimit="8" fill="none" fill-rule="evenodd"/><path d="M516 355C516 346.716 522.716 340 531 340 539.284 340 546 346.716 546 355 546 363.284 539.284 370 531 370 522.716 370 516 363.284 516 355Z" stroke="#ED7D31" stroke-width="2" stroke-miterlimit="8" fill="none" fill-rule="evenodd"/><path d="M525 426C525 422.686 527.686 420 531 420 534.314 420 537 422.686 537 426 537 429.314 534.314 432 531 432 527.686 432 525 429.314 525 426Z" fill="#ED7D31" fill-rule="evenodd"/><path d="M0 0 0.000104987 50.0063" stroke="#ED7D31" stroke-width="2" stroke-miterlimit="8" fill="none" fill-rule="evenodd" transform="matrix(1 0 0 -1 531 420.006)"/><path d="M581 425C581 416.716 587.94 410 596.5 410 605.06 410 612 416.716 612 425 612 433.284 605.06 440 596.5 440 587.94 440 581 433.284 581 425Z" fill="#FFFFFF" fill-rule="evenodd"/><path d="M596.5 410 596.5 440M581 425 612 425" stroke="#ED7D31" stroke-width="2" stroke-miterlimit="8" fill="none" fill-rule="evenodd"/><path d="M581 425C581 416.716 587.94 410 596.5 410 605.06 410 612 416.716 612 425 612 433.284 605.06 440 596.5 440 587.94 440 581 433.284 581 425Z" stroke="#ED7D31" stroke-width="2" stroke-miterlimit="8" fill="none" fill-rule="evenodd"/><path d="M591 498C591 494.686 593.686 492 597 492 600.314 492 603 494.686 603 498 603 501.314 600.314 504 597 504 593.686 504 591 501.314 591 498Z" fill="#ED7D31" fill-rule="evenodd"/><path d="M0 0 0.000104987 51.3711" stroke="#ED7D31" stroke-width="2" stroke-miterlimit="8" fill="none" fill-rule="evenodd" transform="matrix(1 0 0 -1 597 491.371)"/><path d="M879 496.5C879 505.06 872.06 512 863.5 512 854.94 512 848 505.06 848 496.5 848 487.94 854.94 481 863.5 481 872.06 481 879 487.94 879 496.5Z" fill="#FFFFFF" fill-rule="evenodd"/><path d="M863.5 512 863.5 481M879 496.5 848 496.5" stroke="#ED7D31" stroke-width="2" stroke-miterlimit="8" fill="none" fill-rule="evenodd"/><path d="M879 496.5C879 505.06 872.06 512 863.5 512 854.94 512 848 505.06 848 496.5 848 487.94 854.94 481 863.5 481 872.06 481 879 487.94 879 496.5Z" stroke="#ED7D31" stroke-width="2" stroke-miterlimit="8" fill="none" fill-rule="evenodd"/><path d="M870 356C870 359.314 867.314 362 864 362 860.686 362 858 359.314 858 356 858 352.686 860.686 350 864 350 867.314 350 870 352.686 870 356Z" fill="#ED7D31" fill-rule="evenodd"/><path d="M0 0 0.000104987 119.794" stroke="#ED7D31" stroke-width="2" stroke-miterlimit="8" fill="none" fill-rule="evenodd" transform="matrix(1 -1.22465e-16 -1.22465e-16 -1 864 481.794)"/><path d="M645 355.5C645 346.94 651.716 340 660 340 668.284 340 675 346.94 675 355.5 675 364.06 668.284 371 660 371 651.716 371 645 364.06 645 355.5Z" fill="#FFFFFF" fill-rule="evenodd"/><path d="M660 340 660 371M645 355.5 675 355.5" stroke="#ED7D31" stroke-width="2" stroke-miterlimit="8" fill="none" fill-rule="evenodd"/><path d="M645 355.5C645 346.94 651.716 340 660 340 668.284 340 675 346.94 675 355.5 675 364.06 668.284 371 660 371 651.716 371 645 364.06 645 355.5Z" stroke="#ED7D31" stroke-width="2" stroke-miterlimit="8" fill="none" fill-rule="evenodd"/><path d="M654 427C654 423.686 656.686 421 660 421 663.314 421 666 423.686 666 427 666 430.314 663.314 433 660 433 656.686 433 654 430.314 654 427Z" fill="#ED7D31" fill-rule="evenodd"/><path d="M0 0 0.000104987 50.0063" stroke="#ED7D31" stroke-width="2" stroke-miterlimit="8" fill="none" fill-rule="evenodd" transform="matrix(1 0 0 -1 660 421.006)"/><path d="M783 355C783 346.716 789.716 340 798 340 806.284 340 813 346.716 813 355 813 363.284 806.284 370 798 370 789.716 370 783 363.284 783 355Z" fill="#FFFFFF" fill-rule="evenodd"/><path d="M798 340 798 370M783 355 813 355" stroke="#ED7D31" stroke-width="2" stroke-miterlimit="8" fill="none" fill-rule="evenodd"/><path d="M783 355C783 346.716 789.716 340 798 340 806.284 340 813 346.716 813 355 813 363.284 806.284 370 798 370 789.716 370 783 363.284 783 355Z" stroke="#ED7D31" stroke-width="2" stroke-miterlimit="8" fill="none" fill-rule="evenodd"/><path d="M792 426C792 422.686 794.686 420 798 420 801.314 420 804 422.686 804 426 804 429.314 801.314 432 798 432 794.686 432 792 429.314 792 426Z" fill="#ED7D31" fill-rule="evenodd"/><path d="M0 0 0.000104987 50.0063" stroke="#ED7D31" stroke-width="2" stroke-miterlimit="8" fill="none" fill-rule="evenodd" transform="matrix(1 0 0 -1 798 420.006)"/><text fill="#9F5ED0" font-family="Cambria Math,Cambria Math_MSFontService,sans-serif" font-weight="400" font-size="48" transform="translate(1010.59 441)">|<tspan font-size="48" x="15.1667" y="0">𝑪</tspan><tspan font-size="35" x="45.3333" y="10">𝟐</tspan><tspan font-size="48" x="68.3266" y="0">|</tspan><tspan font-size="48" x="96.8266" y="0">=</tspan><tspan font-size="48" x="145.993" y="0">𝟖</tspan><tspan fill="#70AD47" font-size="48" x="-356.987" y="34">𝑻</tspan><tspan fill="#70AD47" font-size="35" x="-326.987" y="44">𝟏</tspan><tspan fill="#5B9BD5" font-size="48" x="-619.099" y="36">𝑺</tspan><tspan fill="#5B9BD5" font-size="35" x="-591.932" y="46">𝟐</tspan></text><rect x="365.5" y="590.5" width="278" height="198" stroke="#5B9BD5" stroke-width="3" stroke-miterlimit="8" fill="#DEEBF7" fill-opacity="0.501961"/><rect x="587.5" y="579.5" width="255" height="219" stroke="#9F5FCF" stroke-width="3" stroke-miterlimit="8" fill="#E8D9F3" fill-opacity="0.501961"/><path d="M359 760 959.614 760" stroke="#000000" stroke-width="2" stroke-miterlimit="8" fill="none" fill-rule="evenodd"/><path d="M359 689 959.614 689" stroke="#000000" stroke-width="2" stroke-miterlimit="8" fill="none" fill-rule="evenodd"/><path d="M359 619 959.839 619" stroke="#000000" stroke-width="2" stroke-miterlimit="8" fill="none" fill-rule="evenodd"/><text font-family="Cambria Math,Cambria Math_MSFontService,sans-serif" font-weight="400" font-size="32" transform="translate(313.519 770)">𝑞<tspan font-size="23" x="16.54" y="7">2</tspan><tspan font-size="32" x="0.0400085" y="-71">𝑞</tspan><tspan font-size="23" x="15.84" y="-64">1</tspan><tspan font-size="32" x="-0.195251" y="-141">𝑞</tspan><tspan font-size="23" x="16.3447" y="-134">0</tspan></text><path d="M404 760.5C404 769.06 397.06 776 388.5 776 379.94 776 373 769.06 373 760.5 373 751.94 379.94 745 388.5 745 397.06 745 404 751.94 404 760.5Z" fill="#FFFFFF" fill-rule="evenodd"/><path d="M388.5 776 388.5 745M404 760.5 373 760.5" stroke="#ED7D31" stroke-width="2" stroke-miterlimit="8" fill="none" fill-rule="evenodd"/><path d="M404 760.5C404 769.06 397.06 776 388.5 776 379.94 776 373 769.06 373 760.5 373 751.94 379.94 745 388.5 745 397.06 745 404 751.94 404 760.5Z" stroke="#ED7D31" stroke-width="2" stroke-miterlimit="8" fill="none" fill-rule="evenodd"/><path d="M395 619C395 622.314 392.314 625 389 625 385.686 625 383 622.314 383 619 383 615.686 385.686 613 389 613 392.314 613 395 615.686 395 619Z" fill="#ED7D31" fill-rule="evenodd"/><path d="M0 0 0.384462 120.662" stroke="#ED7D31" stroke-width="2" stroke-miterlimit="8" fill="none" fill-rule="evenodd" transform="matrix(1 -1.22465e-16 -1.22465e-16 -1 389 745.662)"/><rect x="719" y="596" width="47" height="45" stroke="#ED7D31" stroke-width="2" stroke-miterlimit="8" fill="#FFFFFF"/><text fill="#ED7D31" font-family="Cambria Math,Cambria Math_MSFontService,sans-serif" font-weight="400" font-size="32" transform="translate(728.354 630)">𝑇</text><rect x="478" y="666" width="48" height="45" stroke="#ED7D31" stroke-width="2" stroke-miterlimit="8" fill="#FFFFFF"/><text fill="#ED7D31" font-family="Cambria Math,Cambria Math_MSFontService,sans-serif" font-weight="400" font-size="32" transform="translate(488.09 700)">𝑇<tspan font-size="23" x="20.7133" y="-12">†</tspan></text><path d="M551 689C551 680.716 557.716 674 566 674 574.284 674 581 680.716 581 689 581 697.284 574.284 704 566 704 557.716 704 551 697.284 551 689Z" fill="#FFFFFF" fill-rule="evenodd"/><path d="M566 674 566 704M551 689 581 689" stroke="#ED7D31" stroke-width="2" stroke-miterlimit="8" fill="none" fill-rule="evenodd"/><path d="M551 689C551 680.716 557.716 674 566 674 574.284 674 581 680.716 581 689 581 697.284 574.284 704 566 704 557.716 704 551 697.284 551 689Z" stroke="#ED7D31" stroke-width="2" stroke-miterlimit="8" fill="none" fill-rule="evenodd"/><path d="M559 761C559 757.686 561.686 755 565 755 568.314 755 571 757.686 571 761 571 764.314 568.314 767 565 767 561.686 767 559 764.314 559 761Z" fill="#ED7D31" fill-rule="evenodd"/><path d="M0 0 0.608924 50.905" stroke="#ED7D31" stroke-width="2" stroke-miterlimit="8" fill="none" fill-rule="evenodd" transform="matrix(1 0 0 -1 565 754.905)"/><path d="M633 760C633 768.284 626.284 775 618 775 609.716 775 603 768.284 603 760 603 751.716 609.716 745 618 745 626.284 745 633 751.716 633 760Z" fill="#FFFFFF" fill-rule="evenodd"/><path d="M618 775 618 745M633 760 603 760" stroke="#ED7D31" stroke-width="2" stroke-miterlimit="8" fill="none" fill-rule="evenodd"/><path d="M633 760C633 768.284 626.284 775 618 775 609.716 775 603 768.284 603 760 603 751.716 609.716 745 618 745 626.284 745 633 751.716 633 760Z" stroke="#ED7D31" stroke-width="2" stroke-miterlimit="8" fill="none" fill-rule="evenodd"/><path d="M624 619C624 622.314 621.314 625 618 625 614.686 625 612 622.314 612 619 612 615.686 614.686 613 618 613 621.314 613 624 615.686 624 619Z" fill="#ED7D31" fill-rule="evenodd"/><path d="M618.002 744.891 618 625" stroke="#ED7D31" stroke-width="2" stroke-miterlimit="8" fill="none" fill-rule="evenodd"/><path d="M892 760C892 768.284 885.284 775 877 775 868.716 775 862 768.284 862 760 862 751.716 868.716 745 877 745 885.284 745 892 751.716 892 760Z" fill="#FFFFFF" fill-rule="evenodd"/><path d="M877 775 877 745M892 760 862 760" stroke="#ED7D31" stroke-width="2" stroke-miterlimit="8" fill="none" fill-rule="evenodd"/><path d="M892 760C892 768.284 885.284 775 877 775 868.716 775 862 768.284 862 760 862 751.716 868.716 745 877 745 885.284 745 892 751.716 892 760Z" stroke="#ED7D31" stroke-width="2" stroke-miterlimit="8" fill="none" fill-rule="evenodd"/><path d="M883 619C883 622.314 880.314 625 877 625 873.686 625 871 622.314 871 619 871 615.686 873.686 613 877 613 880.314 613 883 615.686 883 619Z" fill="#ED7D31" fill-rule="evenodd"/><path d="M0 0 0.320315 120.028" stroke="#ED7D31" stroke-width="2" stroke-miterlimit="8" fill="none" fill-rule="evenodd" transform="matrix(1 -1.22465e-16 -1.22465e-16 -1 877 745.028)"/><path d="M659 619C659 610.716 665.716 604 674 604 682.284 604 689 610.716 689 619 689 627.284 682.284 634 674 634 665.716 634 659 627.284 659 619Z" fill="#FFFFFF" fill-rule="evenodd"/><path d="M674 604 674 634M659 619 689 619" stroke="#ED7D31" stroke-width="2" stroke-miterlimit="8" fill="none" fill-rule="evenodd"/><path d="M659 619C659 610.716 665.716 604 674 604 682.284 604 689 610.716 689 619 689 627.284 682.284 634 674 634 665.716 634 659 627.284 659 619Z" stroke="#ED7D31" stroke-width="2" stroke-miterlimit="8" fill="none" fill-rule="evenodd"/><path d="M668 690C668 686.686 670.686 684 674 684 677.314 684 680 686.686 680 690 680 693.314 677.314 696 674 696 670.686 696 668 693.314 668 690Z" fill="#ED7D31" fill-rule="evenodd"/><path d="M0 0 0.000104987 50.0063" stroke="#ED7D31" stroke-width="2" stroke-miterlimit="8" fill="none" fill-rule="evenodd" transform="matrix(1 0 0 -1 674 684.006)"/><path d="M796 618.5C796 609.94 802.94 603 811.5 603 820.06 603 827 609.94 827 618.5 827 627.06 820.06 634 811.5 634 802.94 634 796 627.06 796 618.5Z" fill="#FFFFFF" fill-rule="evenodd"/><path d="M811.5 603 811.5 634M796 618.5 827 618.5" stroke="#ED7D31" stroke-width="2" stroke-miterlimit="8" fill="none" fill-rule="evenodd"/><path d="M796 618.5C796 609.94 802.94 603 811.5 603 820.06 603 827 609.94 827 618.5 827 627.06 820.06 634 811.5 634 802.94 634 796 627.06 796 618.5Z" stroke="#ED7D31" stroke-width="2" stroke-miterlimit="8" fill="none" fill-rule="evenodd"/><path d="M805 690C805 686.686 807.686 684 811 684 814.314 684 817 686.686 817 690 817 693.314 814.314 696 811 696 807.686 696 805 693.314 805 690Z" fill="#ED7D31" fill-rule="evenodd"/><path d="M0 0 0.000104987 50.0063" stroke="#ED7D31" stroke-width="2" stroke-miterlimit="8" fill="none" fill-rule="evenodd" transform="matrix(1 0 0 -1 811 684.006)"/><path d="M454 688.5C454 697.06 447.284 704 439 704 430.716 704 424 697.06 424 688.5 424 679.94 430.716 673 439 673 447.284 673 454 679.94 454 688.5Z" fill="#FFFFFF" fill-rule="evenodd"/><path d="M439 704 439 673M454 688.5 424 688.5" stroke="#ED7D31" stroke-width="2" stroke-miterlimit="8" fill="none" fill-rule="evenodd"/><path d="M454 688.5C454 697.06 447.284 704 439 704 430.716 704 424 697.06 424 688.5 424 679.94 430.716 673 439 673 447.284 673 454 679.94 454 688.5Z" stroke="#ED7D31" stroke-width="2" stroke-miterlimit="8" fill="none" fill-rule="evenodd"/><path d="M445 618C445 621.314 442.314 624 439 624 435.686 624 433 621.314 433 618 433 614.686 435.686 612 439 612 442.314 612 445 614.686 445 618Z" fill="#ED7D31" fill-rule="evenodd"/><path d="M0 0 0.288924 49.2572" stroke="#ED7D31" stroke-width="2" stroke-miterlimit="8" fill="none" fill-rule="evenodd" transform="matrix(-1 1.22465e-16 1.22465e-16 1 439.289 624)"/><text fill="#9F5ED0" font-family="Cambria Math,Cambria Math_MSFontService,sans-serif" font-weight="400" font-size="48" transform="translate(1010.85 704)">|<tspan font-size="48" x="15.1666" y="0">𝑪</tspan><tspan font-size="35" x="45.3334" y="10">𝟑</tspan><tspan font-size="48" x="68.3267" y="0">|</tspan><tspan font-size="48" x="96.8267" y="0">=</tspan><tspan font-size="48" x="145.993" y="0">𝟗</tspan><tspan fill="#5B9BD5" font-size="48" x="-573.087" y="39">𝑻</tspan><tspan fill="#5B9BD5" font-size="35" x="-543.087" y="49">𝟐</tspan><tspan fill="#9F5FCF" font-size="48" x="-269.247" y="34">𝑺</tspan><tspan fill="#9F5FCF" font-size="35" x="-242.08" y="44">𝟑</tspan></text><path d="M359 1301 960.391 1301" stroke="#000000" stroke-width="2" stroke-miterlimit="8" fill="none" fill-rule="evenodd"/><path d="M359 1229 960.391 1229" stroke="#000000" stroke-width="2" stroke-miterlimit="8" fill="none" fill-rule="evenodd"/><path d="M359 1160 960.616 1160" stroke="#000000" stroke-width="2" stroke-miterlimit="8" fill="none" fill-rule="evenodd"/><text font-family="Cambria Math,Cambria Math_MSFontService,sans-serif" font-weight="400" font-size="32" transform="translate(313.519 1311)">𝑞<tspan font-size="23" x="16.54" y="7">2</tspan><tspan font-size="32" x="0.0400085" y="-71">𝑞</tspan><tspan font-size="23" x="15.84" y="-64">1</tspan><tspan font-size="32" x="-0.195251" y="-141">𝑞</tspan><tspan font-size="23" x="16.3447" y="-134">0</tspan></text><path d="M404 1300.5C404 1309.06 397.06 1316 388.5 1316 379.94 1316 373 1309.06 373 1300.5 373 1291.94 379.94 1285 388.5 1285 397.06 1285 404 1291.94 404 1300.5Z" fill="#FFFFFF" fill-rule="evenodd"/><path d="M388.5 1316 388.5 1285M404 1300.5 373 1300.5" stroke="#ED7D31" stroke-width="2" stroke-miterlimit="8" fill="none" fill-rule="evenodd"/><path d="M404 1300.5C404 1309.06 397.06 1316 388.5 1316 379.94 1316 373 1309.06 373 1300.5 373 1291.94 379.94 1285 388.5 1285 397.06 1285 404 1291.94 404 1300.5Z" stroke="#ED7D31" stroke-width="2" stroke-miterlimit="8" fill="none" fill-rule="evenodd"/><path d="M395 1159C395 1162.31 392.314 1165 389 1165 385.686 1165 383 1162.31 383 1159 383 1155.69 385.686 1153 389 1153 392.314 1153 395 1155.69 395 1159Z" fill="#ED7D31" fill-rule="evenodd"/><path d="M0 0 0.473386 119.942" stroke="#ED7D31" stroke-width="2" stroke-miterlimit="8" fill="none" fill-rule="evenodd" transform="matrix(1 -1.22465e-16 -1.22465e-16 -1 388 1284.94)"/><rect x="658" y="1137" width="48" height="45" stroke="#ED7D31" stroke-width="2" stroke-miterlimit="8" fill="#FFFFFF"/><text fill="#ED7D31" font-family="Cambria Math,Cambria Math_MSFontService,sans-serif" font-weight="400" font-size="32" transform="translate(667.431 1170)">𝑇</text><rect x="478" y="1207" width="48" height="45" stroke="#ED7D31" stroke-width="2" stroke-miterlimit="8" fill="#FFFFFF"/><text fill="#ED7D31" font-family="Cambria Math,Cambria Math_MSFontService,sans-serif" font-weight="400" font-size="32" transform="translate(488.09 1241)">𝑇<tspan font-size="23" x="20.7133" y="-12">†</tspan></text><path d="M551 1229.5C551 1220.94 557.716 1214 566 1214 574.284 1214 581 1220.94 581 1229.5 581 1238.06 574.284 1245 566 1245 557.716 1245 551 1238.06 551 1229.5Z" fill="#FFFFFF" fill-rule="evenodd"/><path d="M566 1214 566 1245M551 1229.5 581 1229.5" stroke="#ED7D31" stroke-width="2" stroke-miterlimit="8" fill="none" fill-rule="evenodd"/><path d="M551 1229.5C551 1220.94 557.716 1214 566 1214 574.284 1214 581 1220.94 581 1229.5 581 1238.06 574.284 1245 566 1245 557.716 1245 551 1238.06 551 1229.5Z" stroke="#ED7D31" stroke-width="2" stroke-miterlimit="8" fill="none" fill-rule="evenodd"/><path d="M560 1301C560 1297.69 562.686 1295 566 1295 569.314 1295 572 1297.69 572 1301 572 1304.31 569.314 1307 566 1307 562.686 1307 560 1304.31 560 1301Z" fill="#ED7D31" fill-rule="evenodd"/><path d="M0 0 0.000104987 50.284" stroke="#ED7D31" stroke-width="2" stroke-miterlimit="8" fill="none" fill-rule="evenodd" transform="matrix(1 0 0 -1 566 1295.28)"/><path d="M598 1159.5C598 1150.94 604.716 1144 613 1144 621.284 1144 628 1150.94 628 1159.5 628 1168.06 621.284 1175 613 1175 604.716 1175 598 1168.06 598 1159.5Z" fill="#FFFFFF" fill-rule="evenodd"/><path d="M613 1144 613 1175M598 1159.5 628 1159.5" stroke="#ED7D31" stroke-width="2" stroke-miterlimit="8" fill="none" fill-rule="evenodd"/><path d="M598 1159.5C598 1150.94 604.716 1144 613 1144 621.284 1144 628 1150.94 628 1159.5 628 1168.06 621.284 1175 613 1175 604.716 1175 598 1168.06 598 1159.5Z" stroke="#ED7D31" stroke-width="2" stroke-miterlimit="8" fill="none" fill-rule="evenodd"/><path d="M607 1231C607 1227.69 609.686 1225 613 1225 616.314 1225 619 1227.69 619 1231 619 1234.31 616.314 1237 613 1237 609.686 1237 607 1234.31 607 1231Z" fill="#ED7D31" fill-rule="evenodd"/><path d="M0 0 0.000104987 50.0063" stroke="#ED7D31" stroke-width="2" stroke-miterlimit="8" fill="none" fill-rule="evenodd" transform="matrix(1 0 0 -1 613 1225.01)"/><path d="M735 1159C735 1150.72 741.94 1144 750.5 1144 759.06 1144 766 1150.72 766 1159 766 1167.28 759.06 1174 750.5 1174 741.94 1174 735 1167.28 735 1159Z" fill="#FFFFFF" fill-rule="evenodd"/><path d="M750.5 1144 750.5 1174M735 1159 766 1159" stroke="#ED7D31" stroke-width="2" stroke-miterlimit="8" fill="none" fill-rule="evenodd"/><path d="M735 1159C735 1150.72 741.94 1144 750.5 1144 759.06 1144 766 1150.72 766 1159 766 1167.28 759.06 1174 750.5 1174 741.94 1174 735 1167.28 735 1159Z" stroke="#ED7D31" stroke-width="2" stroke-miterlimit="8" fill="none" fill-rule="evenodd"/><path d="M745 1230C745 1226.69 747.686 1224 751 1224 754.314 1224 757 1226.69 757 1230 757 1233.31 754.314 1236 751 1236 747.686 1236 745 1233.31 745 1230Z" fill="#ED7D31" fill-rule="evenodd"/><path d="M0 0 0.000104987 50.0063" stroke="#ED7D31" stroke-width="2" stroke-miterlimit="8" fill="none" fill-rule="evenodd" transform="matrix(1 0 0 -1 751 1224.01)"/><path d="M454 1229.5C454 1238.06 447.284 1245 439 1245 430.716 1245 424 1238.06 424 1229.5 424 1220.94 430.716 1214 439 1214 447.284 1214 454 1220.94 454 1229.5Z" fill="#FFFFFF" fill-rule="evenodd"/><path d="M439 1245 439 1214M454 1229.5 424 1229.5" stroke="#ED7D31" stroke-width="2" stroke-miterlimit="8" fill="none" fill-rule="evenodd"/><path d="M454 1229.5C454 1238.06 447.284 1245 439 1245 430.716 1245 424 1238.06 424 1229.5 424 1220.94 430.716 1214 439 1214 447.284 1214 454 1220.94 454 1229.5Z" stroke="#ED7D31" stroke-width="2" stroke-miterlimit="8" fill="none" fill-rule="evenodd"/><path d="M445 1159C445 1162.31 442.314 1165 439 1165 435.686 1165 433 1162.31 433 1159 433 1155.69 435.686 1153 439 1153 442.314 1153 445 1155.69 445 1159Z" fill="#ED7D31" fill-rule="evenodd"/><path d="M0 0 0.288924 49.2572" stroke="#ED7D31" stroke-width="2" stroke-miterlimit="8" fill="none" fill-rule="evenodd" transform="matrix(-1 1.22465e-16 1.22465e-16 1 439.289 1165)"/><rect x="786.5" y="1143.5" width="128" height="173" stroke="#FFC000" stroke-width="3" stroke-miterlimit="8" fill="#FFF2CC" fill-opacity="0.501961"/><text fill="#9F5ED0" font-family="Cambria Math,Cambria Math_MSFontService,sans-serif" font-weight="400" font-size="48" transform="translate(1012.15 1246)">|<tspan font-size="48" x="15.1667" y="0">𝑪</tspan><tspan font-size="35" x="45.3333" y="10">𝟓</tspan><tspan font-size="48" x="68.3266" y="0">|</tspan><tspan font-size="48" x="96.8266" y="0">=</tspan><tspan font-size="48" x="145.993" y="0">𝟕</tspan><tspan fill="#FFC000" font-size="48" x="-90.5251" y="35">𝑻</tspan><tspan fill="#FFC000" font-size="35" x="-60.5251" y="45">𝟒</tspan></text><rect x="585.5" y="862.5" width="256" height="204" stroke="#9F5FCF" stroke-width="3" stroke-miterlimit="8" fill="#E8D9F3" fill-opacity="0.501961"/><rect x="786.5" y="884.5" width="128" height="193" stroke="#FFC000" stroke-width="3" stroke-miterlimit="8" fill="#FFF2CC" fill-opacity="0.501961"/><path d="M360 1042 960.199 1042" stroke="#000000" stroke-width="2" stroke-miterlimit="8" fill="none" fill-rule="evenodd"/><path d="M360 971 960.199 971" stroke="#000000" stroke-width="2" stroke-miterlimit="8" fill="none" fill-rule="evenodd"/><path d="M359 901 959.424 901" stroke="#000000" stroke-width="2" stroke-miterlimit="8" fill="none" fill-rule="evenodd"/><text font-family="Cambria Math,Cambria Math_MSFontService,sans-serif" font-weight="400" font-size="32" transform="translate(313.865 1052)">𝑞<tspan font-size="23" x="16.54" y="7">2</tspan><tspan font-size="32" x="0.0400085" y="-71">𝑞</tspan><tspan font-size="23" x="15.84" y="-64">1</tspan><tspan font-size="32" x="-0.195282" y="-141">𝑞</tspan><tspan font-size="23" x="16.3447" y="-134">0</tspan></text><path d="M404 1042C404 1050.28 397.284 1057 389 1057 380.716 1057 374 1050.28 374 1042 374 1033.72 380.716 1027 389 1027 397.284 1027 404 1033.72 404 1042Z" fill="#FFFFFF" fill-rule="evenodd"/><path d="M389 1057 389 1027M404 1042 374 1042" stroke="#ED7D31" stroke-width="2" stroke-miterlimit="8" fill="none" fill-rule="evenodd"/><path d="M404 1042C404 1050.28 397.284 1057 389 1057 380.716 1057 374 1050.28 374 1042 374 1033.72 380.716 1027 389 1027 397.284 1027 404 1033.72 404 1042Z" stroke="#ED7D31" stroke-width="2" stroke-miterlimit="8" fill="none" fill-rule="evenodd"/><path d="M395 901C395 904.314 392.314 907 389 907 385.686 907 383 904.314 383 901 383 897.686 385.686 895 389 895 392.314 895 395 897.686 395 901Z" fill="#ED7D31" fill-rule="evenodd"/><path d="M0 0 0.000104987 119.942" stroke="#ED7D31" stroke-width="2" stroke-miterlimit="8" fill="none" fill-rule="evenodd" transform="matrix(1 -1.22465e-16 -1.22465e-16 -1 389 1026.94)"/><rect x="658" y="878" width="48" height="45" stroke="#ED7D31" stroke-width="2" stroke-miterlimit="8" fill="#FFFFFF"/><text fill="#ED7D31" font-family="Cambria Math,Cambria Math_MSFontService,sans-serif" font-weight="400" font-size="32" transform="translate(667.777 912)">𝑇</text><rect x="479" y="948" width="48" height="45" stroke="#ED7D31" stroke-width="2" stroke-miterlimit="8" fill="#FFFFFF"/><text fill="#ED7D31" font-family="Cambria Math,Cambria Math_MSFontService,sans-serif" font-weight="400" font-size="32" transform="translate(488.437 982)">𝑇<tspan font-size="23" x="20.7133" y="-12">†</tspan></text><path d="M551 971C551 962.716 557.716 956 566 956 574.284 956 581 962.716 581 971 581 979.284 574.284 986 566 986 557.716 986 551 979.284 551 971Z" fill="#FFFFFF" fill-rule="evenodd"/><path d="M566 956 566 986M551 971 581 971" stroke="#ED7D31" stroke-width="2" stroke-miterlimit="8" fill="none" fill-rule="evenodd"/><path d="M551 971C551 962.716 557.716 956 566 956 574.284 956 581 962.716 581 971 581 979.284 574.284 986 566 986 557.716 986 551 979.284 551 971Z" stroke="#ED7D31" stroke-width="2" stroke-miterlimit="8" fill="none" fill-rule="evenodd"/><path d="M560 1042C560 1038.69 562.686 1036 566 1036 569.314 1036 572 1038.69 572 1042 572 1045.31 569.314 1048 566 1048 562.686 1048 560 1045.31 560 1042Z" fill="#ED7D31" fill-rule="evenodd"/><path d="M0 0 0.522415 50.2841" stroke="#ED7D31" stroke-width="2" stroke-miterlimit="8" fill="none" fill-rule="evenodd" transform="matrix(1 0 0 -1 566 1036.28)"/><path d="M825 1042C825 1050.28 818.284 1057 810 1057 801.716 1057 795 1050.28 795 1042 795 1033.72 801.716 1027 810 1027 818.284 1027 825 1033.72 825 1042Z" fill="#FFFFFF" fill-rule="evenodd"/><path d="M810 1057 810 1027M825 1042 795 1042" stroke="#ED7D31" stroke-width="2" stroke-miterlimit="8" fill="none" fill-rule="evenodd"/><path d="M825 1042C825 1050.28 818.284 1057 810 1057 801.716 1057 795 1050.28 795 1042 795 1033.72 801.716 1027 810 1027 818.284 1027 825 1033.72 825 1042Z" stroke="#ED7D31" stroke-width="2" stroke-miterlimit="8" fill="none" fill-rule="evenodd"/><path d="M816 901C816 904.314 813.314 907 810 907 806.686 907 804 904.314 804 901 804 897.686 806.686 895 810 895 813.314 895 816 897.686 816 901Z" fill="#ED7D31" fill-rule="evenodd"/><path d="M0 0 0.000209974 119.936" stroke="#ED7D31" stroke-width="2" stroke-miterlimit="8" fill="none" fill-rule="evenodd" transform="matrix(1 -1.22465e-16 -1.22465e-16 -1 810 1026.94)"/><path d="M893 1042C893 1050.28 886.06 1057 877.5 1057 868.94 1057 862 1050.28 862 1042 862 1033.72 868.94 1027 877.5 1027 886.06 1027 893 1033.72 893 1042Z" fill="#FFFFFF" fill-rule="evenodd"/><path d="M877.5 1057 877.5 1027M893 1042 862 1042" stroke="#ED7D31" stroke-width="2" stroke-miterlimit="8" fill="none" fill-rule="evenodd"/><path d="M893 1042C893 1050.28 886.06 1057 877.5 1057 868.94 1057 862 1050.28 862 1042 862 1033.72 868.94 1027 877.5 1027 886.06 1027 893 1033.72 893 1042Z" stroke="#ED7D31" stroke-width="2" stroke-miterlimit="8" fill="none" fill-rule="evenodd"/><path d="M883 901C883 904.314 880.314 907 877 907 873.686 907 871 904.314 871 901 871 897.686 873.686 895 877 895 880.314 895 883 897.686 883 901Z" fill="#ED7D31" fill-rule="evenodd"/><path d="M0 0 0.000104987 119.924" stroke="#ED7D31" stroke-width="2" stroke-miterlimit="8" fill="none" fill-rule="evenodd" transform="matrix(1 -1.22465e-16 -1.22465e-16 -1 877 1026.92)"/><path d="M598 901C598 892.716 604.716 886 613 886 621.284 886 628 892.716 628 901 628 909.284 621.284 916 613 916 604.716 916 598 909.284 598 901Z" fill="#FFFFFF" fill-rule="evenodd"/><path d="M613 886 613 916M598 901 628 901" stroke="#ED7D31" stroke-width="2" stroke-miterlimit="8" fill="none" fill-rule="evenodd"/><path d="M598 901C598 892.716 604.716 886 613 886 621.284 886 628 892.716 628 901 628 909.284 621.284 916 613 916 604.716 916 598 909.284 598 901Z" stroke="#ED7D31" stroke-width="2" stroke-miterlimit="8" fill="none" fill-rule="evenodd"/><path d="M607 972C607 968.686 609.686 966 613 966 616.314 966 619 968.686 619 972 619 975.314 616.314 978 613 978 609.686 978 607 975.314 607 972Z" fill="#ED7D31" fill-rule="evenodd"/><path d="M0 0 0.000104987 50.0063" stroke="#ED7D31" stroke-width="2" stroke-miterlimit="8" fill="none" fill-rule="evenodd" transform="matrix(1 0 0 -1 613 966.006)"/><path d="M736 900.5C736 891.94 742.716 885 751 885 759.284 885 766 891.94 766 900.5 766 909.06 759.284 916 751 916 742.716 916 736 909.06 736 900.5Z" fill="#FFFFFF" fill-rule="evenodd"/><path d="M751 885 751 916M736 900.5 766 900.5" stroke="#ED7D31" stroke-width="2" stroke-miterlimit="8" fill="none" fill-rule="evenodd"/><path d="M736 900.5C736 891.94 742.716 885 751 885 759.284 885 766 891.94 766 900.5 766 909.06 759.284 916 751 916 742.716 916 736 909.06 736 900.5Z" stroke="#ED7D31" stroke-width="2" stroke-miterlimit="8" fill="none" fill-rule="evenodd"/><path d="M745 971.5C745 968.462 747.686 966 751 966 754.314 966 757 968.462 757 971.5 757 974.538 754.314 977 751 977 747.686 977 745 974.538 745 971.5Z" fill="#ED7D31" fill-rule="evenodd"/><path d="M0 0 0.000104987 50.0063" stroke="#ED7D31" stroke-width="2" stroke-miterlimit="8" fill="none" fill-rule="evenodd" transform="matrix(1 0 0 -1 751 966.006)"/><path d="M455 970.5C455 979.06 448.06 986 439.5 986 430.94 986 424 979.06 424 970.5 424 961.94 430.94 955 439.5 955 448.06 955 455 961.94 455 970.5Z" fill="#FFFFFF" fill-rule="evenodd"/><path d="M439.5 986 439.5 955M455 970.5 424 970.5" stroke="#ED7D31" stroke-width="2" stroke-miterlimit="8" fill="none" fill-rule="evenodd"/><path d="M455 970.5C455 979.06 448.06 986 439.5 986 430.94 986 424 979.06 424 970.5 424 961.94 430.94 955 439.5 955 448.06 955 455 961.94 455 970.5Z" stroke="#ED7D31" stroke-width="2" stroke-miterlimit="8" fill="none" fill-rule="evenodd"/><path d="M446 900C446 903.314 443.314 906 440 906 436.686 906 434 903.314 434 900 434 896.686 436.686 894 440 894 443.314 894 446 896.686 446 900Z" fill="#ED7D31" fill-rule="evenodd"/><path d="M0 0 0.288924 49.2572" stroke="#ED7D31" stroke-width="2" stroke-miterlimit="8" fill="none" fill-rule="evenodd" transform="matrix(-1 1.22465e-16 1.22465e-16 1 440.289 906)"/><text fill="#9F5ED0" font-family="Cambria Math,Cambria Math_MSFontService,sans-serif" font-weight="400" font-size="48" transform="translate(1011.37 987)">|<tspan font-size="48" x="15.1667" y="0">𝑪</tspan><tspan font-size="35" x="45.3333" y="10">𝟒</tspan><tspan font-size="48" x="68.3267" y="0">|</tspan><tspan font-size="48" x="96.8267" y="0">=</tspan><tspan font-size="48" x="145.993" y="0">𝟗</tspan><tspan fill="#9F5FCF" font-size="48" x="-391.761" y="36">𝑻</tspan><tspan fill="#9F5FCF" font-size="35" x="-361.761" y="46">𝟑</tspan><tspan fill="#FFC000" font-size="48" x="-86.407" y="34">𝑺</tspan><tspan fill="#FFC000" font-size="35" x="-59.2404" y="44">𝟒</tspan></text></g></svg>