<svg width="821" height="2179" xmlns="http://www.w3.org/2000/svg" xmlns:xlink="http://www.w3.org/1999/xlink" overflow="hidden"><defs><clipPath id="clip0"><rect x="276" y="-1579" width="821" height="2179"/></clipPath></defs><g clip-path="url(#clip0)" transform="translate(-276 1579)"><rect x="412.5" y="-443.5" width="273" height="176" stroke="#70AD47" stroke-width="3" stroke-miterlimit="8" fill="#E2F0D9" fill-opacity="0.501961"/><rect x="336.5" y="-430.5" width="367" height="145" stroke="#5B9BD5" stroke-width="3" stroke-miterlimit="8" fill="#DEEBF7" fill-opacity="0.501961"/><rect x="848.5" y="406.5" width="84" height="60" stroke="#70AD47" stroke-width="3" stroke-miterlimit="8" fill="#E2F0D9" fill-opacity="0.501961"/><text font-family="Cambria Math,Cambria Math_MSFontService,sans-serif" font-weight="400" font-size="24" transform="translate(293.553 584)">𝑞<tspan font-size="18" x="12.5333" y="5">2</tspan><tspan font-size="24" x="0.279999" y="-71">𝑞</tspan><tspan font-size="18" x="12.26" y="-66">1</tspan><tspan font-size="24" x="-0.195282" y="-141">𝑞</tspan><tspan font-size="18" x="12.3381" y="-136">0</tspan></text><path d="M331 577 1093.76 577" stroke="#000000" stroke-width="2" stroke-miterlimit="8" fill="none" fill-rule="evenodd"/><path d="M331 506 1093.76 506" stroke="#000000" stroke-width="2" stroke-miterlimit="8" fill="none" fill-rule="evenodd"/><path d="M331 436 1094.05 436" stroke="#000000" stroke-width="2" stroke-miterlimit="8" fill="none" fill-rule="evenodd"/><rect x="420" y="483" width="48" height="46" stroke="#ED7D31" stroke-width="2" stroke-miterlimit="8" fill="#FFFFFF"/><text fill="#ED7D31" font-family="Cambria Math,Cambria Math_MSFontService,sans-serif" font-weight="400" font-size="32" transform="translate(430.024 517)">𝑇</text><path d="M834 505.5C834 496.94 840.716 490 849 490 857.284 490 864 496.94 864 505.5 864 514.06 857.284 521 849 521 840.716 521 834 514.06 834 505.5Z" fill="#FFFFFF" fill-rule="evenodd"/><path d="M849 490 849 521M834 505.5 864 505.5" stroke="#ED7D31" stroke-width="2" stroke-miterlimit="8" fill="none" fill-rule="evenodd"/><path d="M834 505.5C834 496.94 840.716 490 849 490 857.284 490 864 496.94 864 505.5 864 514.06 857.284 521 849 521 840.716 521 834 514.06 834 505.5Z" stroke="#ED7D31" stroke-width="2" stroke-miterlimit="8" fill="none" fill-rule="evenodd"/><path d="M843 577C843 573.686 845.686 571 849 571 852.314 571 855 573.686 855 577 855 580.314 852.314 583 849 583 845.686 583 843 580.314 843 577Z" fill="#ED7D31" fill-rule="evenodd"/><path d="M0 0 0.000104987 50.1389" stroke="#ED7D31" stroke-width="2" stroke-miterlimit="8" fill="none" fill-rule="evenodd" transform="matrix(-1 0 0 1 849 521)"/><path d="M384 505C384 513.284 377.284 520 369 520 360.716 520 354 513.284 354 505 354 496.716 360.716 490 369 490 377.284 490 384 496.716 384 505Z" fill="#FFFFFF" fill-rule="evenodd"/><path d="M369 520 369 490M384 505 354 505" stroke="#ED7D31" stroke-width="2" stroke-miterlimit="8" fill="none" fill-rule="evenodd"/><path d="M384 505C384 513.284 377.284 520 369 520 360.716 520 354 513.284 354 505 354 496.716 360.716 490 369 490 377.284 490 384 496.716 384 505Z" stroke="#ED7D31" stroke-width="2" stroke-miterlimit="8" fill="none" fill-rule="evenodd"/><path d="M375 436C375 439.314 372.314 442 369 442 365.686 442 363 439.314 363 436 363 432.686 365.686 430 369 430 372.314 430 375 432.686 375 436Z" fill="#ED7D31" fill-rule="evenodd"/><path d="M369 490.406 369 442" stroke="#ED7D31" stroke-width="2" stroke-miterlimit="8" fill="none" fill-rule="evenodd"/><rect x="498" y="483" width="48" height="45" stroke="#ED7D31" stroke-width="2" stroke-miterlimit="8" fill="#FFFFFF"/><text fill="#ED7D31" font-family="Cambria Math,Cambria Math_MSFontService,sans-serif" font-weight="400" font-size="32" transform="translate(507.657 516)">𝑇</text><path d="M794 577C794 585.284 787.284 592 779 592 770.716 592 764 585.284 764 577 764 568.716 770.716 562 779 562 787.284 562 794 568.716 794 577Z" fill="#FFFFFF" fill-rule="evenodd"/><path d="M779 592 779 562M794 577 764 577" stroke="#ED7D31" stroke-width="2" stroke-miterlimit="8" fill="none" fill-rule="evenodd"/><path d="M794 577C794 585.284 787.284 592 779 592 770.716 592 764 585.284 764 577 764 568.716 770.716 562 779 562 787.284 562 794 568.716 794 577Z" stroke="#ED7D31" stroke-width="2" stroke-miterlimit="8" fill="none" fill-rule="evenodd"/><path d="M785 436.5C785 439.538 782.314 442 779 442 775.686 442 773 439.538 773 436.5 773 433.462 775.686 431 779 431 782.314 431 785 433.462 785 436.5Z" fill="#ED7D31" fill-rule="evenodd"/><path d="M0 0 0.000104987 120.018" stroke="#ED7D31" stroke-width="2" stroke-miterlimit="8" fill="none" fill-rule="evenodd" transform="matrix(-1 1.22465e-16 1.22465e-16 1 779 442)"/><path d="M611 505.5C611 514.06 604.284 521 596 521 587.716 521 581 514.06 581 505.5 581 496.94 587.716 490 596 490 604.284 490 611 496.94 611 505.5Z" fill="#FFFFFF" fill-rule="evenodd"/><path d="M596 521 596 490M611 505.5 581 505.5" stroke="#ED7D31" stroke-width="2" stroke-miterlimit="8" fill="none" fill-rule="evenodd"/><path d="M611 505.5C611 514.06 604.284 521 596 521 587.716 521 581 514.06 581 505.5 581 496.94 587.716 490 596 490 604.284 490 611 496.94 611 505.5Z" stroke="#ED7D31" stroke-width="2" stroke-miterlimit="8" fill="none" fill-rule="evenodd"/><path d="M602 437C602 440.314 599.314 443 596 443 592.686 443 590 440.314 590 437 590 433.686 592.686 431 596 431 599.314 431 602 433.686 602 437Z" fill="#ED7D31" fill-rule="evenodd"/><path d="M596 490.606 596 443" stroke="#ED7D31" stroke-width="2" stroke-miterlimit="8" fill="none" fill-rule="evenodd"/><rect x="689" y="553" width="48" height="46" stroke="#ED7D31" stroke-width="2" stroke-miterlimit="8" fill="#FFFFFF"/><text fill="#ED7D31" font-family="Cambria Math,Cambria Math_MSFontService,sans-serif" font-weight="400" font-size="32" transform="translate(698.653 587)">𝑇</text><path d="M670 576.5C670 585.06 663.06 592 654.5 592 645.94 592 639 585.06 639 576.5 639 567.94 645.94 561 654.5 561 663.06 561 670 567.94 670 576.5Z" fill="#FFFFFF" fill-rule="evenodd"/><path d="M654.5 592 654.5 561M670 576.5 639 576.5" stroke="#ED7D31" stroke-width="2" stroke-miterlimit="8" fill="none" fill-rule="evenodd"/><path d="M670 576.5C670 585.06 663.06 592 654.5 592 645.94 592 639 585.06 639 576.5 639 567.94 645.94 561 654.5 561 663.06 561 670 567.94 670 576.5Z" stroke="#ED7D31" stroke-width="2" stroke-miterlimit="8" fill="none" fill-rule="evenodd"/><path d="M660 506C660 509.314 657.314 512 654 512 650.686 512 648 509.314 648 506 648 502.686 650.686 500 654 500 657.314 500 660 502.686 660 506Z" fill="#ED7D31" fill-rule="evenodd"/><path d="M0 0 0.000104987 49.7603" stroke="#ED7D31" stroke-width="2" stroke-miterlimit="8" fill="none" fill-rule="evenodd" transform="matrix(-1 1.22465e-16 1.22465e-16 1 654 512)"/><rect x="744.5" y="130.5" width="120" height="200" stroke="#FFC000" stroke-width="3" stroke-miterlimit="8" fill="#FFF2CC" fill-opacity="0.501961"/><rect x="796.5" y="121.5" width="175" height="87" stroke="#70AD47" stroke-width="3" stroke-miterlimit="8" fill="#E2F0D9" fill-opacity="0.501961"/><text font-family="Cambria Math,Cambria Math_MSFontService,sans-serif" font-weight="400" font-size="24" transform="translate(288.811 311)">𝑞<tspan font-size="18" x="12.5334" y="5">2</tspan><tspan font-size="24" x="0.280029" y="-71">𝑞</tspan><tspan font-size="18" x="12.26" y="-66">1</tspan><tspan font-size="24" x="-0.195251" y="-141">𝑞</tspan><tspan font-size="18" x="12.3381" y="-136">0</tspan></text><path d="M327 304 1094.59 304" stroke="#000000" stroke-width="2" stroke-miterlimit="8" fill="none" fill-rule="evenodd"/><path d="M327 233 1094.59 233" stroke="#000000" stroke-width="2" stroke-miterlimit="8" fill="none" fill-rule="evenodd"/><path d="M326 163 1093.88 163" stroke="#000000" stroke-width="2" stroke-miterlimit="8" fill="none" fill-rule="evenodd"/><rect x="416" y="210" width="47" height="45" stroke="#ED7D31" stroke-width="2" stroke-miterlimit="8" fill="#FFFFFF"/><text fill="#ED7D31" font-family="Cambria Math,Cambria Math_MSFontService,sans-serif" font-weight="400" font-size="32" transform="translate(425.282 244)">𝑇</text><path d="M906 232.5C906 223.94 912.716 217 921 217 929.284 217 936 223.94 936 232.5 936 241.06 929.284 248 921 248 912.716 248 906 241.06 906 232.5Z" fill="#FFFFFF" fill-rule="evenodd"/><path d="M921 217 921 248M906 232.5 936 232.5" stroke="#ED7D31" stroke-width="2" stroke-miterlimit="8" fill="none" fill-rule="evenodd"/><path d="M906 232.5C906 223.94 912.716 217 921 217 929.284 217 936 223.94 936 232.5 936 241.06 929.284 248 921 248 912.716 248 906 241.06 906 232.5Z" stroke="#ED7D31" stroke-width="2" stroke-miterlimit="8" fill="none" fill-rule="evenodd"/><path d="M915 304C915 300.686 917.686 298 921 298 924.314 298 927 300.686 927 304 927 307.314 924.314 310 921 310 917.686 310 915 307.314 915 304Z" fill="#ED7D31" fill-rule="evenodd"/><path d="M0 0 0.000104987 50.1389" stroke="#ED7D31" stroke-width="2" stroke-miterlimit="8" fill="none" fill-rule="evenodd" transform="matrix(-1 0 0 1 921 248)"/><path d="M379 232C379 240.284 372.284 247 364 247 355.716 247 349 240.284 349 232 349 223.716 355.716 217 364 217 372.284 217 379 223.716 379 232Z" fill="#FFFFFF" fill-rule="evenodd"/><path d="M364 247 364 217M379 232 349 232" stroke="#ED7D31" stroke-width="2" stroke-miterlimit="8" fill="none" fill-rule="evenodd"/><path d="M379 232C379 240.284 372.284 247 364 247 355.716 247 349 240.284 349 232 349 223.716 355.716 217 364 217 372.284 217 379 223.716 379 232Z" stroke="#ED7D31" stroke-width="2" stroke-miterlimit="8" fill="none" fill-rule="evenodd"/><path d="M370 163C370 166.314 367.314 169 364 169 360.686 169 358 166.314 358 163 358 159.686 360.686 157 364 157 367.314 157 370 159.686 370 163Z" fill="#ED7D31" fill-rule="evenodd"/><path d="M364 217.406 364 169" stroke="#ED7D31" stroke-width="2" stroke-miterlimit="8" fill="none" fill-rule="evenodd"/><rect x="493" y="209" width="48" height="46" stroke="#ED7D31" stroke-width="2" stroke-miterlimit="8" fill="#FFFFFF"/><text fill="#ED7D31" font-family="Cambria Math,Cambria Math_MSFontService,sans-serif" font-weight="400" font-size="32" transform="translate(502.915 243)">𝑇</text><path d="M790 304C790 312.284 783.06 319 774.5 319 765.94 319 759 312.284 759 304 759 295.716 765.94 289 774.5 289 783.06 289 790 295.716 790 304Z" fill="#FFFFFF" fill-rule="evenodd"/><path d="M774.5 319 774.5 289M790 304 759 304" stroke="#ED7D31" stroke-width="2" stroke-miterlimit="8" fill="none" fill-rule="evenodd"/><path d="M790 304C790 312.284 783.06 319 774.5 319 765.94 319 759 312.284 759 304 759 295.716 765.94 289 774.5 289 783.06 289 790 295.716 790 304Z" stroke="#ED7D31" stroke-width="2" stroke-miterlimit="8" fill="none" fill-rule="evenodd"/><path d="M780 163C780 166.314 777.314 169 774 169 770.686 169 768 166.314 768 163 768 159.686 770.686 157 774 157 777.314 157 780 159.686 780 163Z" fill="#ED7D31" fill-rule="evenodd"/><path d="M0 0 0.000104987 120.018" stroke="#ED7D31" stroke-width="2" stroke-miterlimit="8" fill="none" fill-rule="evenodd" transform="matrix(-1 1.22465e-16 1.22465e-16 1 774 169)"/><rect x="898" y="140" width="48" height="46" stroke="#ED7D31" stroke-width="2" stroke-miterlimit="8" fill="#FFFFFF"/><text fill="#ED7D31" font-family="Cambria Math,Cambria Math_MSFontService,sans-serif" font-weight="400" font-size="32" transform="translate(907.653 174)">𝑇<tspan font-size="23" x="20.7134" y="-11">†</tspan></text><path d="M606 232C606 240.284 599.284 247 591 247 582.716 247 576 240.284 576 232 576 223.716 582.716 217 591 217 599.284 217 606 223.716 606 232Z" fill="#FFFFFF" fill-rule="evenodd"/><path d="M591 247 591 217M606 232 576 232" stroke="#ED7D31" stroke-width="2" stroke-miterlimit="8" fill="none" fill-rule="evenodd"/><path d="M606 232C606 240.284 599.284 247 591 247 582.716 247 576 240.284 576 232 576 223.716 582.716 217 591 217 599.284 217 606 223.716 606 232Z" stroke="#ED7D31" stroke-width="2" stroke-miterlimit="8" fill="none" fill-rule="evenodd"/><path d="M597 164C597 167.314 594.314 170 591 170 587.686 170 585 167.314 585 164 585 160.686 587.686 158 591 158 594.314 158 597 160.686 597 164Z" fill="#ED7D31" fill-rule="evenodd"/><path d="M591 217.606 591 170" stroke="#ED7D31" stroke-width="2" stroke-miterlimit="8" fill="none" fill-rule="evenodd"/><rect x="684" y="280" width="48" height="46" stroke="#ED7D31" stroke-width="2" stroke-miterlimit="8" fill="#FFFFFF"/><text fill="#ED7D31" font-family="Cambria Math,Cambria Math_MSFontService,sans-serif" font-weight="400" font-size="32" transform="translate(693.911 314)">𝑇</text><path d="M665 303.5C665 312.06 658.284 319 650 319 641.716 319 635 312.06 635 303.5 635 294.94 641.716 288 650 288 658.284 288 665 294.94 665 303.5Z" fill="#FFFFFF" fill-rule="evenodd"/><path d="M650 319 650 288M665 303.5 635 303.5" stroke="#ED7D31" stroke-width="2" stroke-miterlimit="8" fill="none" fill-rule="evenodd"/><path d="M665 303.5C665 312.06 658.284 319 650 319 641.716 319 635 312.06 635 303.5 635 294.94 641.716 288 650 288 658.284 288 665 294.94 665 303.5Z" stroke="#ED7D31" stroke-width="2" stroke-miterlimit="8" fill="none" fill-rule="evenodd"/><path d="M656 232C656 235.314 653.314 238 650 238 646.686 238 644 235.314 644 232 644 228.686 646.686 226 650 226 653.314 226 656 228.686 656 232Z" fill="#ED7D31" fill-rule="evenodd"/><path d="M0 0 0.000104987 49.7603" stroke="#ED7D31" stroke-width="2" stroke-miterlimit="8" fill="none" fill-rule="evenodd" transform="matrix(-1 1.22465e-16 1.22465e-16 1 650 238)"/><rect x="806" y="140" width="48" height="46" stroke="#ED7D31" stroke-width="2" stroke-miterlimit="8" fill="#FFFFFF"/><text fill="#ED7D31" font-family="Cambria Math,Cambria Math_MSFontService,sans-serif" font-weight="400" font-size="32" transform="translate(815.797 174)">𝑇</text><path d="M904.25 339.5 904.25 366 917.5 366 891 392.5 864.5 366 877.75 366 877.75 339.5Z" stroke="#70AD47" stroke-width="3" stroke-miterlimit="8" fill="#E2F0D9" fill-rule="evenodd"/><rect x="336.5" y="-168.5" width="354" height="145" stroke="#5B9BD5" stroke-width="3" stroke-miterlimit="8" fill="#DEEBF7" fill-opacity="0.501961"/><path d="M620.5-159.167 865.837-159.5 867.5 33.1673 821.593 33.5 820.262-96.7751 621.664-96.9414C621.609-117.961 621.553-138.98 620.5-159.167Z" stroke="#FFC000" stroke-width="3" stroke-miterlimit="8" fill="#FFF2CC" fill-rule="evenodd" fill-opacity="0.501961"/><text font-family="Cambria Math,Cambria Math_MSFontService,sans-serif" font-weight="400" font-size="24" transform="translate(288.965 -245)">𝑞<tspan font-size="18" x="12.5333" y="5">2</tspan><tspan font-size="24" x="0.279999" y="-71">𝑞</tspan><tspan font-size="18" x="12.26" y="-66">1</tspan><tspan font-size="24" x="-0.195282" y="-141">𝑞</tspan><tspan font-size="18" x="12.338" y="-136">0</tspan></text><path d="M327-252 1094.97-252" stroke="#000000" stroke-width="2" stroke-miterlimit="8" fill="none" fill-rule="evenodd"/><path d="M327-324 1094.97-324" stroke="#000000" stroke-width="2" stroke-miterlimit="8" fill="none" fill-rule="evenodd"/><path d="M326-393 1094.25-393" stroke="#000000" stroke-width="2" stroke-miterlimit="8" fill="none" fill-rule="evenodd"/><rect x="484" y="-346" width="48" height="45" stroke="#ED7D31" stroke-width="2" stroke-miterlimit="8" fill="#FFFFFF"/><text fill="#ED7D31" font-family="Cambria Math,Cambria Math_MSFontService,sans-serif" font-weight="400" font-size="32" transform="translate(493.436 -313)">𝑇</text><path d="M893-323.5C893-332.06 899.716-339 908-339 916.284-339 923-332.06 923-323.5 923-314.94 916.284-308 908-308 899.716-308 893-314.94 893-323.5Z" fill="#FFFFFF" fill-rule="evenodd"/><path d="M908-339 908-308M893-323.5 923-323.5" stroke="#ED7D31" stroke-width="2" stroke-miterlimit="8" fill="none" fill-rule="evenodd"/><path d="M893-323.5C893-332.06 899.716-339 908-339 916.284-339 923-332.06 923-323.5 923-314.94 916.284-308 908-308 899.716-308 893-314.94 893-323.5Z" stroke="#ED7D31" stroke-width="2" stroke-miterlimit="8" fill="none" fill-rule="evenodd"/><path d="M902-252C902-255.314 904.686-258 908-258 911.314-258 914-255.314 914-252 914-248.686 911.314-246 908-246 904.686-246 902-248.686 902-252Z" fill="#ED7D31" fill-rule="evenodd"/><path d="M0 0 0.000104987 50.1389" stroke="#ED7D31" stroke-width="2" stroke-miterlimit="8" fill="none" fill-rule="evenodd" transform="matrix(-1 0 0 1 908 -308)"/><path d="M448-323C448-314.716 441.06-308 432.5-308 423.94-308 417-314.716 417-323 417-331.284 423.94-338 432.5-338 441.06-338 448-331.284 448-323Z" fill="#FFFFFF" fill-rule="evenodd"/><path d="M432.5-308 432.5-338M448-323 417-323" stroke="#ED7D31" stroke-width="2" stroke-miterlimit="8" fill="none" fill-rule="evenodd"/><path d="M448-323C448-314.716 441.06-308 432.5-308 423.94-308 417-314.716 417-323 417-331.284 423.94-338 432.5-338 441.06-338 448-331.284 448-323Z" stroke="#ED7D31" stroke-width="2" stroke-miterlimit="8" fill="none" fill-rule="evenodd"/><path d="M438-393C438-389.686 435.314-387 432-387 428.686-387 426-389.686 426-393 426-396.314 428.686-399 432-399 435.314-399 438-396.314 438-393Z" fill="#ED7D31" fill-rule="evenodd"/><path d="M432-338.594 432-387" stroke="#ED7D31" stroke-width="2" stroke-miterlimit="8" fill="none" fill-rule="evenodd"/><rect x="561" y="-347" width="48" height="45" stroke="#ED7D31" stroke-width="2" stroke-miterlimit="8" fill="#FFFFFF"/><text fill="#ED7D31" font-family="Cambria Math,Cambria Math_MSFontService,sans-serif" font-weight="400" font-size="32" transform="translate(571.069 -313)">𝑇</text><path d="M858-252C858-243.716 851.06-237 842.5-237 833.94-237 827-243.716 827-252 827-260.284 833.94-267 842.5-267 851.06-267 858-260.284 858-252Z" fill="#FFFFFF" fill-rule="evenodd"/><path d="M842.5-237 842.5-267M858-252 827-252" stroke="#ED7D31" stroke-width="2" stroke-miterlimit="8" fill="none" fill-rule="evenodd"/><path d="M858-252C858-243.716 851.06-237 842.5-237 833.94-237 827-243.716 827-252 827-260.284 833.94-267 842.5-267 851.06-267 858-260.284 858-252Z" stroke="#ED7D31" stroke-width="2" stroke-miterlimit="8" fill="none" fill-rule="evenodd"/><path d="M849-393C849-389.686 846.314-387 843-387 839.686-387 837-389.686 837-393 837-396.314 839.686-399 843-399 846.314-399 849-396.314 849-393Z" fill="#ED7D31" fill-rule="evenodd"/><path d="M0 0 0.000104987 120.018" stroke="#ED7D31" stroke-width="2" stroke-miterlimit="8" fill="none" fill-rule="evenodd" transform="matrix(-1 1.22465e-16 1.22465e-16 1 843 -387)"/><rect x="884" y="-416" width="48" height="45" stroke="#ED7D31" stroke-width="2" stroke-miterlimit="8" fill="#FFFFFF"/><text fill="#ED7D31" font-family="Cambria Math,Cambria Math_MSFontService,sans-serif" font-weight="400" font-size="32" transform="translate(893.727 -382)">𝑇<tspan font-size="23" x="20.7133" y="-12">†</tspan></text><path d="M675-324C675-315.716 668.06-309 659.5-309 650.94-309 644-315.716 644-324 644-332.284 650.94-339 659.5-339 668.06-339 675-332.284 675-324Z" fill="#FFFFFF" fill-rule="evenodd"/><path d="M659.5-309 659.5-339M675-324 644-324" stroke="#ED7D31" stroke-width="2" stroke-miterlimit="8" fill="none" fill-rule="evenodd"/><path d="M675-324C675-315.716 668.06-309 659.5-309 650.94-309 644-315.716 644-324 644-332.284 650.94-339 659.5-339 668.06-339 675-332.284 675-324Z" stroke="#ED7D31" stroke-width="2" stroke-miterlimit="8" fill="none" fill-rule="evenodd"/><path d="M665-393C665-389.686 662.314-387 659-387 655.686-387 653-389.686 653-393 653-396.314 655.686-399 659-399 662.314-399 665-396.314 665-393Z" fill="#ED7D31" fill-rule="evenodd"/><path d="M659-339.394 659-387" stroke="#ED7D31" stroke-width="2" stroke-miterlimit="8" fill="none" fill-rule="evenodd"/><rect x="752" y="-276" width="48" height="45" stroke="#ED7D31" stroke-width="2" stroke-miterlimit="8" fill="#FFFFFF"/><text fill="#ED7D31" font-family="Cambria Math,Cambria Math_MSFontService,sans-serif" font-weight="400" font-size="32" transform="translate(762.065 -242)">𝑇</text><path d="M733-253C733-244.716 726.284-238 718-238 709.716-238 703-244.716 703-253 703-261.284 709.716-268 718-268 726.284-268 733-261.284 733-253Z" fill="#FFFFFF" fill-rule="evenodd"/><path d="M718-238 718-268M733-253 703-253" stroke="#ED7D31" stroke-width="2" stroke-miterlimit="8" fill="none" fill-rule="evenodd"/><path d="M733-253C733-244.716 726.284-238 718-238 709.716-238 703-244.716 703-253 703-261.284 709.716-268 718-268 726.284-268 733-261.284 733-253Z" stroke="#ED7D31" stroke-width="2" stroke-miterlimit="8" fill="none" fill-rule="evenodd"/><path d="M724-324C724-320.686 721.314-318 718-318 714.686-318 712-320.686 712-324 712-327.314 714.686-330 718-330 721.314-330 724-327.314 724-324Z" fill="#ED7D31" fill-rule="evenodd"/><path d="M0 0 0.000104987 49.7603" stroke="#ED7D31" stroke-width="2" stroke-miterlimit="8" fill="none" fill-rule="evenodd" transform="matrix(-1 1.22465e-16 1.22465e-16 1 718 -318)"/><path d="M527.25-236.5 527.25-210 540.5-210 514-183.5 487.5-210 500.75-210 500.75-236.5Z" stroke="#5B9BD5" stroke-width="3" stroke-miterlimit="8" fill="#DEEBF7" fill-rule="evenodd"/><rect x="348" y="-417" width="47" height="46" stroke="#ED7D31" stroke-width="2" stroke-miterlimit="8" fill="#FFFFFF"/><text fill="#ED7D31" font-family="Cambria Math,Cambria Math_MSFontService,sans-serif" font-weight="400" font-size="32" transform="translate(357.36 -383)">𝑇</text><path d="M815.25 50.5001 815.25 77.0001 828.5 77.0001 802 103.5 775.5 77.0001 788.75 77.0001 788.75 50.5001Z" stroke="#FFC000" stroke-width="3" stroke-miterlimit="8" fill="#FFF2CC" fill-rule="evenodd"/><text font-family="Cambria Math,Cambria Math_MSFontService,sans-serif" font-weight="400" font-size="24" transform="translate(289.043 18)">𝑞<tspan font-size="18" x="12.5333" y="5">2</tspan><tspan font-size="24" x="0.279999" y="-71">𝑞</tspan><tspan font-size="18" x="12.26" y="-66">1</tspan><tspan font-size="24" x="-0.195282" y="-141">𝑞</tspan><tspan font-size="18" x="12.338" y="-136">0</tspan></text><path d="M327 11 1095.44 11.0001" stroke="#000000" stroke-width="2" stroke-miterlimit="8" fill="none" fill-rule="evenodd"/><path d="M327-60 1095.44-59.9999" stroke="#000000" stroke-width="2" stroke-miterlimit="8" fill="none" fill-rule="evenodd"/><path d="M326-130 1094.73-130" stroke="#000000" stroke-width="2" stroke-miterlimit="8" fill="none" fill-rule="evenodd"/><rect x="411" y="-83" width="48" height="45" stroke="#ED7D31" stroke-width="2" stroke-miterlimit="8" fill="#FFFFFF"/><text fill="#ED7D31" font-family="Cambria Math,Cambria Math_MSFontService,sans-serif" font-weight="400" font-size="32" transform="translate(421.053 -50)">𝑇</text><path d="M893-60C893-68.2843 899.716-75 908-75 916.284-75 923-68.2843 923-60 923-51.7157 916.284-45 908-45 899.716-45 893-51.7157 893-60Z" fill="#FFFFFF" fill-rule="evenodd"/><path d="M908-75 908-45M893-60 923-60" stroke="#ED7D31" stroke-width="2" stroke-miterlimit="8" fill="none" fill-rule="evenodd"/><path d="M893-60C893-68.2843 899.716-75 908-75 916.284-75 923-68.2843 923-60 923-51.7157 916.284-45 908-45 899.716-45 893-51.7157 893-60Z" stroke="#ED7D31" stroke-width="2" stroke-miterlimit="8" fill="none" fill-rule="evenodd"/><path d="M902 11C902 7.68629 904.686 5 908 5 911.314 5 914 7.68629 914 11 914 14.3137 911.314 17 908 17 904.686 17 902 14.3137 902 11Z" fill="#ED7D31" fill-rule="evenodd"/><path d="M0 0 0.000104987 50.1389" stroke="#ED7D31" stroke-width="2" stroke-miterlimit="8" fill="none" fill-rule="evenodd" transform="matrix(-1 0 0 1 908 -45)"/><path d="M375-60.5C375-51.9396 368.284-45 360-45 351.716-45 345-51.9396 345-60.5 345-69.0604 351.716-76 360-76 368.284-76 375-69.0604 375-60.5Z" fill="#FFFFFF" fill-rule="evenodd"/><path d="M360-45 360-76M375-60.5 345-60.5" stroke="#ED7D31" stroke-width="2" stroke-miterlimit="8" fill="none" fill-rule="evenodd"/><path d="M375-60.5C375-51.9396 368.284-45 360-45 351.716-45 345-51.9396 345-60.5 345-69.0604 351.716-76 360-76 368.284-76 375-69.0604 375-60.5Z" stroke="#ED7D31" stroke-width="2" stroke-miterlimit="8" fill="none" fill-rule="evenodd"/><path d="M366-130C366-126.686 363.314-124 360-124 356.686-124 354-126.686 354-130 354-133.314 356.686-136 360-136 363.314-136 366-133.314 366-130Z" fill="#ED7D31" fill-rule="evenodd"/><path d="M360-75.5937 360-124" stroke="#ED7D31" stroke-width="2" stroke-miterlimit="8" fill="none" fill-rule="evenodd"/><rect x="489" y="-83" width="48" height="45" stroke="#ED7D31" stroke-width="2" stroke-miterlimit="8" fill="#FFFFFF"/><text fill="#ED7D31" font-family="Cambria Math,Cambria Math_MSFontService,sans-serif" font-weight="400" font-size="32" transform="translate(498.686 -49)">𝑇</text><path d="M858 11C858 19.2843 851.284 26 843 26 834.716 26 828 19.2843 828 11 828 2.71573 834.716-4 843-4 851.284-4 858 2.71573 858 11Z" fill="#FFFFFF" fill-rule="evenodd"/><path d="M843 26 843-4M858 11 828 11" stroke="#ED7D31" stroke-width="2" stroke-miterlimit="8" fill="none" fill-rule="evenodd"/><path d="M858 11C858 19.2843 851.284 26 843 26 834.716 26 828 19.2843 828 11 828 2.71573 834.716-4 843-4 851.284-4 858 2.71573 858 11Z" stroke="#ED7D31" stroke-width="2" stroke-miterlimit="8" fill="none" fill-rule="evenodd"/><path d="M849-130C849-126.686 846.314-124 843-124 839.686-124 837-126.686 837-130 837-133.314 839.686-136 843-136 846.314-136 849-133.314 849-130Z" fill="#ED7D31" fill-rule="evenodd"/><path d="M0 0 0.000104987 120.018" stroke="#ED7D31" stroke-width="2" stroke-miterlimit="8" fill="none" fill-rule="evenodd" transform="matrix(-1 1.22465e-16 1.22465e-16 1 843 -124)"/><rect x="884" y="-152" width="48" height="45" stroke="#ED7D31" stroke-width="2" stroke-miterlimit="8" fill="#FFFFFF"/><text fill="#ED7D31" font-family="Cambria Math,Cambria Math_MSFontService,sans-serif" font-weight="400" font-size="32" transform="translate(893.805 -118)">𝑇<tspan font-size="23" x="20.7133" y="-12">†</tspan></text><path d="M602-60.5C602-51.9396 595.284-45 587-45 578.716-45 572-51.9396 572-60.5 572-69.0604 578.716-76 587-76 595.284-76 602-69.0604 602-60.5Z" fill="#FFFFFF" fill-rule="evenodd"/><path d="M587-45 587-76M602-60.5 572-60.5" stroke="#ED7D31" stroke-width="2" stroke-miterlimit="8" fill="none" fill-rule="evenodd"/><path d="M602-60.5C602-51.9396 595.284-45 587-45 578.716-45 572-51.9396 572-60.5 572-69.0604 578.716-76 587-76 595.284-76 602-69.0604 602-60.5Z" stroke="#ED7D31" stroke-width="2" stroke-miterlimit="8" fill="none" fill-rule="evenodd"/><path d="M593-129C593-125.686 590.314-123 587-123 583.686-123 581-125.686 581-129 581-132.314 583.686-135 587-135 590.314-135 593-132.314 593-129Z" fill="#ED7D31" fill-rule="evenodd"/><path d="M587-75.3937 587-123" stroke="#ED7D31" stroke-width="2" stroke-miterlimit="8" fill="none" fill-rule="evenodd"/><rect x="753" y="-13" width="47" height="46" stroke="#ED7D31" stroke-width="2" stroke-miterlimit="8" fill="#FFFFFF"/><text fill="#ED7D31" font-family="Cambria Math,Cambria Math_MSFontService,sans-serif" font-weight="400" font-size="32" transform="translate(762.142 21)">𝑇</text><path d="M733 10.5C733 19.0604 726.284 26 718 26 709.716 26 703 19.0604 703 10.5 703 1.93959 709.716-5 718-5 726.284-5 733 1.93959 733 10.5Z" fill="#FFFFFF" fill-rule="evenodd"/><path d="M718 26 718-5M733 10.5 703 10.5" stroke="#ED7D31" stroke-width="2" stroke-miterlimit="8" fill="none" fill-rule="evenodd"/><path d="M733 10.5C733 19.0604 726.284 26 718 26 709.716 26 703 19.0604 703 10.5 703 1.93959 709.716-5 718-5 726.284-5 733 1.93959 733 10.5Z" stroke="#ED7D31" stroke-width="2" stroke-miterlimit="8" fill="none" fill-rule="evenodd"/><path d="M724-60C724-56.6863 721.314-54 718-54 714.686-54 712-56.6863 712-60 712-63.3137 714.686-66 718-66 721.314-66 724-63.3137 724-60Z" fill="#ED7D31" fill-rule="evenodd"/><path d="M0 0 0.000104987 49.7603" stroke="#ED7D31" stroke-width="2" stroke-miterlimit="8" fill="none" fill-rule="evenodd" transform="matrix(-1 1.22465e-16 1.22465e-16 1 718 -54)"/><rect x="626" y="-153" width="47" height="45" stroke="#ED7D31" stroke-width="2" stroke-miterlimit="8" fill="#FFFFFF"/><text fill="#ED7D31" font-family="Cambria Math,Cambria Math_MSFontService,sans-serif" font-weight="400" font-size="32" transform="translate(635.153 -120)">𝑇</text><rect x="932.5" y="-863.5" width="133" height="85" stroke="#5B9BD5" stroke-width="3" stroke-miterlimit="8" fill="#DEEBF7" fill-opacity="0.501961"/><rect x="608.5" y="-996.5" width="306" height="207" stroke="#FFC000" stroke-width="3" stroke-miterlimit="8" fill="#FFF2CC" fill-opacity="0.501961"/><text font-family="Cambria Math,Cambria Math_MSFontService,sans-serif" font-weight="400" font-size="24" transform="translate(288.811 -811)">𝑞<tspan font-size="18" x="12.5334" y="4">2</tspan><tspan font-size="24" x="0.280029" y="-72">𝑞</tspan><tspan font-size="18" x="12.26" y="-67">1</tspan><tspan font-size="24" x="-0.195251" y="-141">𝑞</tspan><tspan font-size="18" x="12.3381" y="-137">0</tspan></text><path d="M327-819 1095.76-819" stroke="#000000" stroke-width="2" stroke-miterlimit="8" fill="none" fill-rule="evenodd"/><path d="M327-890 1095.76-890" stroke="#000000" stroke-width="2" stroke-miterlimit="8" fill="none" fill-rule="evenodd"/><path d="M326-960 1095.05-960" stroke="#000000" stroke-width="2" stroke-miterlimit="8" fill="none" fill-rule="evenodd"/><rect x="464" y="-984" width="48" height="45" stroke="#ED7D31" stroke-width="2" stroke-miterlimit="8" fill="#FFFFFF"/><text fill="#ED7D31" font-family="Cambria Math,Cambria Math_MSFontService,sans-serif" font-weight="400" font-size="32" transform="translate(473.453 -951)">𝑇</text><path d="M654-818.5C654-809.94 647.284-803 639-803 630.716-803 624-809.94 624-818.5 624-827.06 630.716-834 639-834 647.284-834 654-827.06 654-818.5Z" fill="#FFFFFF" fill-rule="evenodd"/><path d="M639-803 639-834M654-818.5 624-818.5" stroke="#ED7D31" stroke-width="2" stroke-miterlimit="8" fill="none" fill-rule="evenodd"/><path d="M654-818.5C654-809.94 647.284-803 639-803 630.716-803 624-809.94 624-818.5 624-827.06 630.716-834 639-834 647.284-834 654-827.06 654-818.5Z" stroke="#ED7D31" stroke-width="2" stroke-miterlimit="8" fill="none" fill-rule="evenodd"/><path d="M645-960C645-956.686 642.314-954 639-954 635.686-954 633-956.686 633-960 633-963.314 635.686-966 639-966 642.314-966 645-963.314 645-960Z" fill="#ED7D31" fill-rule="evenodd"/><path d="M0 0 0.000104987 120.539" stroke="#ED7D31" stroke-width="2" stroke-miterlimit="8" fill="none" fill-rule="evenodd" transform="matrix(-1 1.22465e-16 1.22465e-16 1 639 -954)"/><path d="M407-960C407-968.284 413.716-975 422-975 430.284-975 437-968.284 437-960 437-951.716 430.284-945 422-945 413.716-945 407-951.716 407-960Z" fill="#FFFFFF" fill-rule="evenodd"/><path d="M422-975 422-945M407-960 437-960" stroke="#ED7D31" stroke-width="2" stroke-miterlimit="8" fill="none" fill-rule="evenodd"/><path d="M407-960C407-968.284 413.716-975 422-975 430.284-975 437-968.284 437-960 437-951.716 430.284-945 422-945 413.716-945 407-951.716 407-960Z" stroke="#ED7D31" stroke-width="2" stroke-miterlimit="8" fill="none" fill-rule="evenodd"/><path d="M416-890C416-893.314 418.686-896 422-896 425.314-896 428-893.314 428-890 428-886.686 425.314-884 422-884 418.686-884 416-886.686 416-890Z" fill="#ED7D31" fill-rule="evenodd"/><path d="M0 0 0.000104987 48.4063" stroke="#ED7D31" stroke-width="2" stroke-miterlimit="8" fill="none" fill-rule="evenodd" transform="matrix(1 0 0 -1 422 -896.594)"/><rect x="539" y="-984" width="48" height="45" stroke="#ED7D31" stroke-width="2" stroke-miterlimit="8" fill="#FFFFFF"/><text fill="#ED7D31" font-family="Cambria Math,Cambria Math_MSFontService,sans-serif" font-weight="400" font-size="32" transform="translate(548.7 -951)"><tspan font-size="32" x="7.00006" y="0">𝑇</tspan></text><path d="M681-891C681-899.284 687.716-906 696-906 704.284-906 711-899.284 711-891 711-882.716 704.284-876 696-876 687.716-876 681-882.716 681-891Z" fill="#FFFFFF" fill-rule="evenodd"/><path d="M696-906 696-876M681-891 711-891" stroke="#ED7D31" stroke-width="2" stroke-miterlimit="8" fill="none" fill-rule="evenodd"/><path d="M681-891C681-899.284 687.716-906 696-906 704.284-906 711-899.284 711-891 711-882.716 704.284-876 696-876 687.716-876 681-882.716 681-891Z" stroke="#ED7D31" stroke-width="2" stroke-miterlimit="8" fill="none" fill-rule="evenodd"/><path d="M690-820C690-823.314 692.686-826 696-826 699.314-826 702-823.314 702-820 702-816.686 699.314-814 696-814 692.686-814 690-816.686 690-820Z" fill="#ED7D31" fill-rule="evenodd"/><path d="M0 0 0.000104987 50.1389" stroke="#ED7D31" stroke-width="2" stroke-miterlimit="8" fill="none" fill-rule="evenodd" transform="matrix(-1 0 0 1 696 -876)"/><path d="M733-960C733-968.284 739.716-975 748-975 756.284-975 763-968.284 763-960 763-951.716 756.284-945 748-945 739.716-945 733-951.716 733-960Z" fill="#FFFFFF" fill-rule="evenodd"/><path d="M748-975 748-945M733-960 763-960" stroke="#ED7D31" stroke-width="2" stroke-miterlimit="8" fill="none" fill-rule="evenodd"/><path d="M733-960C733-968.284 739.716-975 748-975 756.284-975 763-968.284 763-960 763-951.716 756.284-945 748-945 739.716-945 733-951.716 733-960Z" stroke="#ED7D31" stroke-width="2" stroke-miterlimit="8" fill="none" fill-rule="evenodd"/><path d="M742-890C742-893.314 744.686-896 748-896 751.314-896 754-893.314 754-890 754-886.686 751.314-884 748-884 744.686-884 742-886.686 742-890Z" fill="#ED7D31" fill-rule="evenodd"/><path d="M0 0 0.000104987 48.4063" stroke="#ED7D31" stroke-width="2" stroke-miterlimit="8" fill="none" fill-rule="evenodd" transform="matrix(1 0 0 -1 748 -896.594)"/><rect x="793" y="-984" width="48" height="46" stroke="#ED7D31" stroke-width="2" stroke-miterlimit="8" fill="#FFFFFF"/><text fill="#ED7D31" font-family="Cambria Math,Cambria Math_MSFontService,sans-serif" font-weight="400" font-size="32" transform="translate(803.04 -950)">𝑇</text><path d="M870-960C870-968.284 876.94-975 885.5-975 894.06-975 901-968.284 901-960 901-951.716 894.06-945 885.5-945 876.94-945 870-951.716 870-960Z" fill="#FFFFFF" fill-rule="evenodd"/><path d="M885.5-975 885.5-945M870-960 901-960" stroke="#ED7D31" stroke-width="2" stroke-miterlimit="8" fill="none" fill-rule="evenodd"/><path d="M870-960C870-968.284 876.94-975 885.5-975 894.06-975 901-968.284 901-960 901-951.716 894.06-945 885.5-945 876.94-945 870-951.716 870-960Z" stroke="#ED7D31" stroke-width="2" stroke-miterlimit="8" fill="none" fill-rule="evenodd"/><path d="M880-820C880-823.314 882.686-826 886-826 889.314-826 892-823.314 892-820 892-816.686 889.314-814 886-814 882.686-814 880-816.686 880-820Z" fill="#ED7D31" fill-rule="evenodd"/><path d="M0 0 0.000104987 119.36" stroke="#ED7D31" stroke-width="2" stroke-miterlimit="8" fill="none" fill-rule="evenodd" transform="matrix(1 0 0 -1 886 -825.64)"/><path d="M797.5-775.5 797.5-747.5 810.5-747.5 784.5-721.5 758.5-747.5 771.5-747.5 771.5-775.5Z" stroke="#FFC000" stroke-width="3" stroke-miterlimit="8" fill="#FFF2CC" fill-rule="evenodd"/><rect x="340" y="-982" width="48" height="45" stroke="#ED7D31" stroke-width="2" stroke-miterlimit="8" fill="#FFFFFF"/><text fill="#ED7D31" font-family="Cambria Math,Cambria Math_MSFontService,sans-serif" font-weight="400" font-size="32" transform="translate(349.634 -949)">𝑇</text><rect x="930" y="-983" width="48" height="46" stroke="#ED7D31" stroke-width="2" stroke-miterlimit="8" fill="#FFFFFF"/><text fill="#ED7D31" font-family="Cambria Math,Cambria Math_MSFontService,sans-serif" font-weight="400" font-size="32" transform="translate(939.67 -949)">𝑇<tspan font-size="23" x="20.7133" y="-11">†</tspan></text><path d="M542.25-506.5 542.25-479 555.5-479 529-452.5 502.5-479 515.75-479 515.75-506.5Z" stroke="#70AD47" stroke-width="3" stroke-miterlimit="8" fill="#E2F0D9" fill-rule="evenodd"/><rect x="610.5" y="-698.5" width="299" height="196" stroke="#FFC000" stroke-width="3" stroke-miterlimit="8" fill="#FFF2CC" fill-opacity="0.501961"/><rect x="403.5" y="-712.5" width="271" height="127" stroke="#70AD47" stroke-width="3" stroke-miterlimit="8" fill="#E2F0D9" fill-opacity="0.501961"/><text font-family="Cambria Math,Cambria Math_MSFontService,sans-serif" font-weight="400" font-size="24" transform="translate(288.811 -526)">𝑞<tspan font-size="18" x="12.5334" y="4">2</tspan><tspan font-size="24" x="0.280029" y="-72">𝑞</tspan><tspan font-size="18" x="12.26" y="-67">1</tspan><tspan font-size="24" x="-0.195251" y="-141">𝑞</tspan><tspan font-size="18" x="12.3381" y="-137">0</tspan></text><path d="M327-534 1095.38-534" stroke="#000000" stroke-width="2" stroke-miterlimit="8" fill="none" fill-rule="evenodd"/><path d="M327-605 1095.38-605" stroke="#000000" stroke-width="2" stroke-miterlimit="8" fill="none" fill-rule="evenodd"/><path d="M326-675 1094.67-675" stroke="#000000" stroke-width="2" stroke-miterlimit="8" fill="none" fill-rule="evenodd"/><rect x="479" y="-699" width="47" height="45" stroke="#ED7D31" stroke-width="2" stroke-miterlimit="8" fill="#FFFFFF"/><text fill="#ED7D31" font-family="Cambria Math,Cambria Math_MSFontService,sans-serif" font-weight="400" font-size="32" transform="translate(488.222 -666)">𝑇</text><path d="M863-605C863-613.284 869.716-620 878-620 886.284-620 893-613.284 893-605 893-596.716 886.284-590 878-590 869.716-590 863-596.716 863-605Z" fill="#FFFFFF" fill-rule="evenodd"/><path d="M878-620 878-590M863-605 893-605" stroke="#ED7D31" stroke-width="2" stroke-miterlimit="8" fill="none" fill-rule="evenodd"/><path d="M863-605C863-613.284 869.716-620 878-620 886.284-620 893-613.284 893-605 893-596.716 886.284-590 878-590 869.716-590 863-596.716 863-605Z" stroke="#ED7D31" stroke-width="2" stroke-miterlimit="8" fill="none" fill-rule="evenodd"/><path d="M872-533C872-536.314 874.686-539 878-539 881.314-539 884-536.314 884-533 884-529.686 881.314-527 878-527 874.686-527 872-529.686 872-533Z" fill="#ED7D31" fill-rule="evenodd"/><path d="M0 0 0.000104987 50.1389" stroke="#ED7D31" stroke-width="2" stroke-miterlimit="8" fill="none" fill-rule="evenodd" transform="matrix(-1 0 0 1 878 -590)"/><path d="M422-675C422-683.284 428.716-690 437-690 445.284-690 452-683.284 452-675 452-666.716 445.284-660 437-660 428.716-660 422-666.716 422-675Z" fill="#FFFFFF" fill-rule="evenodd"/><path d="M437-690 437-660M422-675 452-675" stroke="#ED7D31" stroke-width="2" stroke-miterlimit="8" fill="none" fill-rule="evenodd"/><path d="M422-675C422-683.284 428.716-690 437-690 445.284-690 452-683.284 452-675 452-666.716 445.284-660 437-660 428.716-660 422-666.716 422-675Z" stroke="#ED7D31" stroke-width="2" stroke-miterlimit="8" fill="none" fill-rule="evenodd"/><path d="M431-604C431-607.314 433.686-610 437-610 440.314-610 443-607.314 443-604 443-600.686 440.314-598 437-598 433.686-598 431-600.686 431-604Z" fill="#ED7D31" fill-rule="evenodd"/><path d="M0 0 0.000104987 49.2063" stroke="#ED7D31" stroke-width="2" stroke-miterlimit="8" fill="none" fill-rule="evenodd" transform="matrix(1 0 0 -1 437 -610.794)"/><rect x="554" y="-699" width="48" height="45" stroke="#ED7D31" stroke-width="2" stroke-miterlimit="8" fill="#FFFFFF"/><text fill="#ED7D31" font-family="Cambria Math,Cambria Math_MSFontService,sans-serif" font-weight="400" font-size="32" transform="translate(563.469 -666)">𝑇</text><path d="M842-533.5C842-524.94 835.284-518 827-518 818.716-518 812-524.94 812-533.5 812-542.06 818.716-549 827-549 835.284-549 842-542.06 842-533.5Z" fill="#FFFFFF" fill-rule="evenodd"/><path d="M827-518 827-549M842-533.5 812-533.5" stroke="#ED7D31" stroke-width="2" stroke-miterlimit="8" fill="none" fill-rule="evenodd"/><path d="M842-533.5C842-524.94 835.284-518 827-518 818.716-518 812-524.94 812-533.5 812-542.06 818.716-549 827-549 835.284-549 842-542.06 842-533.5Z" stroke="#ED7D31" stroke-width="2" stroke-miterlimit="8" fill="none" fill-rule="evenodd"/><path d="M833-676C833-672.686 830.314-670 827-670 823.686-670 821-672.686 821-676 821-679.314 823.686-682 827-682 830.314-682 833-679.314 833-676Z" fill="#ED7D31" fill-rule="evenodd"/><path d="M0 0 0.000104987 121.339" stroke="#ED7D31" stroke-width="2" stroke-miterlimit="8" fill="none" fill-rule="evenodd" transform="matrix(-1 1.22465e-16 1.22465e-16 1 827 -670)"/><rect x="929" y="-698" width="47" height="46" stroke="#ED7D31" stroke-width="2" stroke-miterlimit="8" fill="#FFFFFF"/><text fill="#ED7D31" font-family="Cambria Math,Cambria Math_MSFontService,sans-serif" font-weight="400" font-size="32" transform="translate(938.164 -664)">𝑇<tspan font-size="23" x="20.7134" y="-12">†</tspan></text><path d="M632-675C632-683.284 638.716-690 647-690 655.284-690 662-683.284 662-675 662-666.716 655.284-660 647-660 638.716-660 632-666.716 632-675Z" fill="#FFFFFF" fill-rule="evenodd"/><path d="M647-690 647-660M632-675 662-675" stroke="#ED7D31" stroke-width="2" stroke-miterlimit="8" fill="none" fill-rule="evenodd"/><path d="M632-675C632-683.284 638.716-690 647-690 655.284-690 662-683.284 662-675 662-666.716 655.284-660 647-660 638.716-660 632-666.716 632-675Z" stroke="#ED7D31" stroke-width="2" stroke-miterlimit="8" fill="none" fill-rule="evenodd"/><path d="M641-604C641-607.314 643.686-610 647-610 650.314-610 653-607.314 653-604 653-600.686 650.314-598 647-598 643.686-598 641-600.686 641-604Z" fill="#ED7D31" fill-rule="evenodd"/><path d="M0 0 0.000104987 49.2063" stroke="#ED7D31" stroke-width="2" stroke-miterlimit="8" fill="none" fill-rule="evenodd" transform="matrix(1 0 0 -1 647 -610.794)"/><rect x="740" y="-556" width="48" height="45" stroke="#ED7D31" stroke-width="2" stroke-miterlimit="8" fill="#FFFFFF"/><text fill="#ED7D31" font-family="Cambria Math,Cambria Math_MSFontService,sans-serif" font-weight="400" font-size="32" transform="translate(749.424 -522)">𝑇</text><path d="M716-534C716-525.716 709.284-519 701-519 692.716-519 686-525.716 686-534 686-542.284 692.716-549 701-549 709.284-549 716-542.284 716-534Z" fill="#FFFFFF" fill-rule="evenodd"/><path d="M701-519 701-549M716-534 686-534" stroke="#ED7D31" stroke-width="2" stroke-miterlimit="8" fill="none" fill-rule="evenodd"/><path d="M716-534C716-525.716 709.284-519 701-519 692.716-519 686-525.716 686-534 686-542.284 692.716-549 701-549 709.284-549 716-542.284 716-534Z" stroke="#ED7D31" stroke-width="2" stroke-miterlimit="8" fill="none" fill-rule="evenodd"/><path d="M707-605C707-601.686 704.314-599 701-599 697.686-599 695-601.686 695-605 695-608.314 697.686-611 701-611 704.314-611 707-608.314 707-605Z" fill="#ED7D31" fill-rule="evenodd"/><path d="M0 0 0.000104987 49.7603" stroke="#ED7D31" stroke-width="2" stroke-miterlimit="8" fill="none" fill-rule="evenodd" transform="matrix(-1 1.22465e-16 1.22465e-16 1 701 -599)"/><rect x="340" y="-698" width="48" height="46" stroke="#ED7D31" stroke-width="2" stroke-miterlimit="8" fill="#FFFFFF"/><text fill="#ED7D31" font-family="Cambria Math,Cambria Math_MSFontService,sans-serif" font-weight="400" font-size="32" transform="translate(350.089 -664)">𝑇</text><rect x="656.5" y="-1286.5" width="310" height="205" stroke="#70AD47" stroke-width="3" stroke-miterlimit="8" fill="#E2F0D9" fill-opacity="0.501961"/><rect x="632.5" y="-1576.5" width="310" height="204" stroke="#70AD47" stroke-width="3" stroke-miterlimit="8" fill="#E2F0D9" fill-opacity="0.501961"/><path d="M806.5-1355.5 806.5-1328.5 819.5-1328.5 793.5-1302.5 767.5-1328.5 780.5-1328.5 780.5-1355.5Z" stroke="#70AD47" stroke-width="3" stroke-miterlimit="8" fill="#E2F0D9" fill-rule="evenodd"/><text font-family="Cambria Math,Cambria Math_MSFontService,sans-serif" font-weight="400" font-size="24" transform="translate(288.884 -1396)">𝑞<tspan font-size="18" x="12.5333" y="5">2</tspan><tspan font-size="24" x="0.279999" y="-71">𝑞</tspan><tspan font-size="18" x="12.26" y="-66">1</tspan><tspan font-size="24" x="-0.195282" y="-141">𝑞</tspan><tspan font-size="18" x="12.338" y="-136">0</tspan></text><path d="M327-1403 1095.13-1403" stroke="#000000" stroke-width="2" stroke-miterlimit="8" fill="none" fill-rule="evenodd"/><path d="M327-1474 1095.13-1474" stroke="#000000" stroke-width="2" stroke-miterlimit="8" fill="none" fill-rule="evenodd"/><path d="M326-1544 1094.42-1544" stroke="#000000" stroke-width="2" stroke-miterlimit="8" fill="none" fill-rule="evenodd"/><rect x="459" y="-1569" width="47" height="46" stroke="#ED7D31" stroke-width="2" stroke-miterlimit="8" fill="#FFFFFF"/><text fill="#ED7D31" font-family="Cambria Math,Cambria Math_MSFontService,sans-serif" font-weight="400" font-size="32" transform="translate(468.331 -1535)">𝑇</text><path d="M626-1404C626-1395.72 619.284-1389 611-1389 602.716-1389 596-1395.72 596-1404 596-1412.28 602.716-1419 611-1419 619.284-1419 626-1412.28 626-1404Z" fill="#FFFFFF" fill-rule="evenodd"/><path d="M611-1389 611-1419M626-1404 596-1404" stroke="#ED7D31" stroke-width="2" stroke-miterlimit="8" fill="none" fill-rule="evenodd"/><path d="M626-1404C626-1395.72 619.284-1389 611-1389 602.716-1389 596-1395.72 596-1404 596-1412.28 602.716-1419 611-1419 619.284-1419 626-1412.28 626-1404Z" stroke="#ED7D31" stroke-width="2" stroke-miterlimit="8" fill="none" fill-rule="evenodd"/><path d="M617-1546C617-1542.69 614.314-1540 611-1540 607.686-1540 605-1542.69 605-1546 605-1549.31 607.686-1552 611-1552 614.314-1552 617-1549.31 617-1546Z" fill="#ED7D31" fill-rule="evenodd"/><path d="M0 0 0.000104987 121.179" stroke="#ED7D31" stroke-width="2" stroke-miterlimit="8" fill="none" fill-rule="evenodd" transform="matrix(-1 1.22465e-16 1.22465e-16 1 611 -1540)"/><path d="M407-1544C407-1552.28 413.716-1559 422-1559 430.284-1559 437-1552.28 437-1544 437-1535.72 430.284-1529 422-1529 413.716-1529 407-1535.72 407-1544Z" fill="#FFFFFF" fill-rule="evenodd"/><path d="M422-1559 422-1529M407-1544 437-1544" stroke="#ED7D31" stroke-width="2" stroke-miterlimit="8" fill="none" fill-rule="evenodd"/><path d="M407-1544C407-1552.28 413.716-1559 422-1559 430.284-1559 437-1552.28 437-1544 437-1535.72 430.284-1529 422-1529 413.716-1529 407-1535.72 407-1544Z" stroke="#ED7D31" stroke-width="2" stroke-miterlimit="8" fill="none" fill-rule="evenodd"/><path d="M416-1474C416-1477.31 418.686-1480 422-1480 425.314-1480 428-1477.31 428-1474 428-1470.69 425.314-1468 422-1468 418.686-1468 416-1470.69 416-1474Z" fill="#ED7D31" fill-rule="evenodd"/><path d="M0 0 0.288924 49.2572" stroke="#ED7D31" stroke-width="2" stroke-miterlimit="8" fill="none" fill-rule="evenodd" transform="matrix(1 0 0 -1 422 -1479.74)"/><rect x="534" y="-1569" width="48" height="46" stroke="#ED7D31" stroke-width="2" stroke-miterlimit="8" fill="#FFFFFF"/><text fill="#ED7D31" font-family="Cambria Math,Cambria Math_MSFontService,sans-serif" font-weight="400" font-size="32" transform="translate(543.578 -1535)">𝑇</text><path d="M710-1474C710-1482.28 716.94-1489 725.5-1489 734.06-1489 741-1482.28 741-1474 741-1465.72 734.06-1459 725.5-1459 716.94-1459 710-1465.72 710-1474Z" fill="#FFFFFF" fill-rule="evenodd"/><path d="M725.5-1489 725.5-1459M710-1474 741-1474" stroke="#ED7D31" stroke-width="2" stroke-miterlimit="8" fill="none" fill-rule="evenodd"/><path d="M710-1474C710-1482.28 716.94-1489 725.5-1489 734.06-1489 741-1482.28 741-1474 741-1465.72 734.06-1459 725.5-1459 716.94-1459 710-1465.72 710-1474Z" stroke="#ED7D31" stroke-width="2" stroke-miterlimit="8" fill="none" fill-rule="evenodd"/><path d="M719-1403C719-1406.31 721.686-1409 725-1409 728.314-1409 731-1406.31 731-1403 731-1399.69 728.314-1397 725-1397 721.686-1397 719-1399.69 719-1403Z" fill="#ED7D31" fill-rule="evenodd"/><path d="M0 0 0.000104987 50.1389" stroke="#ED7D31" stroke-width="2" stroke-miterlimit="8" fill="none" fill-rule="evenodd" transform="matrix(-1 0 0 1 725 -1459)"/><rect x="950" y="-1566" width="48" height="46" stroke="#ED7D31" stroke-width="2" stroke-miterlimit="8" fill="#FFFFFF"/><text fill="#ED7D31" font-family="Cambria Math,Cambria Math_MSFontService,sans-serif" font-weight="400" font-size="32" transform="translate(959.794 -1532)">𝑇<tspan font-size="23" x="20.7133" y="-11">†</tspan></text><path d="M762-1544C762-1552.28 768.716-1559 777-1559 785.284-1559 792-1552.28 792-1544 792-1535.72 785.284-1529 777-1529 768.716-1529 762-1535.72 762-1544Z" fill="#FFFFFF" fill-rule="evenodd"/><path d="M777-1559 777-1529M762-1544 792-1544" stroke="#ED7D31" stroke-width="2" stroke-miterlimit="8" fill="none" fill-rule="evenodd"/><path d="M762-1544C762-1552.28 768.716-1559 777-1559 785.284-1559 792-1552.28 792-1544 792-1535.72 785.284-1529 777-1529 768.716-1529 762-1535.72 762-1544Z" stroke="#ED7D31" stroke-width="2" stroke-miterlimit="8" fill="none" fill-rule="evenodd"/><path d="M771-1473C771-1476.31 773.686-1479 777-1479 780.314-1479 783-1476.31 783-1473 783-1469.69 780.314-1467 777-1467 773.686-1467 771-1469.69 771-1473Z" fill="#ED7D31" fill-rule="evenodd"/><path d="M0 0 0.000104987 50.0063" stroke="#ED7D31" stroke-width="2" stroke-miterlimit="8" fill="none" fill-rule="evenodd" transform="matrix(1 0 0 -1 777 -1478.99)"/><rect x="819" y="-1568" width="48" height="45" stroke="#ED7D31" stroke-width="2" stroke-miterlimit="8" fill="#FFFFFF"/><text fill="#ED7D31" font-family="Cambria Math,Cambria Math_MSFontService,sans-serif" font-weight="400" font-size="32" transform="translate(829.057 -1534)">𝑇</text><path d="M894-1544C894-1552.28 900.716-1559 909-1559 917.284-1559 924-1552.28 924-1544 924-1535.72 917.284-1529 909-1529 900.716-1529 894-1535.72 894-1544Z" fill="#FFFFFF" fill-rule="evenodd"/><path d="M909-1559 909-1529M894-1544 924-1544" stroke="#ED7D31" stroke-width="2" stroke-miterlimit="8" fill="none" fill-rule="evenodd"/><path d="M894-1544C894-1552.28 900.716-1559 909-1559 917.284-1559 924-1552.28 924-1544 924-1535.72 917.284-1529 909-1529 900.716-1529 894-1535.72 894-1544Z" stroke="#ED7D31" stroke-width="2" stroke-miterlimit="8" fill="none" fill-rule="evenodd"/><path d="M903-1403C903-1406.31 905.686-1409 909-1409 912.314-1409 915-1406.31 915-1403 915-1399.69 912.314-1397 909-1397 905.686-1397 903-1399.69 903-1403Z" fill="#ED7D31" fill-rule="evenodd"/><path d="M0 0 0.000104987 120.16" stroke="#ED7D31" stroke-width="2" stroke-miterlimit="8" fill="none" fill-rule="evenodd" transform="matrix(1 0 0 -1 909 -1408.84)"/><rect x="340" y="-1568" width="47" height="45" stroke="#ED7D31" stroke-width="2" stroke-miterlimit="8" fill="#FFFFFF"/><text fill="#ED7D31" font-family="Cambria Math,Cambria Math_MSFontService,sans-serif" font-weight="400" font-size="32" transform="translate(349.165 -1534)">𝑇</text><rect x="649" y="-1426" width="48" height="45" stroke="#ED7D31" stroke-width="2" stroke-miterlimit="8" fill="#FFFFFF"/><text fill="#ED7D31" font-family="Cambria Math,Cambria Math_MSFontService,sans-serif" font-weight="400" font-size="32" transform="translate(658.453 -1392)">𝑇<tspan font-size="23" x="20.7133" y="-12">†</tspan></text><rect x="950" y="-1426" width="47" height="46" stroke="#ED7D31" stroke-width="2" stroke-miterlimit="8" fill="#FFFFFF"/><text fill="#ED7D31" font-family="Cambria Math,Cambria Math_MSFontService,sans-serif" font-weight="400" font-size="32" transform="translate(959.253 -1392)">𝑇</text><rect x="894.5" y="-1153.5" width="143" height="88" stroke="#5B9BD5" stroke-width="3" stroke-miterlimit="8" fill="#DEEBF7" fill-opacity="0.501961"/><text font-family="Cambria Math,Cambria Math_MSFontService,sans-serif" font-weight="400" font-size="24" transform="translate(288.811 -1107)">𝑞<tspan font-size="18" x="12.5334" y="4">2</tspan><tspan font-size="24" x="0.280029" y="-72">𝑞</tspan><tspan font-size="18" x="12.26" y="-67">1</tspan><tspan font-size="24" x="-0.195251" y="-141">𝑞</tspan><tspan font-size="18" x="12.3381" y="-136">0</tspan></text><path d="M327-1115 1095.3-1115" stroke="#000000" stroke-width="2" stroke-miterlimit="8" fill="none" fill-rule="evenodd"/><path d="M327-1186 1095.3-1186" stroke="#000000" stroke-width="2" stroke-miterlimit="8" fill="none" fill-rule="evenodd"/><path d="M326-1256 1094.58-1256" stroke="#000000" stroke-width="2" stroke-miterlimit="8" fill="none" fill-rule="evenodd"/><rect x="464" y="-1280" width="48" height="45" stroke="#ED7D31" stroke-width="2" stroke-miterlimit="8" fill="#FFFFFF"/><text fill="#ED7D31" font-family="Cambria Math,Cambria Math_MSFontService,sans-serif" font-weight="400" font-size="32" transform="translate(473.453 -1247)">𝑇</text><path d="M647-1114.5C647-1105.94 640.284-1099 632-1099 623.716-1099 617-1105.94 617-1114.5 617-1123.06 623.716-1130 632-1130 640.284-1130 647-1123.06 647-1114.5Z" fill="#FFFFFF" fill-rule="evenodd"/><path d="M632-1099 632-1130M647-1114.5 617-1114.5" stroke="#ED7D31" stroke-width="2" stroke-miterlimit="8" fill="none" fill-rule="evenodd"/><path d="M647-1114.5C647-1105.94 640.284-1099 632-1099 623.716-1099 617-1105.94 617-1114.5 617-1123.06 623.716-1130 632-1130 640.284-1130 647-1123.06 647-1114.5Z" stroke="#ED7D31" stroke-width="2" stroke-miterlimit="8" fill="none" fill-rule="evenodd"/><path d="M638-1258C638-1254.69 635.314-1252 632-1252 628.686-1252 626-1254.69 626-1258 626-1261.31 628.686-1264 632-1264 635.314-1264 638-1261.31 638-1258Z" fill="#ED7D31" fill-rule="evenodd"/><path d="M0 0 0.000104987 122.139" stroke="#ED7D31" stroke-width="2" stroke-miterlimit="8" fill="none" fill-rule="evenodd" transform="matrix(-1 1.22465e-16 1.22465e-16 1 632 -1252)"/><path d="M407-1256C407-1264.28 413.716-1271 422-1271 430.284-1271 437-1264.28 437-1256 437-1247.72 430.284-1241 422-1241 413.716-1241 407-1247.72 407-1256Z" fill="#FFFFFF" fill-rule="evenodd"/><path d="M422-1271 422-1241M407-1256 437-1256" stroke="#ED7D31" stroke-width="2" stroke-miterlimit="8" fill="none" fill-rule="evenodd"/><path d="M407-1256C407-1264.28 413.716-1271 422-1271 430.284-1271 437-1264.28 437-1256 437-1247.72 430.284-1241 422-1241 413.716-1241 407-1247.72 407-1256Z" stroke="#ED7D31" stroke-width="2" stroke-miterlimit="8" fill="none" fill-rule="evenodd"/><path d="M416-1186C416-1189.31 418.686-1192 422-1192 425.314-1192 428-1189.31 428-1186 428-1182.69 425.314-1180 422-1180 418.686-1180 416-1182.69 416-1186Z" fill="#ED7D31" fill-rule="evenodd"/><path d="M0 0 0.000104987 48.4063" stroke="#ED7D31" stroke-width="2" stroke-miterlimit="8" fill="none" fill-rule="evenodd" transform="matrix(1 0 0 -1 422 -1192.59)"/><rect x="539" y="-1280" width="48" height="45" stroke="#ED7D31" stroke-width="2" stroke-miterlimit="8" fill="#FFFFFF"/><text fill="#ED7D31" font-family="Cambria Math,Cambria Math_MSFontService,sans-serif" font-weight="400" font-size="32" transform="translate(548.7 -1247)"><tspan font-size="32" x="7.00006" y="0">𝑇</tspan></text><path d="M675-1187C675-1195.28 681.716-1202 690-1202 698.284-1202 705-1195.28 705-1187 705-1178.72 698.284-1172 690-1172 681.716-1172 675-1178.72 675-1187Z" fill="#FFFFFF" fill-rule="evenodd"/><path d="M690-1202 690-1172M675-1187 705-1187" stroke="#ED7D31" stroke-width="2" stroke-miterlimit="8" fill="none" fill-rule="evenodd"/><path d="M675-1187C675-1195.28 681.716-1202 690-1202 698.284-1202 705-1195.28 705-1187 705-1178.72 698.284-1172 690-1172 681.716-1172 675-1178.72 675-1187Z" stroke="#ED7D31" stroke-width="2" stroke-miterlimit="8" fill="none" fill-rule="evenodd"/><path d="M684-1116C684-1119.31 686.686-1122 690-1122 693.314-1122 696-1119.31 696-1116 696-1112.69 693.314-1110 690-1110 686.686-1110 684-1112.69 684-1116Z" fill="#ED7D31" fill-rule="evenodd"/><path d="M0 0 0.000104987 50.1389" stroke="#ED7D31" stroke-width="2" stroke-miterlimit="8" fill="none" fill-rule="evenodd" transform="matrix(-1 0 0 1 690 -1172)"/><rect x="904" y="-1137" width="48" height="45" stroke="#ED7D31" stroke-width="2" stroke-miterlimit="8" fill="#FFFFFF"/><text fill="#ED7D31" font-family="Cambria Math,Cambria Math_MSFontService,sans-serif" font-weight="400" font-size="32" transform="translate(914.062 -1104)">𝑇<tspan font-size="23" x="20.7134" y="-11">†</tspan></text><path d="M726-1256C726-1264.28 732.94-1271 741.5-1271 750.06-1271 757-1264.28 757-1256 757-1247.72 750.06-1241 741.5-1241 732.94-1241 726-1247.72 726-1256Z" fill="#FFFFFF" fill-rule="evenodd"/><path d="M741.5-1271 741.5-1241M726-1256 757-1256" stroke="#ED7D31" stroke-width="2" stroke-miterlimit="8" fill="none" fill-rule="evenodd"/><path d="M726-1256C726-1264.28 732.94-1271 741.5-1271 750.06-1271 757-1264.28 757-1256 757-1247.72 750.06-1241 741.5-1241 732.94-1241 726-1247.72 726-1256Z" stroke="#ED7D31" stroke-width="2" stroke-miterlimit="8" fill="none" fill-rule="evenodd"/><path d="M736-1186C736-1189.31 738.686-1192 742-1192 745.314-1192 748-1189.31 748-1186 748-1182.69 745.314-1180 742-1180 738.686-1180 736-1182.69 736-1186Z" fill="#ED7D31" fill-rule="evenodd"/><path d="M0 0 0.000104987 48.4063" stroke="#ED7D31" stroke-width="2" stroke-miterlimit="8" fill="none" fill-rule="evenodd" transform="matrix(1 0 0 -1 742 -1192.59)"/><rect x="787" y="-1280" width="48" height="46" stroke="#ED7D31" stroke-width="2" stroke-miterlimit="8" fill="#FFFFFF"/><text fill="#ED7D31" font-family="Cambria Math,Cambria Math_MSFontService,sans-serif" font-weight="400" font-size="32" transform="translate(796.579 -1246)">𝑇</text><path d="M864-1256C864-1264.28 870.716-1271 879-1271 887.284-1271 894-1264.28 894-1256 894-1247.72 887.284-1241 879-1241 870.716-1241 864-1247.72 864-1256Z" fill="#FFFFFF" fill-rule="evenodd"/><path d="M879-1271 879-1241M864-1256 894-1256" stroke="#ED7D31" stroke-width="2" stroke-miterlimit="8" fill="none" fill-rule="evenodd"/><path d="M864-1256C864-1264.28 870.716-1271 879-1271 887.284-1271 894-1264.28 894-1256 894-1247.72 887.284-1241 879-1241 870.716-1241 864-1247.72 864-1256Z" stroke="#ED7D31" stroke-width="2" stroke-miterlimit="8" fill="none" fill-rule="evenodd"/><path d="M873-1116C873-1119.31 875.686-1122 879-1122 882.314-1122 885-1119.31 885-1116 885-1112.69 882.314-1110 879-1110 875.686-1110 873-1112.69 873-1116Z" fill="#ED7D31" fill-rule="evenodd"/><path d="M0 0 0.000104987 119.36" stroke="#ED7D31" stroke-width="2" stroke-miterlimit="8" fill="none" fill-rule="evenodd" transform="matrix(1 0 0 -1 879 -1121.64)"/><path d="M979.25-1055.5 979.25-1029 992.5-1029 966-1002.5 939.5-1029 952.75-1029 952.75-1055.5Z" stroke="#5B9BD5" stroke-width="3" stroke-miterlimit="8" fill="#DEEBF7" fill-rule="evenodd"/><rect x="340" y="-1278" width="48" height="45" stroke="#ED7D31" stroke-width="2" stroke-miterlimit="8" fill="#FFFFFF"/><text fill="#ED7D31" font-family="Cambria Math,Cambria Math_MSFontService,sans-serif" font-weight="400" font-size="32" transform="translate(349.634 -1245)">𝑇</text><rect x="980" y="-1137" width="48" height="45" stroke="#ED7D31" stroke-width="2" stroke-miterlimit="8" fill="#FFFFFF"/><text fill="#ED7D31" font-family="Cambria Math,Cambria Math_MSFontService,sans-serif" font-weight="400" font-size="32" transform="translate(989.805 -1104)">𝑇</text><rect x="980" y="-1280" width="48" height="46" stroke="#ED7D31" stroke-width="2" stroke-miterlimit="8" fill="#FFFFFF"/><text fill="#ED7D31" font-family="Cambria Math,Cambria Math_MSFontService,sans-serif" font-weight="400" font-size="32" transform="translate(989.805 -1246)">𝑇<tspan font-size="23" x="20.7133" y="-11">†</tspan></text></g></svg>