<svg width="822" height="1979" xmlns="http://www.w3.org/2000/svg" xmlns:xlink="http://www.w3.org/1999/xlink" overflow="hidden"><defs><clipPath id="clip0"><rect x="279" y="-1379" width="822" height="1979"/></clipPath></defs><g clip-path="url(#clip0)" transform="translate(-279 1379)"><rect x="848.5" y="406.5" width="84" height="60" stroke="#70AD47" stroke-width="3" stroke-miterlimit="8" fill="#E2F0D9" fill-opacity="0.501961"/><text font-family="Cambria Math,Cambria Math_MSFontService,sans-serif" font-weight="400" font-size="24" transform="translate(293.553 584)">𝑞<tspan font-size="18" x="12.5333" y="5">2</tspan><tspan font-size="24" x="0.279999" y="-71">𝑞</tspan><tspan font-size="18" x="12.26" y="-66">1</tspan><tspan font-size="24" x="-0.195282" y="-141">𝑞</tspan><tspan font-size="18" x="12.3381" y="-136">0</tspan></text><path d="M331 577 1093.76 577" stroke="#000000" stroke-width="2" stroke-miterlimit="8" fill="none" fill-rule="evenodd"/><path d="M331 506 1093.76 506" stroke="#000000" stroke-width="2" stroke-miterlimit="8" fill="none" fill-rule="evenodd"/><path d="M331 436 1094.05 436" stroke="#000000" stroke-width="2" stroke-miterlimit="8" fill="none" fill-rule="evenodd"/><rect x="420" y="483" width="48" height="46" stroke="#ED7D31" stroke-width="2" stroke-miterlimit="8" fill="#FFFFFF"/><text fill="#ED7D31" font-family="Cambria Math,Cambria Math_MSFontService,sans-serif" font-weight="400" font-size="32" transform="translate(430.024 517)">𝑇</text><path d="M834 505.5C834 496.94 840.716 490 849 490 857.284 490 864 496.94 864 505.5 864 514.06 857.284 521 849 521 840.716 521 834 514.06 834 505.5Z" fill="#FFFFFF" fill-rule="evenodd"/><path d="M849 490 849 521M834 505.5 864 505.5" stroke="#ED7D31" stroke-width="2" stroke-miterlimit="8" fill="none" fill-rule="evenodd"/><path d="M834 505.5C834 496.94 840.716 490 849 490 857.284 490 864 496.94 864 505.5 864 514.06 857.284 521 849 521 840.716 521 834 514.06 834 505.5Z" stroke="#ED7D31" stroke-width="2" stroke-miterlimit="8" fill="none" fill-rule="evenodd"/><path d="M843 577C843 573.686 845.686 571 849 571 852.314 571 855 573.686 855 577 855 580.314 852.314 583 849 583 845.686 583 843 580.314 843 577Z" fill="#ED7D31" fill-rule="evenodd"/><path d="M0 0 0.000104987 50.1389" stroke="#ED7D31" stroke-width="2" stroke-miterlimit="8" fill="none" fill-rule="evenodd" transform="matrix(-1 0 0 1 849 521)"/><path d="M384 505C384 513.284 377.284 520 369 520 360.716 520 354 513.284 354 505 354 496.716 360.716 490 369 490 377.284 490 384 496.716 384 505Z" fill="#FFFFFF" fill-rule="evenodd"/><path d="M369 520 369 490M384 505 354 505" stroke="#ED7D31" stroke-width="2" stroke-miterlimit="8" fill="none" fill-rule="evenodd"/><path d="M384 505C384 513.284 377.284 520 369 520 360.716 520 354 513.284 354 505 354 496.716 360.716 490 369 490 377.284 490 384 496.716 384 505Z" stroke="#ED7D31" stroke-width="2" stroke-miterlimit="8" fill="none" fill-rule="evenodd"/><path d="M375 436C375 439.314 372.314 442 369 442 365.686 442 363 439.314 363 436 363 432.686 365.686 430 369 430 372.314 430 375 432.686 375 436Z" fill="#ED7D31" fill-rule="evenodd"/><path d="M369 490.406 369 442" stroke="#ED7D31" stroke-width="2" stroke-miterlimit="8" fill="none" fill-rule="evenodd"/><rect x="498" y="483" width="48" height="45" stroke="#ED7D31" stroke-width="2" stroke-miterlimit="8" fill="#FFFFFF"/><text fill="#ED7D31" font-family="Cambria Math,Cambria Math_MSFontService,sans-serif" font-weight="400" font-size="32" transform="translate(507.657 516)">𝑇</text><path d="M794 577C794 585.284 787.284 592 779 592 770.716 592 764 585.284 764 577 764 568.716 770.716 562 779 562 787.284 562 794 568.716 794 577Z" fill="#FFFFFF" fill-rule="evenodd"/><path d="M779 592 779 562M794 577 764 577" stroke="#ED7D31" stroke-width="2" stroke-miterlimit="8" fill="none" fill-rule="evenodd"/><path d="M794 577C794 585.284 787.284 592 779 592 770.716 592 764 585.284 764 577 764 568.716 770.716 562 779 562 787.284 562 794 568.716 794 577Z" stroke="#ED7D31" stroke-width="2" stroke-miterlimit="8" fill="none" fill-rule="evenodd"/><path d="M785 436.5C785 439.538 782.314 442 779 442 775.686 442 773 439.538 773 436.5 773 433.462 775.686 431 779 431 782.314 431 785 433.462 785 436.5Z" fill="#ED7D31" fill-rule="evenodd"/><path d="M0 0 0.000104987 120.018" stroke="#ED7D31" stroke-width="2" stroke-miterlimit="8" fill="none" fill-rule="evenodd" transform="matrix(-1 1.22465e-16 1.22465e-16 1 779 442)"/><path d="M611 505.5C611 514.06 604.284 521 596 521 587.716 521 581 514.06 581 505.5 581 496.94 587.716 490 596 490 604.284 490 611 496.94 611 505.5Z" fill="#FFFFFF" fill-rule="evenodd"/><path d="M596 521 596 490M611 505.5 581 505.5" stroke="#ED7D31" stroke-width="2" stroke-miterlimit="8" fill="none" fill-rule="evenodd"/><path d="M611 505.5C611 514.06 604.284 521 596 521 587.716 521 581 514.06 581 505.5 581 496.94 587.716 490 596 490 604.284 490 611 496.94 611 505.5Z" stroke="#ED7D31" stroke-width="2" stroke-miterlimit="8" fill="none" fill-rule="evenodd"/><path d="M602 437C602 440.314 599.314 443 596 443 592.686 443 590 440.314 590 437 590 433.686 592.686 431 596 431 599.314 431 602 433.686 602 437Z" fill="#ED7D31" fill-rule="evenodd"/><path d="M596 490.606 596 443" stroke="#ED7D31" stroke-width="2" stroke-miterlimit="8" fill="none" fill-rule="evenodd"/><rect x="689" y="553" width="48" height="46" stroke="#ED7D31" stroke-width="2" stroke-miterlimit="8" fill="#FFFFFF"/><text fill="#ED7D31" font-family="Cambria Math,Cambria Math_MSFontService,sans-serif" font-weight="400" font-size="32" transform="translate(698.653 587)">𝑇</text><path d="M670 576.5C670 585.06 663.06 592 654.5 592 645.94 592 639 585.06 639 576.5 639 567.94 645.94 561 654.5 561 663.06 561 670 567.94 670 576.5Z" fill="#FFFFFF" fill-rule="evenodd"/><path d="M654.5 592 654.5 561M670 576.5 639 576.5" stroke="#ED7D31" stroke-width="2" stroke-miterlimit="8" fill="none" fill-rule="evenodd"/><path d="M670 576.5C670 585.06 663.06 592 654.5 592 645.94 592 639 585.06 639 576.5 639 567.94 645.94 561 654.5 561 663.06 561 670 567.94 670 576.5Z" stroke="#ED7D31" stroke-width="2" stroke-miterlimit="8" fill="none" fill-rule="evenodd"/><path d="M660 506C660 509.314 657.314 512 654 512 650.686 512 648 509.314 648 506 648 502.686 650.686 500 654 500 657.314 500 660 502.686 660 506Z" fill="#ED7D31" fill-rule="evenodd"/><path d="M0 0 0.000104987 49.7603" stroke="#ED7D31" stroke-width="2" stroke-miterlimit="8" fill="none" fill-rule="evenodd" transform="matrix(-1 1.22465e-16 1.22465e-16 1 654 512)"/><path d="M906.25 348.5 906.25 375 919.5 375 893 401.5 866.5 375 879.75 375 879.75 348.5Z" stroke="#70AD47" stroke-width="3" stroke-miterlimit="8" fill="#E2F0D9" fill-rule="evenodd"/><rect x="747.5" y="168.5" width="121" height="200" stroke="#FFC000" stroke-width="3" stroke-miterlimit="8" fill="#FFF2CC" fill-opacity="0.501961"/><rect x="799.5" y="159.5" width="175" height="86" stroke="#70AD47" stroke-width="3" stroke-miterlimit="8" fill="#E2F0D9" fill-opacity="0.501961"/><text font-family="Cambria Math,Cambria Math_MSFontService,sans-serif" font-weight="400" font-size="24" transform="translate(292.091 349)">𝑞<tspan font-size="18" x="12.5333" y="5">2</tspan><tspan font-size="24" x="0.279999" y="-71">𝑞</tspan><tspan font-size="18" x="12.26" y="-66">1</tspan><tspan font-size="24" x="-0.195282" y="-141">𝑞</tspan><tspan font-size="18" x="12.338" y="-136">0</tspan></text><path d="M330 341 1097.59 341" stroke="#000000" stroke-width="2" stroke-miterlimit="8" fill="none" fill-rule="evenodd"/><path d="M330 270 1097.59 270" stroke="#000000" stroke-width="2" stroke-miterlimit="8" fill="none" fill-rule="evenodd"/><path d="M329 200 1096.88 200" stroke="#000000" stroke-width="2" stroke-miterlimit="8" fill="none" fill-rule="evenodd"/><rect x="419" y="248" width="48" height="45" stroke="#ED7D31" stroke-width="2" stroke-miterlimit="8" fill="#FFFFFF"/><text fill="#ED7D31" font-family="Cambria Math,Cambria Math_MSFontService,sans-serif" font-weight="400" font-size="32" transform="translate(428.562 281)">𝑇</text><path d="M909 270C909 261.716 915.94 255 924.5 255 933.06 255 940 261.716 940 270 940 278.284 933.06 285 924.5 285 915.94 285 909 278.284 909 270Z" fill="#FFFFFF" fill-rule="evenodd"/><path d="M924.5 255 924.5 285M909 270 940 270" stroke="#ED7D31" stroke-width="2" stroke-miterlimit="8" fill="none" fill-rule="evenodd"/><path d="M909 270C909 261.716 915.94 255 924.5 255 933.06 255 940 261.716 940 270 940 278.284 933.06 285 924.5 285 915.94 285 909 278.284 909 270Z" stroke="#ED7D31" stroke-width="2" stroke-miterlimit="8" fill="none" fill-rule="evenodd"/><path d="M919 342C919 338.686 921.686 336 925 336 928.314 336 931 338.686 931 342 931 345.314 928.314 348 925 348 921.686 348 919 345.314 919 342Z" fill="#ED7D31" fill-rule="evenodd"/><path d="M0 0 0.000104987 50.1389" stroke="#ED7D31" stroke-width="2" stroke-miterlimit="8" fill="none" fill-rule="evenodd" transform="matrix(-1 0 0 1 925 285)"/><path d="M383 270C383 278.284 376.06 285 367.5 285 358.94 285 352 278.284 352 270 352 261.716 358.94 255 367.5 255 376.06 255 383 261.716 383 270Z" fill="#FFFFFF" fill-rule="evenodd"/><path d="M367.5 285 367.5 255M383 270 352 270" stroke="#ED7D31" stroke-width="2" stroke-miterlimit="8" fill="none" fill-rule="evenodd"/><path d="M383 270C383 278.284 376.06 285 367.5 285 358.94 285 352 278.284 352 270 352 261.716 358.94 255 367.5 255 376.06 255 383 261.716 383 270Z" stroke="#ED7D31" stroke-width="2" stroke-miterlimit="8" fill="none" fill-rule="evenodd"/><path d="M374 200C374 203.314 371.314 206 368 206 364.686 206 362 203.314 362 200 362 196.686 364.686 194 368 194 371.314 194 374 196.686 374 200Z" fill="#ED7D31" fill-rule="evenodd"/><path d="M368 254.406 368 206" stroke="#ED7D31" stroke-width="2" stroke-miterlimit="8" fill="none" fill-rule="evenodd"/><rect x="497" y="247" width="47" height="45" stroke="#ED7D31" stroke-width="2" stroke-miterlimit="8" fill="#FFFFFF"/><text fill="#ED7D31" font-family="Cambria Math,Cambria Math_MSFontService,sans-serif" font-weight="400" font-size="32" transform="translate(506.195 280)">𝑇</text><path d="M793 342C793 350.284 786.284 357 778 357 769.716 357 763 350.284 763 342 763 333.716 769.716 327 778 327 786.284 327 793 333.716 793 342Z" fill="#FFFFFF" fill-rule="evenodd"/><path d="M778 357 778 327M793 342 763 342" stroke="#ED7D31" stroke-width="2" stroke-miterlimit="8" fill="none" fill-rule="evenodd"/><path d="M793 342C793 350.284 786.284 357 778 357 769.716 357 763 350.284 763 342 763 333.716 769.716 327 778 327 786.284 327 793 333.716 793 342Z" stroke="#ED7D31" stroke-width="2" stroke-miterlimit="8" fill="none" fill-rule="evenodd"/><path d="M784 201C784 204.314 781.314 207 778 207 774.686 207 772 204.314 772 201 772 197.686 774.686 195 778 195 781.314 195 784 197.686 784 201Z" fill="#ED7D31" fill-rule="evenodd"/><path d="M0 0 0.000104987 120.018" stroke="#ED7D31" stroke-width="2" stroke-miterlimit="8" fill="none" fill-rule="evenodd" transform="matrix(-1 1.22465e-16 1.22465e-16 1 778 207)"/><rect x="901" y="178" width="48" height="45" stroke="#ED7D31" stroke-width="2" stroke-miterlimit="8" fill="#FFFFFF"/><text fill="#ED7D31" font-family="Cambria Math,Cambria Math_MSFontService,sans-serif" font-weight="400" font-size="32" transform="translate(910.933 212)">𝑇<tspan font-size="23" x="20.7134" y="-12">†</tspan></text><path d="M610 270C610 278.284 603.06 285 594.5 285 585.94 285 579 278.284 579 270 579 261.716 585.94 255 594.5 255 603.06 255 610 261.716 610 270Z" fill="#FFFFFF" fill-rule="evenodd"/><path d="M594.5 285 594.5 255M610 270 579 270" stroke="#ED7D31" stroke-width="2" stroke-miterlimit="8" fill="none" fill-rule="evenodd"/><path d="M610 270C610 278.284 603.06 285 594.5 285 585.94 285 579 278.284 579 270 579 261.716 585.94 255 594.5 255 603.06 255 610 261.716 610 270Z" stroke="#ED7D31" stroke-width="2" stroke-miterlimit="8" fill="none" fill-rule="evenodd"/><path d="M601 201C601 204.314 598.314 207 595 207 591.686 207 589 204.314 589 201 589 197.686 591.686 195 595 195 598.314 195 601 197.686 601 201Z" fill="#ED7D31" fill-rule="evenodd"/><path d="M595 254.606 595 207" stroke="#ED7D31" stroke-width="2" stroke-miterlimit="8" fill="none" fill-rule="evenodd"/><rect x="688" y="318" width="47" height="45" stroke="#ED7D31" stroke-width="2" stroke-miterlimit="8" fill="#FFFFFF"/><text fill="#ED7D31" font-family="Cambria Math,Cambria Math_MSFontService,sans-serif" font-weight="400" font-size="32" transform="translate(697.191 351)">𝑇</text><path d="M668 341C668 349.284 661.284 356 653 356 644.716 356 638 349.284 638 341 638 332.716 644.716 326 653 326 661.284 326 668 332.716 668 341Z" fill="#FFFFFF" fill-rule="evenodd"/><path d="M653 356 653 326M668 341 638 341" stroke="#ED7D31" stroke-width="2" stroke-miterlimit="8" fill="none" fill-rule="evenodd"/><path d="M668 341C668 349.284 661.284 356 653 356 644.716 356 638 349.284 638 341 638 332.716 644.716 326 653 326 661.284 326 668 332.716 668 341Z" stroke="#ED7D31" stroke-width="2" stroke-miterlimit="8" fill="none" fill-rule="evenodd"/><path d="M659 270C659 273.314 656.314 276 653 276 649.686 276 647 273.314 647 270 647 266.686 649.686 264 653 264 656.314 264 659 266.686 659 270Z" fill="#ED7D31" fill-rule="evenodd"/><path d="M0 0 0.000104987 49.7603" stroke="#ED7D31" stroke-width="2" stroke-miterlimit="8" fill="none" fill-rule="evenodd" transform="matrix(-1 1.22465e-16 1.22465e-16 1 653 276)"/><rect x="809" y="178" width="48" height="45" stroke="#ED7D31" stroke-width="2" stroke-miterlimit="8" fill="#FFFFFF"/><text fill="#ED7D31" font-family="Cambria Math,Cambria Math_MSFontService,sans-serif" font-weight="400" font-size="32" transform="translate(819.078 212)">𝑇</text><path d="M819.5 101.5 819.5 128.5 832.5 128.5 806.5 154.5 780.5 128.5 793.5 128.5 793.5 101.5Z" stroke="#FFC000" stroke-width="3" stroke-miterlimit="8" fill="#FFF2CC" fill-rule="evenodd"/><rect x="340.5" y="-104.5" width="354" height="145" stroke="#5B9BD5" stroke-width="3" stroke-miterlimit="8" fill="#DEEBF7" fill-opacity="0.501961"/><path d="M623.5-95.1673 868.837-95.5001 870.5 97.1673 824.593 97.5 823.262-32.7751 624.664-32.9414C624.609-53.9606 624.553-74.98 623.5-95.1673Z" stroke="#FFC000" stroke-width="3" stroke-miterlimit="8" fill="#FFF2CC" fill-rule="evenodd" fill-opacity="0.501961"/><path d="M530.25-163.5 530.25-136 543.5-136 517-109.5 490.5-136 503.75-136 503.75-163.5Z" stroke="#5B9BD5" stroke-width="3" stroke-miterlimit="8" fill="#DEEBF7" fill-rule="evenodd"/><text font-family="Cambria Math,Cambria Math_MSFontService,sans-serif" font-weight="400" font-size="24" transform="translate(292.499 82)">𝑞<tspan font-size="18" x="12.5334" y="5">2</tspan><tspan font-size="24" x="0.280029" y="-71">𝑞</tspan><tspan font-size="18" x="12.26" y="-66">1</tspan><tspan font-size="24" x="-0.195251" y="-141">𝑞</tspan><tspan font-size="18" x="12.3381" y="-136">0</tspan></text><path d="M330 75 1098.44 75.0001" stroke="#000000" stroke-width="2" stroke-miterlimit="8" fill="none" fill-rule="evenodd"/><path d="M330 4 1098.44 4.0001" stroke="#000000" stroke-width="2" stroke-miterlimit="8" fill="none" fill-rule="evenodd"/><path d="M330-66 1098.73-65.9999" stroke="#000000" stroke-width="2" stroke-miterlimit="8" fill="none" fill-rule="evenodd"/><rect x="415" y="-19" width="48" height="45" stroke="#ED7D31" stroke-width="2" stroke-miterlimit="8" fill="#FFFFFF"/><text fill="#ED7D31" font-family="Cambria Math,Cambria Math_MSFontService,sans-serif" font-weight="400" font-size="32" transform="translate(424.51 14)">𝑇</text><path d="M896 3.5C896-5.06041 902.94-12 911.5-12 920.06-12 927-5.06041 927 3.5 927 12.0604 920.06 19 911.5 19 902.94 19 896 12.0604 896 3.5Z" fill="#FFFFFF" fill-rule="evenodd"/><path d="M911.5-12 911.5 19M896 3.5 927 3.5" stroke="#ED7D31" stroke-width="2" stroke-miterlimit="8" fill="none" fill-rule="evenodd"/><path d="M896 3.5C896-5.06041 902.94-12 911.5-12 920.06-12 927-5.06041 927 3.5 927 12.0604 920.06 19 911.5 19 902.94 19 896 12.0604 896 3.5Z" stroke="#ED7D31" stroke-width="2" stroke-miterlimit="8" fill="none" fill-rule="evenodd"/><path d="M906 75C906 71.6863 908.686 69 912 69 915.314 69 918 71.6863 918 75 918 78.3137 915.314 81 912 81 908.686 81 906 78.3137 906 75Z" fill="#ED7D31" fill-rule="evenodd"/><path d="M0 0 0.000104987 50.1389" stroke="#ED7D31" stroke-width="2" stroke-miterlimit="8" fill="none" fill-rule="evenodd" transform="matrix(-1 0 0 1 912 19)"/><path d="M379 3.5C379 12.0604 372.06 19 363.5 19 354.94 19 348 12.0604 348 3.5 348-5.06041 354.94-12 363.5-12 372.06-12 379-5.06041 379 3.5Z" fill="#FFFFFF" fill-rule="evenodd"/><path d="M363.5 19 363.5-12M379 3.5 348 3.5" stroke="#ED7D31" stroke-width="2" stroke-miterlimit="8" fill="none" fill-rule="evenodd"/><path d="M379 3.5C379 12.0604 372.06 19 363.5 19 354.94 19 348 12.0604 348 3.5 348-5.06041 354.94-12 363.5-12 372.06-12 379-5.06041 379 3.5Z" stroke="#ED7D31" stroke-width="2" stroke-miterlimit="8" fill="none" fill-rule="evenodd"/><path d="M370-66C370-62.6863 367.314-60 364-60 360.686-60 358-62.6863 358-66 358-69.3137 360.686-72 364-72 367.314-72 370-69.3137 370-66Z" fill="#ED7D31" fill-rule="evenodd"/><path d="M364-11.5937 364-60" stroke="#ED7D31" stroke-width="2" stroke-miterlimit="8" fill="none" fill-rule="evenodd"/><rect x="493" y="-19" width="47" height="45" stroke="#ED7D31" stroke-width="2" stroke-miterlimit="8" fill="#FFFFFF"/><text fill="#ED7D31" font-family="Cambria Math,Cambria Math_MSFontService,sans-serif" font-weight="400" font-size="32" transform="translate(502.143 14)">𝑇</text><path d="M861 75C861 83.2843 854.284 90 846 90 837.716 90 831 83.2843 831 75 831 66.7157 837.716 60 846 60 854.284 60 861 66.7157 861 75Z" fill="#FFFFFF" fill-rule="evenodd"/><path d="M846 90 846 60M861 75 831 75" stroke="#ED7D31" stroke-width="2" stroke-miterlimit="8" fill="none" fill-rule="evenodd"/><path d="M861 75C861 83.2843 854.284 90 846 90 837.716 90 831 83.2843 831 75 831 66.7157 837.716 60 846 60 854.284 60 861 66.7157 861 75Z" stroke="#ED7D31" stroke-width="2" stroke-miterlimit="8" fill="none" fill-rule="evenodd"/><path d="M852-66C852-62.6863 849.314-60 846-60 842.686-60 840-62.6863 840-66 840-69.3137 842.686-72 846-72 849.314-72 852-69.3137 852-66Z" fill="#ED7D31" fill-rule="evenodd"/><path d="M0 0 0.000104987 120.018" stroke="#ED7D31" stroke-width="2" stroke-miterlimit="8" fill="none" fill-rule="evenodd" transform="matrix(-1 1.22465e-16 1.22465e-16 1 846 -60)"/><rect x="888" y="-89" width="47" height="46" stroke="#ED7D31" stroke-width="2" stroke-miterlimit="8" fill="#FFFFFF"/><text fill="#ED7D31" font-family="Cambria Math,Cambria Math_MSFontService,sans-serif" font-weight="400" font-size="32" transform="translate(897.261 -55)">𝑇<tspan font-size="23" x="20.7133" y="-11">†</tspan></text><path d="M606 3.5C606 12.0604 599.06 19 590.5 19 581.94 19 575 12.0604 575 3.5 575-5.06041 581.94-12 590.5-12 599.06-12 606-5.06041 606 3.5Z" fill="#FFFFFF" fill-rule="evenodd"/><path d="M590.5 19 590.5-12M606 3.5 575 3.5" stroke="#ED7D31" stroke-width="2" stroke-miterlimit="8" fill="none" fill-rule="evenodd"/><path d="M606 3.5C606 12.0604 599.06 19 590.5 19 581.94 19 575 12.0604 575 3.5 575-5.06041 581.94-12 590.5-12 599.06-12 606-5.06041 606 3.5Z" stroke="#ED7D31" stroke-width="2" stroke-miterlimit="8" fill="none" fill-rule="evenodd"/><path d="M596-65C596-61.6863 593.538-59 590.5-59 587.462-59 585-61.6863 585-65 585-68.3137 587.462-71 590.5-71 593.538-71 596-68.3137 596-65Z" fill="#ED7D31" fill-rule="evenodd"/><path d="M590-11.3937 590-59" stroke="#ED7D31" stroke-width="2" stroke-miterlimit="8" fill="none" fill-rule="evenodd"/><rect x="756" y="51" width="48" height="46" stroke="#ED7D31" stroke-width="2" stroke-miterlimit="8" fill="#FFFFFF"/><text fill="#ED7D31" font-family="Cambria Math,Cambria Math_MSFontService,sans-serif" font-weight="400" font-size="32" transform="translate(765.599 85)">𝑇</text><path d="M737 74.5C737 83.0604 730.06 90 721.5 90 712.94 90 706 83.0604 706 74.5 706 65.9396 712.94 59 721.5 59 730.06 59 737 65.9396 737 74.5Z" fill="#FFFFFF" fill-rule="evenodd"/><path d="M721.5 90 721.5 59M737 74.5 706 74.5" stroke="#ED7D31" stroke-width="2" stroke-miterlimit="8" fill="none" fill-rule="evenodd"/><path d="M737 74.5C737 83.0604 730.06 90 721.5 90 712.94 90 706 83.0604 706 74.5 706 65.9396 712.94 59 721.5 59 730.06 59 737 65.9396 737 74.5Z" stroke="#ED7D31" stroke-width="2" stroke-miterlimit="8" fill="none" fill-rule="evenodd"/><path d="M727 3C727 6.31371 724.314 9 721 9 717.686 9 715 6.31371 715 3 715-0.313708 717.686-3 721-3 724.314-3 727-0.313708 727 3Z" fill="#ED7D31" fill-rule="evenodd"/><path d="M0 0 0.000104987 49.7603" stroke="#ED7D31" stroke-width="2" stroke-miterlimit="8" fill="none" fill-rule="evenodd" transform="matrix(-1 1.22465e-16 1.22465e-16 1 721 9)"/><rect x="629" y="-89" width="48" height="45" stroke="#ED7D31" stroke-width="2" stroke-miterlimit="8" fill="#FFFFFF"/><text fill="#ED7D31" font-family="Cambria Math,Cambria Math_MSFontService,sans-serif" font-weight="400" font-size="32" transform="translate(638.609 -56)">𝑇</text><rect x="416.5" y="-360.5" width="273" height="176" stroke="#70AD47" stroke-width="3" stroke-miterlimit="8" fill="#E2F0D9" fill-opacity="0.501961"/><rect x="339.5" y="-347.5" width="367" height="145" stroke="#5B9BD5" stroke-width="3" stroke-miterlimit="8" fill="#DEEBF7" fill-opacity="0.501961"/><text font-family="Cambria Math,Cambria Math_MSFontService,sans-serif" font-weight="400" font-size="24" transform="translate(292.729 -162)">𝑞<tspan font-size="18" x="12.5333" y="5">2</tspan><tspan font-size="24" x="0.279999" y="-71">𝑞</tspan><tspan font-size="18" x="12.26" y="-66">1</tspan><tspan font-size="24" x="-0.195282" y="-141">𝑞</tspan><tspan font-size="18" x="12.3381" y="-136">0</tspan></text><path d="M330-169 1097.97-169" stroke="#000000" stroke-width="2" stroke-miterlimit="8" fill="none" fill-rule="evenodd"/><path d="M330-241 1097.97-241" stroke="#000000" stroke-width="2" stroke-miterlimit="8" fill="none" fill-rule="evenodd"/><path d="M330-310 1098.25-310" stroke="#000000" stroke-width="2" stroke-miterlimit="8" fill="none" fill-rule="evenodd"/><rect x="488" y="-263" width="47" height="45" stroke="#ED7D31" stroke-width="2" stroke-miterlimit="8" fill="#FFFFFF"/><text fill="#ED7D31" font-family="Cambria Math,Cambria Math_MSFontService,sans-serif" font-weight="400" font-size="32" transform="translate(497.2 -229)">𝑇</text><path d="M897-240.5C897-249.06 903.716-256 912-256 920.284-256 927-249.06 927-240.5 927-231.94 920.284-225 912-225 903.716-225 897-231.94 897-240.5Z" fill="#FFFFFF" fill-rule="evenodd"/><path d="M912-256 912-225M897-240.5 927-240.5" stroke="#ED7D31" stroke-width="2" stroke-miterlimit="8" fill="none" fill-rule="evenodd"/><path d="M897-240.5C897-249.06 903.716-256 912-256 920.284-256 927-249.06 927-240.5 927-231.94 920.284-225 912-225 903.716-225 897-231.94 897-240.5Z" stroke="#ED7D31" stroke-width="2" stroke-miterlimit="8" fill="none" fill-rule="evenodd"/><path d="M906-169C906-172.314 908.686-175 912-175 915.314-175 918-172.314 918-169 918-165.686 915.314-163 912-163 908.686-163 906-165.686 906-169Z" fill="#ED7D31" fill-rule="evenodd"/><path d="M0 0 0.000104987 50.1389" stroke="#ED7D31" stroke-width="2" stroke-miterlimit="8" fill="none" fill-rule="evenodd" transform="matrix(-1 0 0 1 912 -225)"/><path d="M451-240C451-231.716 444.284-225 436-225 427.716-225 421-231.716 421-240 421-248.284 427.716-255 436-255 444.284-255 451-248.284 451-240Z" fill="#FFFFFF" fill-rule="evenodd"/><path d="M436-225 436-255M451-240 421-240" stroke="#ED7D31" stroke-width="2" stroke-miterlimit="8" fill="none" fill-rule="evenodd"/><path d="M451-240C451-231.716 444.284-225 436-225 427.716-225 421-231.716 421-240 421-248.284 427.716-255 436-255 444.284-255 451-248.284 451-240Z" stroke="#ED7D31" stroke-width="2" stroke-miterlimit="8" fill="none" fill-rule="evenodd"/><path d="M442-310C442-306.686 439.314-304 436-304 432.686-304 430-306.686 430-310 430-313.314 432.686-316 436-316 439.314-316 442-313.314 442-310Z" fill="#ED7D31" fill-rule="evenodd"/><path d="M436-255.594 436-304" stroke="#ED7D31" stroke-width="2" stroke-miterlimit="8" fill="none" fill-rule="evenodd"/><rect x="565" y="-264" width="48" height="46" stroke="#ED7D31" stroke-width="2" stroke-miterlimit="8" fill="#FFFFFF"/><text fill="#ED7D31" font-family="Cambria Math,Cambria Math_MSFontService,sans-serif" font-weight="400" font-size="32" transform="translate(574.833 -230)">𝑇</text><path d="M862-169C862-160.716 855.06-154 846.5-154 837.94-154 831-160.716 831-169 831-177.284 837.94-184 846.5-184 855.06-184 862-177.284 862-169Z" fill="#FFFFFF" fill-rule="evenodd"/><path d="M846.5-154 846.5-184M862-169 831-169" stroke="#ED7D31" stroke-width="2" stroke-miterlimit="8" fill="none" fill-rule="evenodd"/><path d="M862-169C862-160.716 855.06-154 846.5-154 837.94-154 831-160.716 831-169 831-177.284 837.94-184 846.5-184 855.06-184 862-177.284 862-169Z" stroke="#ED7D31" stroke-width="2" stroke-miterlimit="8" fill="none" fill-rule="evenodd"/><path d="M852-310C852-306.686 849.314-304 846-304 842.686-304 840-306.686 840-310 840-313.314 842.686-316 846-316 849.314-316 852-313.314 852-310Z" fill="#ED7D31" fill-rule="evenodd"/><path d="M0 0 0.000104987 120.018" stroke="#ED7D31" stroke-width="2" stroke-miterlimit="8" fill="none" fill-rule="evenodd" transform="matrix(-1 1.22465e-16 1.22465e-16 1 846 -304)"/><rect x="888" y="-333" width="48" height="46" stroke="#ED7D31" stroke-width="2" stroke-miterlimit="8" fill="#FFFFFF"/><text fill="#ED7D31" font-family="Cambria Math,Cambria Math_MSFontService,sans-serif" font-weight="400" font-size="32" transform="translate(897.491 -299)">𝑇<tspan font-size="23" x="20.7133" y="-11">†</tspan></text><path d="M678-241C678-232.716 671.284-226 663-226 654.716-226 648-232.716 648-241 648-249.284 654.716-256 663-256 671.284-256 678-249.284 678-241Z" fill="#FFFFFF" fill-rule="evenodd"/><path d="M663-226 663-256M678-241 648-241" stroke="#ED7D31" stroke-width="2" stroke-miterlimit="8" fill="none" fill-rule="evenodd"/><path d="M678-241C678-232.716 671.284-226 663-226 654.716-226 648-232.716 648-241 648-249.284 654.716-256 663-256 671.284-256 678-249.284 678-241Z" stroke="#ED7D31" stroke-width="2" stroke-miterlimit="8" fill="none" fill-rule="evenodd"/><path d="M669-310C669-306.686 666.314-304 663-304 659.686-304 657-306.686 657-310 657-313.314 659.686-316 663-316 666.314-316 669-313.314 669-310Z" fill="#ED7D31" fill-rule="evenodd"/><path d="M663-256.394 663-304" stroke="#ED7D31" stroke-width="2" stroke-miterlimit="8" fill="none" fill-rule="evenodd"/><rect x="756" y="-193" width="48" height="45" stroke="#ED7D31" stroke-width="2" stroke-miterlimit="8" fill="#FFFFFF"/><text fill="#ED7D31" font-family="Cambria Math,Cambria Math_MSFontService,sans-serif" font-weight="400" font-size="32" transform="translate(765.829 -159)">𝑇</text><path d="M737-170C737-161.716 730.06-155 721.5-155 712.94-155 706-161.716 706-170 706-178.284 712.94-185 721.5-185 730.06-185 737-178.284 737-170Z" fill="#FFFFFF" fill-rule="evenodd"/><path d="M721.5-155 721.5-185M737-170 706-170" stroke="#ED7D31" stroke-width="2" stroke-miterlimit="8" fill="none" fill-rule="evenodd"/><path d="M737-170C737-161.716 730.06-155 721.5-155 712.94-155 706-161.716 706-170 706-178.284 712.94-185 721.5-185 730.06-185 737-178.284 737-170Z" stroke="#ED7D31" stroke-width="2" stroke-miterlimit="8" fill="none" fill-rule="evenodd"/><path d="M728-241C728-237.686 725.314-235 722-235 718.686-235 716-237.686 716-241 716-244.314 718.686-247 722-247 725.314-247 728-244.314 728-241Z" fill="#ED7D31" fill-rule="evenodd"/><path d="M0 0 0.000104987 49.7603" stroke="#ED7D31" stroke-width="2" stroke-miterlimit="8" fill="none" fill-rule="evenodd" transform="matrix(-1 1.22465e-16 1.22465e-16 1 722 -235)"/><rect x="352" y="-333" width="47" height="45" stroke="#ED7D31" stroke-width="2" stroke-miterlimit="8" fill="#FFFFFF"/><text fill="#ED7D31" font-family="Cambria Math,Cambria Math_MSFontService,sans-serif" font-weight="400" font-size="32" transform="translate(361.124 -300)">𝑇</text><path d="M546.25-418.5 546.25-392 559.5-392 533-365.5 506.5-392 519.75-392 519.75-418.5Z" stroke="#70AD47" stroke-width="3" stroke-miterlimit="8" fill="#E2F0D9" fill-rule="evenodd"/><path d="M800.25-649.5 800.25-623 813.5-623 787-596.5 760.5-623 773.75-623 773.75-649.5Z" stroke="#FFC000" stroke-width="3" stroke-miterlimit="8" fill="#FFF2CC" fill-rule="evenodd"/><rect x="614.5" y="-589.5" width="298" height="197" stroke="#FFC000" stroke-width="3" stroke-miterlimit="8" fill="#FFF2CC" fill-opacity="0.501961"/><rect x="407.5" y="-602.5" width="270" height="126" stroke="#70AD47" stroke-width="3" stroke-miterlimit="8" fill="#E2F0D9" fill-opacity="0.501961"/><text font-family="Cambria Math,Cambria Math_MSFontService,sans-serif" font-weight="400" font-size="24" transform="translate(292.091 -417)">𝑞<tspan font-size="18" x="12.5333" y="5">2</tspan><tspan font-size="24" x="0.279999" y="-71">𝑞</tspan><tspan font-size="18" x="12.26" y="-66">1</tspan><tspan font-size="24" x="-0.195282" y="-141">𝑞</tspan><tspan font-size="18" x="12.338" y="-136">0</tspan></text><path d="M330-425 1098.38-425" stroke="#000000" stroke-width="2" stroke-miterlimit="8" fill="none" fill-rule="evenodd"/><path d="M330-496 1098.38-496" stroke="#000000" stroke-width="2" stroke-miterlimit="8" fill="none" fill-rule="evenodd"/><path d="M329-566 1097.67-566" stroke="#000000" stroke-width="2" stroke-miterlimit="8" fill="none" fill-rule="evenodd"/><rect x="482" y="-590" width="48" height="45" stroke="#ED7D31" stroke-width="2" stroke-miterlimit="8" fill="#FFFFFF"/><text fill="#ED7D31" font-family="Cambria Math,Cambria Math_MSFontService,sans-serif" font-weight="400" font-size="32" transform="translate(491.503 -557)">𝑇</text><path d="M866-495.5C866-504.06 872.716-511 881-511 889.284-511 896-504.06 896-495.5 896-486.94 889.284-480 881-480 872.716-480 866-486.94 866-495.5Z" fill="#FFFFFF" fill-rule="evenodd"/><path d="M881-511 881-480M866-495.5 896-495.5" stroke="#ED7D31" stroke-width="2" stroke-miterlimit="8" fill="none" fill-rule="evenodd"/><path d="M866-495.5C866-504.06 872.716-511 881-511 889.284-511 896-504.06 896-495.5 896-486.94 889.284-480 881-480 872.716-480 866-486.94 866-495.5Z" stroke="#ED7D31" stroke-width="2" stroke-miterlimit="8" fill="none" fill-rule="evenodd"/><path d="M875-424C875-427.314 877.686-430 881-430 884.314-430 887-427.314 887-424 887-420.686 884.314-418 881-418 877.686-418 875-420.686 875-424Z" fill="#ED7D31" fill-rule="evenodd"/><path d="M0 0 0.000104987 50.1389" stroke="#ED7D31" stroke-width="2" stroke-miterlimit="8" fill="none" fill-rule="evenodd" transform="matrix(-1 0 0 1 881 -480)"/><path d="M425-565.5C425-574.06 431.94-581 440.5-581 449.06-581 456-574.06 456-565.5 456-556.94 449.06-550 440.5-550 431.94-550 425-556.94 425-565.5Z" fill="#FFFFFF" fill-rule="evenodd"/><path d="M440.5-581 440.5-550M425-565.5 456-565.5" stroke="#ED7D31" stroke-width="2" stroke-miterlimit="8" fill="none" fill-rule="evenodd"/><path d="M425-565.5C425-574.06 431.94-581 440.5-581 449.06-581 456-574.06 456-565.5 456-556.94 449.06-550 440.5-550 431.94-550 425-556.94 425-565.5Z" stroke="#ED7D31" stroke-width="2" stroke-miterlimit="8" fill="none" fill-rule="evenodd"/><path d="M434-495C434-498.314 436.686-501 440-501 443.314-501 446-498.314 446-495 446-491.686 443.314-489 440-489 436.686-489 434-491.686 434-495Z" fill="#ED7D31" fill-rule="evenodd"/><path d="M0 0 0.000104987 49.2063" stroke="#ED7D31" stroke-width="2" stroke-miterlimit="8" fill="none" fill-rule="evenodd" transform="matrix(1 0 0 -1 440 -500.794)"/><rect x="557" y="-590" width="48" height="45" stroke="#ED7D31" stroke-width="2" stroke-miterlimit="8" fill="#FFFFFF"/><text fill="#ED7D31" font-family="Cambria Math,Cambria Math_MSFontService,sans-serif" font-weight="400" font-size="32" transform="translate(566.749 -557)">𝑇</text><path d="M845-424.5C845-415.94 838.284-409 830-409 821.716-409 815-415.94 815-424.5 815-433.06 821.716-440 830-440 838.284-440 845-433.06 845-424.5Z" fill="#FFFFFF" fill-rule="evenodd"/><path d="M830-409 830-440M845-424.5 815-424.5" stroke="#ED7D31" stroke-width="2" stroke-miterlimit="8" fill="none" fill-rule="evenodd"/><path d="M845-424.5C845-415.94 838.284-409 830-409 821.716-409 815-415.94 815-424.5 815-433.06 821.716-440 830-440 838.284-440 845-433.06 845-424.5Z" stroke="#ED7D31" stroke-width="2" stroke-miterlimit="8" fill="none" fill-rule="evenodd"/><path d="M836-567C836-563.686 833.314-561 830-561 826.686-561 824-563.686 824-567 824-570.314 826.686-573 830-573 833.314-573 836-570.314 836-567Z" fill="#ED7D31" fill-rule="evenodd"/><path d="M0 0 0.000104987 121.339" stroke="#ED7D31" stroke-width="2" stroke-miterlimit="8" fill="none" fill-rule="evenodd" transform="matrix(-1 1.22465e-16 1.22465e-16 1 830 -561)"/><rect x="932" y="-588" width="48" height="45" stroke="#ED7D31" stroke-width="2" stroke-miterlimit="8" fill="#FFFFFF"/><text fill="#ED7D31" font-family="Cambria Math,Cambria Math_MSFontService,sans-serif" font-weight="400" font-size="32" transform="translate(941.445 -555)">𝑇<tspan font-size="23" x="20.7133" y="-11">†</tspan></text><path d="M635-565.5C635-574.06 641.94-581 650.5-581 659.06-581 666-574.06 666-565.5 666-556.94 659.06-550 650.5-550 641.94-550 635-556.94 635-565.5Z" fill="#FFFFFF" fill-rule="evenodd"/><path d="M650.5-581 650.5-550M635-565.5 666-565.5" stroke="#ED7D31" stroke-width="2" stroke-miterlimit="8" fill="none" fill-rule="evenodd"/><path d="M635-565.5C635-574.06 641.94-581 650.5-581 659.06-581 666-574.06 666-565.5 666-556.94 659.06-550 650.5-550 641.94-550 635-556.94 635-565.5Z" stroke="#ED7D31" stroke-width="2" stroke-miterlimit="8" fill="none" fill-rule="evenodd"/><path d="M645-495C645-498.314 647.686-501 651-501 654.314-501 657-498.314 657-495 657-491.686 654.314-489 651-489 647.686-489 645-491.686 645-495Z" fill="#ED7D31" fill-rule="evenodd"/><path d="M0 0 0.000104987 49.2063" stroke="#ED7D31" stroke-width="2" stroke-miterlimit="8" fill="none" fill-rule="evenodd" transform="matrix(1 0 0 -1 651 -500.794)"/><rect x="743" y="-446" width="48" height="45" stroke="#ED7D31" stroke-width="2" stroke-miterlimit="8" fill="#FFFFFF"/><text fill="#ED7D31" font-family="Cambria Math,Cambria Math_MSFontService,sans-serif" font-weight="400" font-size="32" transform="translate(752.705 -413)">𝑇</text><path d="M719-425C719-416.716 712.284-410 704-410 695.716-410 689-416.716 689-425 689-433.284 695.716-440 704-440 712.284-440 719-433.284 719-425Z" fill="#FFFFFF" fill-rule="evenodd"/><path d="M704-410 704-440M719-425 689-425" stroke="#ED7D31" stroke-width="2" stroke-miterlimit="8" fill="none" fill-rule="evenodd"/><path d="M719-425C719-416.716 712.284-410 704-410 695.716-410 689-416.716 689-425 689-433.284 695.716-440 704-440 712.284-440 719-433.284 719-425Z" stroke="#ED7D31" stroke-width="2" stroke-miterlimit="8" fill="none" fill-rule="evenodd"/><path d="M710-496C710-492.686 707.314-490 704-490 700.686-490 698-492.686 698-496 698-499.314 700.686-502 704-502 707.314-502 710-499.314 710-496Z" fill="#ED7D31" fill-rule="evenodd"/><path d="M0 0 0.000104987 49.7603" stroke="#ED7D31" stroke-width="2" stroke-miterlimit="8" fill="none" fill-rule="evenodd" transform="matrix(-1 1.22465e-16 1.22465e-16 1 704 -490)"/><rect x="344" y="-588" width="47" height="45" stroke="#ED7D31" stroke-width="2" stroke-miterlimit="8" fill="#FFFFFF"/><text fill="#ED7D31" font-family="Cambria Math,Cambria Math_MSFontService,sans-serif" font-weight="400" font-size="32" transform="translate(353.369 -555)">𝑇</text><rect x="935.5" y="-727.5" width="134" height="84" stroke="#5B9BD5" stroke-width="3" stroke-miterlimit="8" fill="#DEEBF7" fill-opacity="0.501961"/><rect x="611.5" y="-860.5" width="307" height="207" stroke="#FFC000" stroke-width="3" stroke-miterlimit="8" fill="#FFF2CC" fill-opacity="0.501961"/><text font-family="Cambria Math,Cambria Math_MSFontService,sans-serif" font-weight="400" font-size="24" transform="translate(292.091 -676)">𝑞<tspan font-size="18" x="12.5333" y="5">2</tspan><tspan font-size="24" x="0.279999" y="-71">𝑞</tspan><tspan font-size="18" x="12.26" y="-66">1</tspan><tspan font-size="24" x="-0.195282" y="-141">𝑞</tspan><tspan font-size="18" x="12.338" y="-136">0</tspan></text><path d="M330-683 1098.76-683" stroke="#000000" stroke-width="2" stroke-miterlimit="8" fill="none" fill-rule="evenodd"/><path d="M330-754 1098.76-754" stroke="#000000" stroke-width="2" stroke-miterlimit="8" fill="none" fill-rule="evenodd"/><path d="M329-824 1098.05-824" stroke="#000000" stroke-width="2" stroke-miterlimit="8" fill="none" fill-rule="evenodd"/><rect x="467" y="-849" width="48" height="46" stroke="#ED7D31" stroke-width="2" stroke-miterlimit="8" fill="#FFFFFF"/><text fill="#ED7D31" font-family="Cambria Math,Cambria Math_MSFontService,sans-serif" font-weight="400" font-size="32" transform="translate(476.734 -815)">𝑇</text><path d="M657-683C657-674.716 650.284-668 642-668 633.716-668 627-674.716 627-683 627-691.284 633.716-698 642-698 650.284-698 657-691.284 657-683Z" fill="#FFFFFF" fill-rule="evenodd"/><path d="M642-668 642-698M657-683 627-683" stroke="#ED7D31" stroke-width="2" stroke-miterlimit="8" fill="none" fill-rule="evenodd"/><path d="M657-683C657-674.716 650.284-668 642-668 633.716-668 627-674.716 627-683 627-691.284 633.716-698 642-698 650.284-698 657-691.284 657-683Z" stroke="#ED7D31" stroke-width="2" stroke-miterlimit="8" fill="none" fill-rule="evenodd"/><path d="M648-824C648-820.686 645.314-818 642-818 638.686-818 636-820.686 636-824 636-827.314 638.686-830 642-830 645.314-830 648-827.314 648-824Z" fill="#ED7D31" fill-rule="evenodd"/><path d="M0 0 0.000104987 120.539" stroke="#ED7D31" stroke-width="2" stroke-miterlimit="8" fill="none" fill-rule="evenodd" transform="matrix(-1 1.22465e-16 1.22465e-16 1 642 -818)"/><path d="M410-824C410-832.284 416.94-839 425.5-839 434.06-839 441-832.284 441-824 441-815.716 434.06-809 425.5-809 416.94-809 410-815.716 410-824Z" fill="#FFFFFF" fill-rule="evenodd"/><path d="M425.5-839 425.5-809M410-824 441-824" stroke="#ED7D31" stroke-width="2" stroke-miterlimit="8" fill="none" fill-rule="evenodd"/><path d="M410-824C410-832.284 416.94-839 425.5-839 434.06-839 441-832.284 441-824 441-815.716 434.06-809 425.5-809 416.94-809 410-815.716 410-824Z" stroke="#ED7D31" stroke-width="2" stroke-miterlimit="8" fill="none" fill-rule="evenodd"/><path d="M420-754C420-757.314 422.686-760 426-760 429.314-760 432-757.314 432-754 432-750.686 429.314-748 426-748 422.686-748 420-750.686 420-754Z" fill="#ED7D31" fill-rule="evenodd"/><path d="M0 0 0.000104987 48.4063" stroke="#ED7D31" stroke-width="2" stroke-miterlimit="8" fill="none" fill-rule="evenodd" transform="matrix(1 0 0 -1 426 -760.594)"/><rect x="542" y="-849" width="48" height="46" stroke="#ED7D31" stroke-width="2" stroke-miterlimit="8" fill="#FFFFFF"/><text fill="#ED7D31" font-family="Cambria Math,Cambria Math_MSFontService,sans-serif" font-weight="400" font-size="32" transform="translate(551.98 -815)">𝑇</text><path d="M684-755C684-763.284 690.94-770 699.5-770 708.06-770 715-763.284 715-755 715-746.716 708.06-740 699.5-740 690.94-740 684-746.716 684-755Z" fill="#FFFFFF" fill-rule="evenodd"/><path d="M699.5-770 699.5-740M684-755 715-755" stroke="#ED7D31" stroke-width="2" stroke-miterlimit="8" fill="none" fill-rule="evenodd"/><path d="M684-755C684-763.284 690.94-770 699.5-770 708.06-770 715-763.284 715-755 715-746.716 708.06-740 699.5-740 690.94-740 684-746.716 684-755Z" stroke="#ED7D31" stroke-width="2" stroke-miterlimit="8" fill="none" fill-rule="evenodd"/><path d="M694-684C694-687.314 696.686-690 700-690 703.314-690 706-687.314 706-684 706-680.686 703.314-678 700-678 696.686-678 694-680.686 694-684Z" fill="#ED7D31" fill-rule="evenodd"/><path d="M0 0 0.000104987 50.1389" stroke="#ED7D31" stroke-width="2" stroke-miterlimit="8" fill="none" fill-rule="evenodd" transform="matrix(-1 0 0 1 700 -740)"/><path d="M736-824C736-832.284 742.94-839 751.5-839 760.06-839 767-832.284 767-824 767-815.716 760.06-809 751.5-809 742.94-809 736-815.716 736-824Z" fill="#FFFFFF" fill-rule="evenodd"/><path d="M751.5-839 751.5-809M736-824 767-824" stroke="#ED7D31" stroke-width="2" stroke-miterlimit="8" fill="none" fill-rule="evenodd"/><path d="M736-824C736-832.284 742.94-839 751.5-839 760.06-839 767-832.284 767-824 767-815.716 760.06-809 751.5-809 742.94-809 736-815.716 736-824Z" stroke="#ED7D31" stroke-width="2" stroke-miterlimit="8" fill="none" fill-rule="evenodd"/><path d="M745-754C745-757.314 747.686-760 751-760 754.314-760 757-757.314 757-754 757-750.686 754.314-748 751-748 747.686-748 745-750.686 745-754Z" fill="#ED7D31" fill-rule="evenodd"/><path d="M0 0 0.000104987 48.4063" stroke="#ED7D31" stroke-width="2" stroke-miterlimit="8" fill="none" fill-rule="evenodd" transform="matrix(1 0 0 -1 751 -760.594)"/><rect x="797" y="-848" width="47" height="45" stroke="#ED7D31" stroke-width="2" stroke-miterlimit="8" fill="#FFFFFF"/><text fill="#ED7D31" font-family="Cambria Math,Cambria Math_MSFontService,sans-serif" font-weight="400" font-size="32" transform="translate(806.321 -814)">𝑇</text><path d="M874-824C874-832.284 880.716-839 889-839 897.284-839 904-832.284 904-824 904-815.716 897.284-809 889-809 880.716-809 874-815.716 874-824Z" fill="#FFFFFF" fill-rule="evenodd"/><path d="M889-839 889-809M874-824 904-824" stroke="#ED7D31" stroke-width="2" stroke-miterlimit="8" fill="none" fill-rule="evenodd"/><path d="M874-824C874-832.284 880.716-839 889-839 897.284-839 904-832.284 904-824 904-815.716 897.284-809 889-809 880.716-809 874-815.716 874-824Z" stroke="#ED7D31" stroke-width="2" stroke-miterlimit="8" fill="none" fill-rule="evenodd"/><path d="M883-684C883-687.314 885.686-690 889-690 892.314-690 895-687.314 895-684 895-680.686 892.314-678 889-678 885.686-678 883-680.686 883-684Z" fill="#ED7D31" fill-rule="evenodd"/><path d="M0 0 0.000104987 119.36" stroke="#ED7D31" stroke-width="2" stroke-miterlimit="8" fill="none" fill-rule="evenodd" transform="matrix(1 0 0 -1 889 -689.64)"/><rect x="343" y="-846" width="48" height="45" stroke="#ED7D31" stroke-width="2" stroke-miterlimit="8" fill="#FFFFFF"/><text fill="#ED7D31" font-family="Cambria Math,Cambria Math_MSFontService,sans-serif" font-weight="400" font-size="32" transform="translate(352.915 -813)">𝑇</text><rect x="1030" y="-849" width="48" height="45" stroke="#ED7D31" stroke-width="2" stroke-miterlimit="8" fill="#FFFFFF"/><text fill="#ED7D31" font-family="Cambria Math,Cambria Math_MSFontService,sans-serif" font-weight="400" font-size="32" transform="translate(1039.56 -815)">𝑇<tspan font-size="23" x="20.7133" y="-12">†</tspan></text><path d="M997.25-882.5 997.25-856 1010.5-856 984-829.5 957.5-856 970.75-856 970.75-882.5Z" stroke="#5B9BD5" stroke-width="3" stroke-miterlimit="8" fill="#DEEBF7" fill-rule="evenodd"/><rect x="660.5" y="-1110.5" width="309" height="205" stroke="#70AD47" stroke-width="3" stroke-miterlimit="8" fill="#E2F0D9" fill-opacity="0.501961"/><rect x="636.5" y="-1375.5" width="309" height="204" stroke="#70AD47" stroke-width="3" stroke-miterlimit="8" fill="#E2F0D9" fill-opacity="0.501961"/><text font-family="Cambria Math,Cambria Math_MSFontService,sans-serif" font-weight="400" font-size="24" transform="translate(292.165 -1195)">𝑞<tspan font-size="18" x="12.5333" y="5">2</tspan><tspan font-size="24" x="0.279999" y="-71">𝑞</tspan><tspan font-size="18" x="12.26" y="-67">1</tspan><tspan font-size="24" x="-0.195282" y="-141">𝑞</tspan><tspan font-size="18" x="12.338" y="-136">0</tspan></text><path d="M330-1203 1098.13-1203" stroke="#000000" stroke-width="2" stroke-miterlimit="8" fill="none" fill-rule="evenodd"/><path d="M330-1274 1098.13-1274" stroke="#000000" stroke-width="2" stroke-miterlimit="8" fill="none" fill-rule="evenodd"/><path d="M330-1344 1098.42-1344" stroke="#000000" stroke-width="2" stroke-miterlimit="8" fill="none" fill-rule="evenodd"/><rect x="462" y="-1368" width="48" height="45" stroke="#ED7D31" stroke-width="2" stroke-miterlimit="8" fill="#FFFFFF"/><text fill="#ED7D31" font-family="Cambria Math,Cambria Math_MSFontService,sans-serif" font-weight="400" font-size="32" transform="translate(471.612 -1335)">𝑇</text><path d="M630-1203C630-1194.72 623.06-1188 614.5-1188 605.94-1188 599-1194.72 599-1203 599-1211.28 605.94-1218 614.5-1218 623.06-1218 630-1211.28 630-1203Z" fill="#FFFFFF" fill-rule="evenodd"/><path d="M614.5-1188 614.5-1218M630-1203 599-1203" stroke="#ED7D31" stroke-width="2" stroke-miterlimit="8" fill="none" fill-rule="evenodd"/><path d="M630-1203C630-1194.72 623.06-1188 614.5-1188 605.94-1188 599-1194.72 599-1203 599-1211.28 605.94-1218 614.5-1218 623.06-1218 630-1211.28 630-1203Z" stroke="#ED7D31" stroke-width="2" stroke-miterlimit="8" fill="none" fill-rule="evenodd"/><path d="M620-1345C620-1341.69 617.538-1339 614.5-1339 611.462-1339 609-1341.69 609-1345 609-1348.31 611.462-1351 614.5-1351 617.538-1351 620-1348.31 620-1345Z" fill="#ED7D31" fill-rule="evenodd"/><path d="M0 0 0.000104987 121.179" stroke="#ED7D31" stroke-width="2" stroke-miterlimit="8" fill="none" fill-rule="evenodd" transform="matrix(-1 1.22465e-16 1.22465e-16 1 614 -1339)"/><path d="M410-1343.5C410-1352.06 416.716-1359 425-1359 433.284-1359 440-1352.06 440-1343.5 440-1334.94 433.284-1328 425-1328 416.716-1328 410-1334.94 410-1343.5Z" fill="#FFFFFF" fill-rule="evenodd"/><path d="M425-1359 425-1328M410-1343.5 440-1343.5" stroke="#ED7D31" stroke-width="2" stroke-miterlimit="8" fill="none" fill-rule="evenodd"/><path d="M410-1343.5C410-1352.06 416.716-1359 425-1359 433.284-1359 440-1352.06 440-1343.5 440-1334.94 433.284-1328 425-1328 416.716-1328 410-1334.94 410-1343.5Z" stroke="#ED7D31" stroke-width="2" stroke-miterlimit="8" fill="none" fill-rule="evenodd"/><path d="M419-1273C419-1276.31 421.686-1279 425-1279 428.314-1279 431-1276.31 431-1273 431-1269.69 428.314-1267 425-1267 421.686-1267 419-1269.69 419-1273Z" fill="#ED7D31" fill-rule="evenodd"/><path d="M0 0 0.288924 49.2572" stroke="#ED7D31" stroke-width="2" stroke-miterlimit="8" fill="none" fill-rule="evenodd" transform="matrix(1 0 0 -1 425 -1278.74)"/><rect x="537" y="-1368" width="48" height="45" stroke="#ED7D31" stroke-width="2" stroke-miterlimit="8" fill="#FFFFFF"/><text fill="#ED7D31" font-family="Cambria Math,Cambria Math_MSFontService,sans-serif" font-weight="400" font-size="32" transform="translate(546.858 -1335)">𝑇</text><path d="M714-1274C714-1282.28 720.716-1289 729-1289 737.284-1289 744-1282.28 744-1274 744-1265.72 737.284-1259 729-1259 720.716-1259 714-1265.72 714-1274Z" fill="#FFFFFF" fill-rule="evenodd"/><path d="M729-1289 729-1259M714-1274 744-1274" stroke="#ED7D31" stroke-width="2" stroke-miterlimit="8" fill="none" fill-rule="evenodd"/><path d="M714-1274C714-1282.28 720.716-1289 729-1289 737.284-1289 744-1282.28 744-1274 744-1265.72 737.284-1259 729-1259 720.716-1259 714-1265.72 714-1274Z" stroke="#ED7D31" stroke-width="2" stroke-miterlimit="8" fill="none" fill-rule="evenodd"/><path d="M723-1202C723-1205.31 725.686-1208 729-1208 732.314-1208 735-1205.31 735-1202 735-1198.69 732.314-1196 729-1196 725.686-1196 723-1198.69 723-1202Z" fill="#ED7D31" fill-rule="evenodd"/><path d="M0 0 0.000104987 50.1389" stroke="#ED7D31" stroke-width="2" stroke-miterlimit="8" fill="none" fill-rule="evenodd" transform="matrix(-1 0 0 1 729 -1259)"/><rect x="953" y="-1365" width="48" height="45" stroke="#ED7D31" stroke-width="2" stroke-miterlimit="8" fill="#FFFFFF"/><text fill="#ED7D31" font-family="Cambria Math,Cambria Math_MSFontService,sans-serif" font-weight="400" font-size="32" transform="translate(963.075 -1331)">𝑇<tspan font-size="23" x="20.7133" y="-12">†</tspan></text><path d="M765-1343.5C765-1352.06 771.94-1359 780.5-1359 789.06-1359 796-1352.06 796-1343.5 796-1334.94 789.06-1328 780.5-1328 771.94-1328 765-1334.94 765-1343.5Z" fill="#FFFFFF" fill-rule="evenodd"/><path d="M780.5-1359 780.5-1328M765-1343.5 796-1343.5" stroke="#ED7D31" stroke-width="2" stroke-miterlimit="8" fill="none" fill-rule="evenodd"/><path d="M765-1343.5C765-1352.06 771.94-1359 780.5-1359 789.06-1359 796-1352.06 796-1343.5 796-1334.94 789.06-1328 780.5-1328 771.94-1328 765-1334.94 765-1343.5Z" stroke="#ED7D31" stroke-width="2" stroke-miterlimit="8" fill="none" fill-rule="evenodd"/><path d="M775-1272C775-1275.31 777.686-1278 781-1278 784.314-1278 787-1275.31 787-1272 787-1268.69 784.314-1266 781-1266 777.686-1266 775-1268.69 775-1272Z" fill="#ED7D31" fill-rule="evenodd"/><path d="M0 0 0.000104987 50.0063" stroke="#ED7D31" stroke-width="2" stroke-miterlimit="8" fill="none" fill-rule="evenodd" transform="matrix(1 0 0 -1 781 -1277.99)"/><rect x="823" y="-1367" width="47" height="45" stroke="#ED7D31" stroke-width="2" stroke-miterlimit="8" fill="#FFFFFF"/><text fill="#ED7D31" font-family="Cambria Math,Cambria Math_MSFontService,sans-serif" font-weight="400" font-size="32" transform="translate(832.338 -1334)">𝑇</text><path d="M897-1343.5C897-1352.06 903.94-1359 912.5-1359 921.06-1359 928-1352.06 928-1343.5 928-1334.94 921.06-1328 912.5-1328 903.94-1328 897-1334.94 897-1343.5Z" fill="#FFFFFF" fill-rule="evenodd"/><path d="M912.5-1359 912.5-1328M897-1343.5 928-1343.5" stroke="#ED7D31" stroke-width="2" stroke-miterlimit="8" fill="none" fill-rule="evenodd"/><path d="M897-1343.5C897-1352.06 903.94-1359 912.5-1359 921.06-1359 928-1352.06 928-1343.5 928-1334.94 921.06-1328 912.5-1328 903.94-1328 897-1334.94 897-1343.5Z" stroke="#ED7D31" stroke-width="2" stroke-miterlimit="8" fill="none" fill-rule="evenodd"/><path d="M906-1202C906-1205.31 908.686-1208 912-1208 915.314-1208 918-1205.31 918-1202 918-1198.69 915.314-1196 912-1196 908.686-1196 906-1198.69 906-1202Z" fill="#ED7D31" fill-rule="evenodd"/><path d="M0 0 0.000104987 120.16" stroke="#ED7D31" stroke-width="2" stroke-miterlimit="8" fill="none" fill-rule="evenodd" transform="matrix(1 0 0 -1 912 -1207.84)"/><rect x="343" y="-1367" width="48" height="45" stroke="#ED7D31" stroke-width="2" stroke-miterlimit="8" fill="#FFFFFF"/><text fill="#ED7D31" font-family="Cambria Math,Cambria Math_MSFontService,sans-serif" font-weight="400" font-size="32" transform="translate(352.445 -1334)">𝑇</text><rect x="652" y="-1226" width="48" height="46" stroke="#ED7D31" stroke-width="2" stroke-miterlimit="8" fill="#FFFFFF"/><text fill="#ED7D31" font-family="Cambria Math,Cambria Math_MSFontService,sans-serif" font-weight="400" font-size="32" transform="translate(661.733 -1192)">𝑇<tspan font-size="23" x="20.7133" y="-12">†</tspan></text><rect x="953" y="-1225" width="48" height="45" stroke="#ED7D31" stroke-width="2" stroke-miterlimit="8" fill="#FFFFFF"/><text fill="#ED7D31" font-family="Cambria Math,Cambria Math_MSFontService,sans-serif" font-weight="400" font-size="32" transform="translate(962.533 -1192)">𝑇</text><rect x="897.5" y="-977.5" width="160" height="88" stroke="#5B9BD5" stroke-width="3" stroke-miterlimit="8" fill="#DEEBF7" fill-opacity="0.501961"/><text font-family="Cambria Math,Cambria Math_MSFontService,sans-serif" font-weight="400" font-size="24" transform="translate(292.091 -931)">𝑞<tspan font-size="18" x="12.5333" y="5">2</tspan><tspan font-size="24" x="0.279999" y="-72">𝑞</tspan><tspan font-size="18" x="12.26" y="-67">1</tspan><tspan font-size="24" x="-0.195282" y="-141">𝑞</tspan><tspan font-size="18" x="12.338" y="-136">0</tspan></text><path d="M330-939 1098.3-939" stroke="#000000" stroke-width="2" stroke-miterlimit="8" fill="none" fill-rule="evenodd"/><path d="M330-1010 1098.3-1010" stroke="#000000" stroke-width="2" stroke-miterlimit="8" fill="none" fill-rule="evenodd"/><path d="M329-1080 1097.58-1080" stroke="#000000" stroke-width="2" stroke-miterlimit="8" fill="none" fill-rule="evenodd"/><rect x="467" y="-1104" width="48" height="45" stroke="#ED7D31" stroke-width="2" stroke-miterlimit="8" fill="#FFFFFF"/><text fill="#ED7D31" font-family="Cambria Math,Cambria Math_MSFontService,sans-serif" font-weight="400" font-size="32" transform="translate(476.734 -1071)">𝑇</text><path d="M651-938.5C651-929.94 644.06-923 635.5-923 626.94-923 620-929.94 620-938.5 620-947.06 626.94-954 635.5-954 644.06-954 651-947.06 651-938.5Z" fill="#FFFFFF" fill-rule="evenodd"/><path d="M635.5-923 635.5-954M651-938.5 620-938.5" stroke="#ED7D31" stroke-width="2" stroke-miterlimit="8" fill="none" fill-rule="evenodd"/><path d="M651-938.5C651-929.94 644.06-923 635.5-923 626.94-923 620-929.94 620-938.5 620-947.06 626.94-954 635.5-954 644.06-954 651-947.06 651-938.5Z" stroke="#ED7D31" stroke-width="2" stroke-miterlimit="8" fill="none" fill-rule="evenodd"/><path d="M642-1082C642-1078.69 639.314-1076 636-1076 632.686-1076 630-1078.69 630-1082 630-1085.31 632.686-1088 636-1088 639.314-1088 642-1085.31 642-1082Z" fill="#ED7D31" fill-rule="evenodd"/><path d="M0 0 0.000104987 122.139" stroke="#ED7D31" stroke-width="2" stroke-miterlimit="8" fill="none" fill-rule="evenodd" transform="matrix(-1 1.22465e-16 1.22465e-16 1 636 -1076)"/><path d="M410-1080C410-1088.28 416.94-1095 425.5-1095 434.06-1095 441-1088.28 441-1080 441-1071.72 434.06-1065 425.5-1065 416.94-1065 410-1071.72 410-1080Z" fill="#FFFFFF" fill-rule="evenodd"/><path d="M425.5-1095 425.5-1065M410-1080 441-1080" stroke="#ED7D31" stroke-width="2" stroke-miterlimit="8" fill="none" fill-rule="evenodd"/><path d="M410-1080C410-1088.28 416.94-1095 425.5-1095 434.06-1095 441-1088.28 441-1080 441-1071.72 434.06-1065 425.5-1065 416.94-1065 410-1071.72 410-1080Z" stroke="#ED7D31" stroke-width="2" stroke-miterlimit="8" fill="none" fill-rule="evenodd"/><path d="M420-1010C420-1013.31 422.686-1016 426-1016 429.314-1016 432-1013.31 432-1010 432-1006.69 429.314-1004 426-1004 422.686-1004 420-1006.69 420-1010Z" fill="#ED7D31" fill-rule="evenodd"/><path d="M0 0 0.000104987 48.4063" stroke="#ED7D31" stroke-width="2" stroke-miterlimit="8" fill="none" fill-rule="evenodd" transform="matrix(1 0 0 -1 426 -1016.59)"/><rect x="542" y="-1104" width="48" height="45" stroke="#ED7D31" stroke-width="2" stroke-miterlimit="8" fill="#FFFFFF"/><text fill="#ED7D31" font-family="Cambria Math,Cambria Math_MSFontService,sans-serif" font-weight="400" font-size="32" transform="translate(551.98 -1071)">𝑇</text><path d="M678-1011C678-1019.28 684.716-1026 693-1026 701.284-1026 708-1019.28 708-1011 708-1002.72 701.284-996 693-996 684.716-996 678-1002.72 678-1011Z" fill="#FFFFFF" fill-rule="evenodd"/><path d="M693-1026 693-996M678-1011 708-1011" stroke="#ED7D31" stroke-width="2" stroke-miterlimit="8" fill="none" fill-rule="evenodd"/><path d="M678-1011C678-1019.28 684.716-1026 693-1026 701.284-1026 708-1019.28 708-1011 708-1002.72 701.284-996 693-996 684.716-996 678-1002.72 678-1011Z" stroke="#ED7D31" stroke-width="2" stroke-miterlimit="8" fill="none" fill-rule="evenodd"/><path d="M687-939C687-942.314 689.686-945 693-945 696.314-945 699-942.314 699-939 699-935.686 696.314-933 693-933 689.686-933 687-935.686 687-939Z" fill="#ED7D31" fill-rule="evenodd"/><path d="M0 0 0.000104987 50.1389" stroke="#ED7D31" stroke-width="2" stroke-miterlimit="8" fill="none" fill-rule="evenodd" transform="matrix(-1 0 0 1 693 -996)"/><rect x="908" y="-961" width="47" height="45" stroke="#ED7D31" stroke-width="2" stroke-miterlimit="8" fill="#FFFFFF"/><text fill="#ED7D31" font-family="Cambria Math,Cambria Math_MSFontService,sans-serif" font-weight="400" font-size="32" transform="translate(917.343 -927)">𝑇<tspan font-size="23" x="20.7134" y="-12">†</tspan></text><path d="M730-1080C730-1088.28 736.716-1095 745-1095 753.284-1095 760-1088.28 760-1080 760-1071.72 753.284-1065 745-1065 736.716-1065 730-1071.72 730-1080Z" fill="#FFFFFF" fill-rule="evenodd"/><path d="M745-1095 745-1065M730-1080 760-1080" stroke="#ED7D31" stroke-width="2" stroke-miterlimit="8" fill="none" fill-rule="evenodd"/><path d="M730-1080C730-1088.28 736.716-1095 745-1095 753.284-1095 760-1088.28 760-1080 760-1071.72 753.284-1065 745-1065 736.716-1065 730-1071.72 730-1080Z" stroke="#ED7D31" stroke-width="2" stroke-miterlimit="8" fill="none" fill-rule="evenodd"/><path d="M739-1010C739-1013.31 741.686-1016 745-1016 748.314-1016 751-1013.31 751-1010 751-1006.69 748.314-1004 745-1004 741.686-1004 739-1006.69 739-1010Z" fill="#ED7D31" fill-rule="evenodd"/><path d="M0 0 0.000104987 48.4063" stroke="#ED7D31" stroke-width="2" stroke-miterlimit="8" fill="none" fill-rule="evenodd" transform="matrix(1 0 0 -1 745 -1016.59)"/><rect x="790" y="-1104" width="48" height="46" stroke="#ED7D31" stroke-width="2" stroke-miterlimit="8" fill="#FFFFFF"/><text fill="#ED7D31" font-family="Cambria Math,Cambria Math_MSFontService,sans-serif" font-weight="400" font-size="32" transform="translate(799.859 -1070)"><tspan font-size="32" x="7.00006" y="0">𝑇</tspan></text><path d="M867-1080C867-1088.28 873.94-1095 882.5-1095 891.06-1095 898-1088.28 898-1080 898-1071.72 891.06-1065 882.5-1065 873.94-1065 867-1071.72 867-1080Z" fill="#FFFFFF" fill-rule="evenodd"/><path d="M882.5-1095 882.5-1065M867-1080 898-1080" stroke="#ED7D31" stroke-width="2" stroke-miterlimit="8" fill="none" fill-rule="evenodd"/><path d="M867-1080C867-1088.28 873.94-1095 882.5-1095 891.06-1095 898-1088.28 898-1080 898-1071.72 891.06-1065 882.5-1065 873.94-1065 867-1071.72 867-1080Z" stroke="#ED7D31" stroke-width="2" stroke-miterlimit="8" fill="none" fill-rule="evenodd"/><path d="M876-940C876-943.314 878.686-946 882-946 885.314-946 888-943.314 888-940 888-936.686 885.314-934 882-934 878.686-934 876-936.686 876-940Z" fill="#ED7D31" fill-rule="evenodd"/><path d="M0 0 0.000104987 119.36" stroke="#ED7D31" stroke-width="2" stroke-miterlimit="8" fill="none" fill-rule="evenodd" transform="matrix(1 0 0 -1 882 -945.64)"/><rect x="343" y="-1102" width="48" height="45" stroke="#ED7D31" stroke-width="2" stroke-miterlimit="8" fill="#FFFFFF"/><text fill="#ED7D31" font-family="Cambria Math,Cambria Math_MSFontService,sans-serif" font-weight="400" font-size="32" transform="translate(352.915 -1069)">𝑇</text><rect x="983" y="-961" width="48" height="45" stroke="#ED7D31" stroke-width="2" stroke-miterlimit="8" fill="#FFFFFF"/><text fill="#ED7D31" font-family="Cambria Math,Cambria Math_MSFontService,sans-serif" font-weight="400" font-size="32" transform="translate(993.086 -928)">𝑇</text><rect x="983" y="-1103" width="48" height="45" stroke="#ED7D31" stroke-width="2" stroke-miterlimit="8" fill="#FFFFFF"/><text fill="#ED7D31" font-family="Cambria Math,Cambria Math_MSFontService,sans-serif" font-weight="400" font-size="32" transform="translate(993.086 -1070)">𝑇<tspan font-size="23" x="20.7133" y="-11">†</tspan></text><path d="M830.25-1167.5 830.25-1141 843.5-1141 817-1114.5 790.5-1141 803.75-1141 803.75-1167.5Z" stroke="#70AD47" stroke-width="3" stroke-miterlimit="8" fill="#E2F0D9" fill-rule="evenodd"/></g></svg>