<svg version="1.1" xmlns="http://www.w3.org/2000/svg" viewBox="0 0 990.0906786303154 717.0023710172327" width="1980.1813572606309" height="1434.0047420344654" filter="invert(93%) hue-rotate(180deg)">
  <!-- svg-source:excalidraw -->

  <defs>
    <style>
      @font-face {
        font-family: "Virgil";
        src: url("https://excalidraw.com/Virgil.woff2");
      }
      @font-face {
        font-family: "Cascadia";
        src: url("https://excalidraw.com/Cascadia.woff2");
      }
    </style>
  </defs>
  <rect x="0" y="0" width="990.0906786303154" height="717.0023710172327" fill="#ffffff"></rect><g stroke-linecap="round" transform="translate(456.09067863031544 11.126066414228376) rotate(0 262 162.78511315333648)"><path d="M0.64 -0.63 C119.63 -1.3, 240.85 -2.25, 523.5 0.54 M0.36 0.23 C209.42 -0.06, 418.89 -0.46, 524.04 0.1 M523.62 0.5 C525.65 118.71, 524.27 238.18, 525.09 325.87 M524.61 0.59 C523.25 105.62, 523.53 212.18, 524.38 325.37 M524.02 325.67 C384.88 327.76, 243.75 327.13, 0.22 324.81 M523.93 325.51 C365.73 327.29, 206.71 327.23, 0.17 325.62 M-0.43 325.97 C0.96 230.05, 1.17 134.33, 0.14 -0.35 M0.13 325.88 C2.28 203.83, 1.15 82.72, -0.68 0.08" stroke="#000000" stroke-width="4" fill="none"></path></g><g transform="translate(603.8136496969769 17.117180004084815) rotate(0 119.5 18)"><text x="0" y="25" font-family="Virgil, Segoe UI Emoji" font-size="28px" fill="#000000" text-anchor="start" style="white-space: pre;" direction="ltr">DDP Process #0</text></g><g stroke-linecap="round" transform="translate(494.5502881759244 66.8760983200657) rotate(0 230.44636248076552 86.91403757356466)"><path d="M-0.66 -0.91 C175.38 1.27, 348.63 -0.12, 461.22 0.53 M0.46 -0.19 C99.57 -1.03, 199.31 -1.62, 461.08 -0.28 M462.19 0.26 C462.06 41.32, 461.8 85.7, 460.73 173.8 M461.15 -0.24 C462.19 59.73, 463.11 117.37, 460.28 173.92 M460.58 173.46 C316.96 173.24, 171.49 173.93, 0.39 172.93 M460.91 173.39 C340 171.7, 218.29 172.21, 0.06 173.82 M-0.09 172.62 C0.1 121.44, -0.13 69.72, 0.9 -0.27 M0.73 173.1 C0.14 108.66, 0.28 44.08, -0.32 -0.69" stroke="#000000" stroke-width="1" fill="none"></path></g><g transform="translate(649.2019952651108 77.68189363016137) rotate(0 66.5 18)"><text x="0" y="25" font-family="Virgil, Segoe UI Emoji" font-size="28px" fill="#000000" text-anchor="start" style="white-space: pre;" direction="ltr">Agent #0</text></g><g stroke-linecap="round" transform="translate(13.864291773006585 70.75814878350005) rotate(0 101.5 46.999999999999986)"><path d="M-1.19 0.78 C74.45 -1.14, 145.68 -1.82, 202.68 0.67 M-0.48 -0.48 C45 -0.53, 90.9 -0.18, 202.54 -0.11 M201.81 1.48 C201.63 34.74, 202.01 67.87, 202.14 92.23 M202.41 -0.84 C202.58 25.96, 202.88 54.03, 203.28 94.8 M201.9 94.16 C131.34 92.34, 58.13 94.63, -1.33 94.12 M203.07 94.51 C161.81 95.24, 120.9 95.07, 0.29 93.56 M1.66 92.84 C-0.29 59.7, -1.13 20.61, -1.52 1.88 M-0.62 94.16 C0.16 64.3, 0.78 36.29, -0.71 0.83" stroke="#000000" stroke-width="1" fill="none"></path></g><g transform="translate(18.864291773006585 86.25814878350008) rotate(0 96.5 31.5)"><text x="96.5" y="15" font-family="Virgil, Segoe UI Emoji" font-size="16px" fill="#000000" text-anchor="middle" style="white-space: pre;" direction="ltr">A Process</text><text x="96.5" y="36" font-family="Virgil, Segoe UI Emoji" font-size="16px" fill="#000000" text-anchor="middle" style="white-space: pre;" direction="ltr">Observer #0</text><text x="96.5" y="57" font-family="Virgil, Segoe UI Emoji" font-size="16px" fill="#000000" text-anchor="middle" style="white-space: pre;" direction="ltr">managed by Agent #0</text></g><g stroke-linecap="round" transform="translate(12.768284276403676 169.91563829751914) rotate(0 102.5 47)"><path d="M1.63 -0.76 C64.21 1.31, 131.41 0.55, 206.2 -0.38 M0.1 0.62 C41.31 0.57, 82.52 -0.52, 204.23 -0.54 M203.53 -1.88 C203.65 20.49, 205.25 45.52, 206.36 93.18 M205.55 0.99 C205.48 20.42, 205.4 40.04, 205.15 93.25 M205.61 93.28 C153.06 94.78, 97.64 94.98, 0.7 93.68 M205.65 93.11 C139.21 93.43, 72.79 92.45, -0.56 94.77 M0.35 94.06 C-0.09 70.33, 0.44 46.56, -0.09 0.78 M0.1 93.22 C1.59 65.46, 0.41 37.6, -0.22 0.27" stroke="#000000" stroke-width="1" fill="none"></path></g><g transform="translate(17.768284276403676 185.41563829751914) rotate(0 97.5 31.5)"><text x="97.5" y="15" font-family="Virgil, Segoe UI Emoji" font-size="16px" fill="#000000" text-anchor="middle" style="white-space: pre;" direction="ltr">A Process</text><text x="97.5" y="36" font-family="Virgil, Segoe UI Emoji" font-size="16px" fill="#000000" text-anchor="middle" style="white-space: pre;" direction="ltr">Observer #1</text><text x="97.5" y="57" font-family="Virgil, Segoe UI Emoji" font-size="16px" fill="#000000" text-anchor="middle" style="white-space: pre;" direction="ltr">managed by Agent #0</text></g><g stroke-linecap="round"><g transform="translate(495.5435914624792 129.4542053730322) rotate(0 -139.10747329424652 1.8862569695223783)"><path d="M0.13 -0.51 C-45.97 0.11, -230.99 3.68, -277.42 4.68 M-1.27 -1.82 C-47.44 -1.18, -232.54 4.18, -278.34 5.6" stroke="#000000" stroke-width="1" fill="none"></path></g><g transform="translate(495.5435914624792 129.4542053730322) rotate(0 -139.10747329424652 1.8862569695223783)"><path d="M-251.31 -5.41 C-258.74 -4.54, -263.74 -2.36, -276.41 7.51 M-250.39 -6.04 C-260.52 -1.9, -270.46 3.29, -279.13 5.64" stroke="#000000" stroke-width="1" fill="none"></path></g><g transform="translate(495.5435914624792 129.4542053730322) rotate(0 -139.10747329424652 1.8862569695223783)"><path d="M-250.71 15.1 C-258.44 11.28, -263.57 8.76, -276.41 7.51 M-249.78 14.48 C-260.17 11.11, -270.33 8.79, -279.13 5.64" stroke="#000000" stroke-width="1" fill="none"></path></g></g><g stroke-linecap="round"><g transform="translate(493.55028817592427 197.37116415085148) rotate(0 -137.47316034876107 -0.20211558393387463)"><path d="M0.43 -0.08 C-45.58 0.26, -229.48 0.53, -275.38 0.8 M-0.8 -1.16 C-46.47 -1.1, -227.14 -1.31, -272.98 -1.14" stroke="#000000" stroke-width="1" fill="none"></path></g><g transform="translate(493.55028817592427 197.37116415085148) rotate(0 -137.47316034876107 -0.20211558393387463)"><path d="M-244.93 -12.43 C-254.42 -7.98, -263.19 -5.84, -271.73 0.13 M-245.56 -11.27 C-251.55 -8.24, -258.39 -6.29, -272.09 -1.51" stroke="#000000" stroke-width="1" fill="none"></path></g><g transform="translate(493.55028817592427 197.37116415085148) rotate(0 -137.47316034876107 -0.20211558393387463)"><path d="M-244.91 8.1 C-254.21 5.19, -262.98 0, -271.73 0.13 M-245.54 9.26 C-251.65 7.07, -258.49 3.81, -272.09 -1.51" stroke="#000000" stroke-width="1" fill="none"></path></g></g><g transform="translate(266.039047425484 136.18701451823836) rotate(0 88.5 25.5)"><text x="0" y="18.5" font-family="Virgil, Segoe UI Emoji" font-size="20px" fill="#364fc7" text-anchor="start" style="white-space: pre;" direction="ltr">Remote async call</text><text x="0" y="44" font-family="Virgil, Segoe UI Emoji" font-size="20px" fill="#364fc7" text-anchor="start" style="white-space: pre;" direction="ltr">run_episode</text></g><g stroke-linecap="round"><g transform="translate(219.407010743831 71.71555240024759) rotate(0 135.76096493902475 11.890112588908252)"><path d="M0.66 -0.09 C45.91 3.76, 225.88 19.99, 270.86 23.87" stroke="#000000" stroke-width="1.5" fill="none" stroke-dasharray="8 9"></path></g><g transform="translate(219.407010743831 71.71555240024759) rotate(0 135.76096493902475 11.890112588908252)"><path d="M241.73 30.48 C248.55 27.86, 254.57 27.71, 272.77 24.58" stroke="#000000" stroke-width="1.5" fill="none"></path></g><g transform="translate(219.407010743831 71.71555240024759) rotate(0 135.76096493902475 11.890112588908252)"><path d="M243.54 10.04 C250.05 12.46, 255.62 17.35, 272.77 24.58" stroke="#000000" stroke-width="1.5" fill="none"></path></g></g><g stroke-linecap="round"><g transform="translate(218.76828427640368 242.14253411278128) rotate(0 138.26416065172074 -11.949431066151107)"><path d="M0.76 -0.84 C46.64 -4.54, 230.02 -19.59, 275.77 -23.06" stroke="#000000" stroke-width="1.5" fill="none" stroke-dasharray="8 9"></path></g><g transform="translate(218.76828427640368 242.14253411278128) rotate(0 138.26416065172074 -11.949431066151107)"><path d="M247.09 -8.78 C256.59 -14, 268.15 -18.51, 274.04 -23.54" stroke="#000000" stroke-width="1.5" fill="none"></path></g><g transform="translate(218.76828427640368 242.14253411278128) rotate(0 138.26416065172074 -11.949431066151107)"><path d="M245.46 -29.24 C255.37 -27.5, 267.48 -25.06, 274.04 -23.54" stroke="#000000" stroke-width="1.5" fill="none"></path></g></g><g transform="translate(236.66411232689148 243.32412745230505) rotate(354.3686492810035 104 25.5)"><text x="0" y="18.5" font-family="Virgil, Segoe UI Emoji" font-size="20px" fill="#364fc7" text-anchor="start" style="white-space: pre;" direction="ltr">remote sync call</text><text x="0" y="44" font-family="Virgil, Segoe UI Emoji" font-size="20px" fill="#364fc7" text-anchor="start" style="white-space: pre;" direction="ltr">select_action_batch</text></g><g transform="translate(237.9516652793377 20.221835128538487) rotate(5.710593137499582 104 25.5)"><text x="0" y="18.5" font-family="Virgil, Segoe UI Emoji" font-size="20px" fill="#364fc7" text-anchor="start" style="white-space: pre;" direction="ltr">remote sync call</text><text x="0" y="44" font-family="Virgil, Segoe UI Emoji" font-size="20px" fill="#364fc7" text-anchor="start" style="white-space: pre;" direction="ltr">select_action_batch</text></g><g transform="translate(589.2099062890328 166.17416593498547) rotate(0 139.5 13)"><text x="0" y="18" font-family="Virgil, Segoe UI Emoji" font-size="20px" fill="#000000" text-anchor="start" style="white-space: pre;" direction="ltr">collect data from observers</text></g><g transform="translate(520.8885502205644 270.3043483835074) rotate(0 207.5 18)"><text x="0" y="25" font-family="Virgil, Segoe UI Emoji" font-size="28px" fill="#000000" text-anchor="start" style="white-space: pre;" direction="ltr">Training Loop: update network</text></g><g stroke-linecap="round" transform="translate(453.3223943539118 381.4321447105598) rotate(0 262 162.78511315333645)"><path d="M-0.75 -0.8 C127.84 -1.24, 257.09 -1.61, 524.75 0.09 M0.12 0.32 C107.31 -0.4, 214.93 -0.52, 523.92 0.32 M524.32 -1.02 C522.49 89.46, 522.6 176.6, 522.86 325.7 M523.99 0.22 C522.4 79.53, 522.08 159.87, 524.65 326.1 M523.7 325.05 C333.49 327.16, 141.99 327.02, -0.14 324.79 M523.74 325.77 C359.37 327.19, 194.72 327.17, 0.31 325.45 M-0.83 326.65 C-0.18 205.73, 0.36 85.24, 1.3 0.3 M0.04 325.94 C-0.61 246.77, -1.29 168.74, 0.12 0.08" stroke="#000000" stroke-width="4" fill="none"></path></g><g transform="translate(601.0453654205733 387.42325830041625) rotate(0 113.5 18)"><text x="0" y="25" font-family="Virgil, Segoe UI Emoji" font-size="28px" fill="#000000" text-anchor="start" style="white-space: pre;" direction="ltr">DDP Process #1</text></g><g stroke-linecap="round" transform="translate(491.78200389952065 437.1821766163971) rotate(0 230.44636248076546 86.91403757356466)"><path d="M-0.75 -0.15 C162.86 1.56, 326.3 2.25, 460.01 0.57 M-0.3 -0.05 C145.88 -1.89, 292.16 -1.33, 460.77 -0.07 M459.17 1.04 C459.73 63.65, 459.65 130.07, 459.81 172.57 M460.62 -0.67 C460.13 67.28, 461.81 135.66, 461.53 173.55 M461.23 174.19 C293.94 172.62, 127.78 171.52, 0.13 174.43 M460.73 173.71 C284.51 174.77, 109.18 174.77, 0.33 173.83 M-0.25 174.92 C1.58 137.45, 2.92 99.02, -1.2 0.85 M0.49 172.83 C-0.58 103.56, 0.09 35.14, 0.63 -0.73" stroke="#000000" stroke-width="1" fill="none"></path></g><g transform="translate(646.433710988707 447.9879719264927) rotate(0 61 18)"><text x="0" y="25" font-family="Virgil, Segoe UI Emoji" font-size="28px" fill="#000000" text-anchor="start" style="white-space: pre;" direction="ltr">Agent #1</text></g><g stroke-linecap="round" transform="translate(11.096007496602908 441.0642270798314) rotate(0 101.5 47)"><path d="M0.28 -1.12 C42.32 0.49, 79.57 1.39, 203.31 0.56 M-0.47 -0.36 C76.8 0.9, 153.72 0.06, 203.66 0.21 M201.44 -1.28 C200.55 21.45, 201.11 41.26, 204.76 93.96 M202.27 -0.17 C203.69 31.92, 203.39 62.04, 203.61 93.62 M202.09 94.38 C155.09 92.96, 108.07 95.87, 1.47 92.82 M202.32 93.73 C132.53 93.29, 61.31 93.56, -0.75 93.47 M0.55 95.24 C2 58.86, -1.09 23.7, 1.99 0.11 M-0.49 93.13 C-0.28 60.83, 0.17 26.68, 0.95 0.65" stroke="#000000" stroke-width="1" fill="none"></path></g><g transform="translate(16.09600749660291 456.5642270798314) rotate(0 96.5 31.5)"><text x="96.5" y="15" font-family="Virgil, Segoe UI Emoji" font-size="16px" fill="#000000" text-anchor="middle" style="white-space: pre;" direction="ltr">A Process</text><text x="96.5" y="36" font-family="Virgil, Segoe UI Emoji" font-size="16px" fill="#000000" text-anchor="middle" style="white-space: pre;" direction="ltr">Observer #0</text><text x="96.5" y="57" font-family="Virgil, Segoe UI Emoji" font-size="16px" fill="#000000" text-anchor="middle" style="white-space: pre;" direction="ltr">managed by Agent #1</text></g><g stroke-linecap="round" transform="translate(10 540.2217165938505) rotate(0 102.5 47)"><path d="M1.68 0.2 C56.55 2.24, 116.78 1.7, 206.41 -1.15 M-0.18 0.71 C59.13 0.61, 119.4 0.94, 204.34 -0.77 M203.36 0.19 C203.18 31.83, 206.03 66.15, 205.63 93.46 M205.95 0.76 C204.96 21.58, 204.93 43.34, 204.34 94.37 M204.68 92.26 C135.76 95.55, 67.48 93.21, 0.9 93.37 M205.69 93.73 C149.15 93.46, 91.29 92.92, 0.7 93.89 M1.88 94.43 C-1.46 61.52, 1.73 27.45, 1.08 0.97 M0.18 94.12 C1.09 74.43, 1.41 56.96, -0.99 0.73" stroke="#000000" stroke-width="1" fill="none"></path></g><g transform="translate(15 555.7217165938505) rotate(0 97.5 31.5)"><text x="97.5" y="15" font-family="Virgil, Segoe UI Emoji" font-size="16px" fill="#000000" text-anchor="middle" style="white-space: pre;" direction="ltr">A Process</text><text x="97.5" y="36" font-family="Virgil, Segoe UI Emoji" font-size="16px" fill="#000000" text-anchor="middle" style="white-space: pre;" direction="ltr">Observer #1</text><text x="97.5" y="57" font-family="Virgil, Segoe UI Emoji" font-size="16px" fill="#000000" text-anchor="middle" style="white-space: pre;" direction="ltr">managed by Agent #1</text></g><g stroke-linecap="round"><g transform="translate(492.77530718607557 499.7602836693636) rotate(0 -138.57753024541356 2.471350155107359)"><path d="M0.14 -1.14 C-45.86 -0.31, -230.52 4.75, -276.73 6.08 M-1.25 0.88 C-47.28 1.83, -231.22 3.38, -277.29 4.06" stroke="#000000" stroke-width="1" fill="none"></path></g><g transform="translate(492.77530718607557 499.7602836693636) rotate(0 -138.57753024541356 2.471350155107359)"><path d="M-251.11 -5.29 C-255.44 -3.35, -260.86 -2.75, -277.5 3.01 M-249.49 -6.66 C-255.79 -3.31, -264.56 -1.66, -276.77 3.28" stroke="#000000" stroke-width="1" fill="none"></path></g><g transform="translate(492.77530718607557 499.7602836693636) rotate(0 -138.57753024541356 2.471350155107359)"><path d="M-250.88 15.23 C-255.45 12.3, -260.93 8.03, -277.5 3.01 M-249.26 13.86 C-255.58 11.88, -264.4 8.21, -276.77 3.28" stroke="#000000" stroke-width="1" fill="none"></path></g></g><g stroke-linecap="round"><g transform="translate(490.78200389952065 567.6772424471828) rotate(0 -137.47521747136784 -0.08862539679859083)"><path d="M-1.14 0.74 C-47.09 0.85, -229.13 1.01, -274.58 0.84 M0.47 0.08 C-45.72 -0.19, -229.66 -1.18, -275.42 -1.09" stroke="#000000" stroke-width="1" fill="none"></path></g><g transform="translate(490.78200389952065 567.6772424471828) rotate(0 -137.47521747136784 -0.08862539679859083)"><path d="M-245.97 -10.95 C-257.69 -5.95, -270.72 -3.73, -276.47 -1.9 M-247.35 -10.55 C-254.79 -9.25, -263.79 -5.13, -276.2 -1.73" stroke="#000000" stroke-width="1" fill="none"></path></g><g transform="translate(490.78200389952065 567.6772424471828) rotate(0 -137.47521747136784 -0.08862539679859083)"><path d="M-246.02 9.58 C-257.74 6.48, -270.75 0.62, -276.47 -1.9 M-247.39 9.97 C-254.99 5.53, -263.98 3.89, -276.2 -1.73" stroke="#000000" stroke-width="1" fill="none"></path></g></g><g transform="translate(263.2707631490803 507.9193515411331) rotate(0 88.5 25.5)"><text x="0" y="18.5" font-family="Virgil, Segoe UI Emoji" font-size="20px" fill="#364fc7" text-anchor="start" style="white-space: pre;" direction="ltr">Remote async call</text><text x="0" y="44" font-family="Virgil, Segoe UI Emoji" font-size="20px" fill="#364fc7" text-anchor="start" style="white-space: pre;" direction="ltr">run_episode</text></g><g stroke-linecap="round"><g transform="translate(216.63872646742732 442.021630696579) rotate(0 136.3422324985531 11.856478581931185)"><path d="M0.2 0.37 C45.81 4.14, 227.28 19.49, 272.48 23.34" stroke="#000000" stroke-width="1.5" fill="none" stroke-dasharray="8 9"></path></g><g transform="translate(216.63872646742732 442.021630696579) rotate(0 136.3422324985531 11.856478581931185)"><path d="M244.14 32.77 C248.13 29.32, 254.31 27.11, 272.08 24.94" stroke="#000000" stroke-width="1.5" fill="none"></path></g><g transform="translate(216.63872646742732 442.021630696579) rotate(0 136.3422324985531 11.856478581931185)"><path d="M245.88 12.32 C249.63 13.07, 255.46 15.06, 272.08 24.94" stroke="#000000" stroke-width="1.5" fill="none"></path></g></g><g stroke-linecap="round"><g transform="translate(216 612.4486124091127) rotate(0 137.1394359111857 -10.73738143214149)"><path d="M0.37 0.95 C45.9 -2.82, 228.29 -18.47, 273.91 -22.43" stroke="#000000" stroke-width="1.5" fill="none" stroke-dasharray="8 9"></path></g><g transform="translate(216 612.4486124091127) rotate(0 137.1394359111857 -10.73738143214149)"><path d="M248.28 -11.07 C256.31 -15.49, 265.54 -19.4, 275.5 -22.97" stroke="#000000" stroke-width="1.5" fill="none"></path></g><g transform="translate(216 612.4486124091127) rotate(0 137.1394359111857 -10.73738143214149)"><path d="M246.52 -31.52 C255.22 -28.55, 265.09 -25.07, 275.5 -22.97" stroke="#000000" stroke-width="1.5" fill="none"></path></g></g><g transform="translate(233.8958280504878 613.6302057486364) rotate(354.3686492810035 104 25.5)"><text x="0" y="18.5" font-family="Virgil, Segoe UI Emoji" font-size="20px" fill="#364fc7" text-anchor="start" style="white-space: pre;" direction="ltr">remote sync call</text><text x="0" y="44" font-family="Virgil, Segoe UI Emoji" font-size="20px" fill="#364fc7" text-anchor="start" style="white-space: pre;" direction="ltr">select_action_batch</text></g><g transform="translate(235.18338100293403 390.5279134248699) rotate(5.710593137499582 104 25.5)"><text x="0" y="18.5" font-family="Virgil, Segoe UI Emoji" font-size="20px" fill="#364fc7" text-anchor="start" style="white-space: pre;" direction="ltr">remote sync call</text><text x="0" y="44" font-family="Virgil, Segoe UI Emoji" font-size="20px" fill="#364fc7" text-anchor="start" style="white-space: pre;" direction="ltr">select_action_batch</text></g><g transform="translate(586.4416220126291 536.4802442313169) rotate(0 139.5 13)"><text x="0" y="18" font-family="Virgil, Segoe UI Emoji" font-size="20px" fill="#000000" text-anchor="start" style="white-space: pre;" direction="ltr">collect data from observers</text></g><g transform="translate(518.1202659441607 640.6104266798387) rotate(0 207.5 18)"><text x="0" y="25" font-family="Virgil, Segoe UI Emoji" font-size="28px" fill="#000000" text-anchor="start" style="white-space: pre;" direction="ltr">Training Loop: update network</text></g></svg>
