<svg width="630" height="1310" xmlns="http://www.w3.org/2000/svg" xmlns:xlink="http://www.w3.org/1999/xlink" overflow="hidden"><defs><clipPath id="clip0"><rect x="654" y="-586" width="630" height="1310"/></clipPath></defs><g clip-path="url(#clip0)" transform="translate(-654 586)"><path d="M1145.75-409.5 1145.75-388 1156.5-388 1135-366.5 1113.5-388 1124.25-388 1124.25-409.5Z" stroke="#70AD47" stroke-width="3" stroke-miterlimit="8" fill="#E2F0D9" fill-rule="evenodd" fill-opacity="0.501961"/><rect x="1074.5" y="-583.5" width="120" height="170" stroke="#70AD47" stroke-width="3" stroke-miterlimit="8" fill="#E2F0D9" fill-opacity="0.501961"/><text font-family="Cambria Math,Cambria Math_MSFontService,sans-serif" font-weight="400" font-size="27" transform="translate(674.464 -431)">𝑞<tspan font-size="20" x="13.8133" y="5">2</tspan><tspan font-size="27" x="0" y="-58">𝑞</tspan><tspan font-size="20" x="13.1933" y="-53">1</tspan><tspan font-size="27" x="-0.158997" y="-115">𝑞</tspan><tspan font-size="20" x="13.6544" y="-110">0</tspan></text><path d="M707-439 1228.61-439" stroke="#000000" stroke-width="2" stroke-miterlimit="8" fill="none" fill-rule="evenodd"/><path d="M707-497 1228.61-497" stroke="#000000" stroke-width="2" stroke-miterlimit="8" fill="none" fill-rule="evenodd"/><path d="M707-554 1228.81-554" stroke="#000000" stroke-width="2" stroke-miterlimit="8" fill="none" fill-rule="evenodd"/><rect x="774" y="-574" width="39" height="37" stroke="#ED7D31" stroke-width="2" stroke-miterlimit="8" fill="#FFFFFF"/><text fill="#ED7D31" font-family="Cambria Math,Cambria Math_MSFontService,sans-serif" font-weight="400" font-size="24" transform="translate(783.908 -548)"><tspan font-size="24" x="5.33337" y="0">𝑇</tspan></text><path d="M914-439.5C914-432.596 908.404-427 901.5-427 894.596-427 889-432.596 889-439.5 889-446.404 894.596-452 901.5-452 908.404-452 914-446.404 914-439.5Z" fill="#FFFFFF" fill-rule="evenodd"/><path d="M901.5-427 901.5-452M914-439.5 889-439.5" stroke="#ED7D31" stroke-width="2" stroke-miterlimit="8" fill="none" fill-rule="evenodd"/><path d="M914-439.5C914-432.596 908.404-427 901.5-427 894.596-427 889-432.596 889-439.5 889-446.404 894.596-452 901.5-452 908.404-452 914-446.404 914-439.5Z" stroke="#ED7D31" stroke-width="2" stroke-miterlimit="8" fill="none" fill-rule="evenodd"/><path d="M907-555.5C907-553.015 904.761-551 902-551 899.239-551 897-553.015 897-555.5 897-557.985 899.239-560 902-560 904.761-560 907-557.985 907-555.5Z" fill="#ED7D31" fill-rule="evenodd"/><path d="M0 0 0.000104987 98.705" stroke="#ED7D31" stroke-width="2" stroke-miterlimit="8" fill="none" fill-rule="evenodd" transform="matrix(-1 1.22465e-16 1.22465e-16 1 902 -551)"/><path d="M728-554C728-560.627 733.596-566 740.5-566 747.404-566 753-560.627 753-554 753-547.373 747.404-542 740.5-542 733.596-542 728-547.373 728-554Z" fill="#FFFFFF" fill-rule="evenodd"/><path d="M740.5-566 740.5-542M728-554 753-554" stroke="#ED7D31" stroke-width="2" stroke-miterlimit="8" fill="none" fill-rule="evenodd"/><path d="M728-554C728-560.627 733.596-566 740.5-566 747.404-566 753-560.627 753-554 753-547.373 747.404-542 740.5-542 733.596-542 728-547.373 728-554Z" stroke="#ED7D31" stroke-width="2" stroke-miterlimit="8" fill="none" fill-rule="evenodd"/><path d="M735-496.5C735-498.985 737.239-501 740-501 742.761-501 745-498.985 745-496.5 745-494.015 742.761-492 740-492 737.239-492 735-494.015 735-496.5Z" fill="#ED7D31" fill-rule="evenodd"/><path d="M0 0 0.235381 40.122" stroke="#ED7D31" stroke-width="2" stroke-miterlimit="8" fill="none" fill-rule="evenodd" transform="matrix(1 0 0 -1 740 -501.878)"/><rect x="836" y="-574" width="38" height="37" stroke="#ED7D31" stroke-width="2" stroke-miterlimit="8" fill="#FFFFFF"/><text fill="#ED7D31" font-family="Cambria Math,Cambria Math_MSFontService,sans-serif" font-weight="400" font-size="24" transform="translate(845.199 -548)"><tspan font-size="24" x="5.33337" y="0">𝑇</tspan></text><path d="M936-497C936-503.627 941.596-509 948.5-509 955.404-509 961-503.627 961-497 961-490.373 955.404-485 948.5-485 941.596-485 936-490.373 936-497Z" fill="#FFFFFF" fill-rule="evenodd"/><path d="M948.5-509 948.5-485M936-497 961-497" stroke="#ED7D31" stroke-width="2" stroke-miterlimit="8" fill="none" fill-rule="evenodd"/><path d="M936-497C936-503.627 941.596-509 948.5-509 955.404-509 961-503.627 961-497 961-490.373 955.404-485 948.5-485 941.596-485 936-490.373 936-497Z" stroke="#ED7D31" stroke-width="2" stroke-miterlimit="8" fill="none" fill-rule="evenodd"/><path d="M944-439C944-441.761 946.015-444 948.5-444 950.985-444 953-441.761 953-439 953-436.239 950.985-434 948.5-434 946.015-434 944-436.239 944-439Z" fill="#ED7D31" fill-rule="evenodd"/><path d="M0 0 0.000104987 40.8401" stroke="#ED7D31" stroke-width="2" stroke-miterlimit="8" fill="none" fill-rule="evenodd" transform="matrix(-1 0 0 1 949 -485)"/><rect x="1089" y="-458" width="39" height="37" stroke="#ED7D31" stroke-width="2" stroke-miterlimit="8" fill="#FFFFFF"/><text fill="#ED7D31" font-family="Cambria Math,Cambria Math_MSFontService,sans-serif" font-weight="400" font-size="24" transform="translate(1098.78 -431)">𝑇<tspan font-size="18" x="15.62" y="-9">†</tspan></text><path d="M978-554C978-560.627 983.596-566 990.5-566 997.404-566 1003-560.627 1003-554 1003-547.373 997.404-542 990.5-542 983.596-542 978-547.373 978-554Z" fill="#FFFFFF" fill-rule="evenodd"/><path d="M990.5-566 990.5-542M978-554 1003-554" stroke="#ED7D31" stroke-width="2" stroke-miterlimit="8" fill="none" fill-rule="evenodd"/><path d="M978-554C978-560.627 983.596-566 990.5-566 997.404-566 1003-560.627 1003-554 1003-547.373 997.404-542 990.5-542 983.596-542 978-547.373 978-554Z" stroke="#ED7D31" stroke-width="2" stroke-miterlimit="8" fill="none" fill-rule="evenodd"/><path d="M986-496C986-498.761 988.239-501 991-501 993.761-501 996-498.761 996-496 996-493.239 993.761-491 991-491 988.239-491 986-493.239 986-496Z" fill="#ED7D31" fill-rule="evenodd"/><path d="M0 0 0.000104987 40.7321" stroke="#ED7D31" stroke-width="2" stroke-miterlimit="8" fill="none" fill-rule="evenodd" transform="matrix(1 0 0 -1 991 -501.268)"/><rect x="1025" y="-573" width="39" height="37" stroke="#ED7D31" stroke-width="2" stroke-miterlimit="8" fill="#FFFFFF"/><text fill="#ED7D31" font-family="Cambria Math,Cambria Math_MSFontService,sans-serif" font-weight="400" font-size="24" transform="translate(1034.73 -547)"><tspan font-size="24" x="5.33337" y="0">𝑇</tspan></text><path d="M1155-553.5C1155-560.404 1160.6-566 1167.5-566 1174.4-566 1180-560.404 1180-553.5 1180-546.596 1174.4-541 1167.5-541 1160.6-541 1155-546.596 1155-553.5Z" fill="#FFFFFF" fill-rule="evenodd"/><path d="M1167.5-566 1167.5-541M1155-553.5 1180-553.5" stroke="#ED7D31" stroke-width="2" stroke-miterlimit="8" fill="none" fill-rule="evenodd"/><path d="M1155-553.5C1155-560.404 1160.6-566 1167.5-566 1174.4-566 1180-560.404 1180-553.5 1180-546.596 1174.4-541 1167.5-541 1160.6-541 1155-546.596 1155-553.5Z" stroke="#ED7D31" stroke-width="2" stroke-miterlimit="8" fill="none" fill-rule="evenodd"/><path d="M1162-439C1162-441.761 1164.24-444 1167-444 1169.76-444 1172-441.761 1172-439 1172-436.239 1169.76-434 1167-434 1164.24-434 1162-436.239 1162-439Z" fill="#ED7D31" fill-rule="evenodd"/><path d="M0 0 0.000104987 97.8753" stroke="#ED7D31" stroke-width="2" stroke-miterlimit="8" fill="none" fill-rule="evenodd" transform="matrix(1 0 0 -1 1167 -443.125)"/><rect x="1086.5" y="-347.5" width="119" height="168" stroke="#70AD47" stroke-width="3" stroke-miterlimit="8" fill="#E2F0D9" fill-opacity="0.501961"/><rect x="889.5" y="-360.5" width="244" height="170" stroke="#5B9BD5" stroke-width="3" stroke-miterlimit="8" fill="#DEEBF7" fill-opacity="0.501961"/><text font-family="Cambria Math,Cambria Math_MSFontService,sans-serif" font-weight="400" font-size="27" transform="translate(674.344 -201)">𝑞<tspan font-size="20" x="13.8133" y="5">2</tspan><tspan font-size="27" x="0" y="-58">𝑞</tspan><tspan font-size="20" x="13.1933" y="-53">1</tspan><tspan font-size="27" x="-0.158997" y="-115">𝑞</tspan><tspan font-size="20" x="13.6544" y="-110">0</tspan></text><path d="M707-209 1228.61-209" stroke="#000000" stroke-width="2" stroke-miterlimit="8" fill="none" fill-rule="evenodd"/><path d="M707-267 1228.61-267" stroke="#000000" stroke-width="2" stroke-miterlimit="8" fill="none" fill-rule="evenodd"/><path d="M707-324 1228.81-324" stroke="#000000" stroke-width="2" stroke-miterlimit="8" fill="none" fill-rule="evenodd"/><rect x="774" y="-344" width="39" height="37" stroke="#ED7D31" stroke-width="2" stroke-miterlimit="8" fill="#FFFFFF"/><text fill="#ED7D31" font-family="Cambria Math,Cambria Math_MSFontService,sans-serif" font-weight="400" font-size="24" transform="translate(783.788 -318)"><tspan font-size="24" x="5.33331" y="0">𝑇</tspan></text><path d="M924-209C924-202.373 918.404-197 911.5-197 904.596-197 899-202.373 899-209 899-215.627 904.596-221 911.5-221 918.404-221 924-215.627 924-209Z" fill="#FFFFFF" fill-rule="evenodd"/><path d="M911.5-197 911.5-221M924-209 899-209" stroke="#ED7D31" stroke-width="2" stroke-miterlimit="8" fill="none" fill-rule="evenodd"/><path d="M924-209C924-202.373 918.404-197 911.5-197 904.596-197 899-202.373 899-209 899-215.627 904.596-221 911.5-221 918.404-221 924-215.627 924-209Z" stroke="#ED7D31" stroke-width="2" stroke-miterlimit="8" fill="none" fill-rule="evenodd"/><path d="M916-325.5C916-323.015 913.985-321 911.5-321 909.015-321 907-323.015 907-325.5 907-327.985 909.015-330 911.5-330 913.985-330 916-327.985 916-325.5Z" fill="#ED7D31" fill-rule="evenodd"/><path d="M0 0 0.000104987 99.4868" stroke="#ED7D31" stroke-width="2" stroke-miterlimit="8" fill="none" fill-rule="evenodd" transform="matrix(-1 1.22465e-16 1.22465e-16 1 911 -321)"/><path d="M728-324C728-330.627 733.596-336 740.5-336 747.404-336 753-330.627 753-324 753-317.373 747.404-312 740.5-312 733.596-312 728-317.373 728-324Z" fill="#FFFFFF" fill-rule="evenodd"/><path d="M740.5-336 740.5-312M728-324 753-324" stroke="#ED7D31" stroke-width="2" stroke-miterlimit="8" fill="none" fill-rule="evenodd"/><path d="M728-324C728-330.627 733.596-336 740.5-336 747.404-336 753-330.627 753-324 753-317.373 747.404-312 740.5-312 733.596-312 728-317.373 728-324Z" stroke="#ED7D31" stroke-width="2" stroke-miterlimit="8" fill="none" fill-rule="evenodd"/><path d="M735-267C735-269.761 737.239-272 740-272 742.761-272 745-269.761 745-267 745-264.239 742.761-262 740-262 737.239-262 735-264.239 735-267Z" fill="#ED7D31" fill-rule="evenodd"/><path d="M0 0 0.000104987 39.4288" stroke="#ED7D31" stroke-width="2" stroke-miterlimit="8" fill="none" fill-rule="evenodd" transform="matrix(1 0 0 -1 740 -272.571)"/><rect x="835" y="-344" width="39" height="37" stroke="#ED7D31" stroke-width="2" stroke-miterlimit="8" fill="#FFFFFF"/><text fill="#ED7D31" font-family="Cambria Math,Cambria Math_MSFontService,sans-serif" font-weight="400" font-size="24" transform="translate(845.079 -318)"><tspan font-size="24" x="5.33331" y="0">𝑇</tspan></text><path d="M946-267.5C946-274.404 951.596-280 958.5-280 965.404-280 971-274.404 971-267.5 971-260.596 965.404-255 958.5-255 951.596-255 946-260.596 946-267.5Z" fill="#FFFFFF" fill-rule="evenodd"/><path d="M958.5-280 958.5-255M946-267.5 971-267.5" stroke="#ED7D31" stroke-width="2" stroke-miterlimit="8" fill="none" fill-rule="evenodd"/><path d="M946-267.5C946-274.404 951.596-280 958.5-280 965.404-280 971-274.404 971-267.5 971-260.596 965.404-255 958.5-255 951.596-255 946-260.596 946-267.5Z" stroke="#ED7D31" stroke-width="2" stroke-miterlimit="8" fill="none" fill-rule="evenodd"/><path d="M953-210C953-212.761 955.239-215 958-215 960.761-215 963-212.761 963-210 963-207.239 960.761-205 958-205 955.239-205 953-207.239 953-210Z" fill="#ED7D31" fill-rule="evenodd"/><path d="M0 0 0.000104987 40.8401" stroke="#ED7D31" stroke-width="2" stroke-miterlimit="8" fill="none" fill-rule="evenodd" transform="matrix(-1 0 0 1 958 -255)"/><rect x="1150" y="-228" width="39" height="37" stroke="#ED7D31" stroke-width="2" stroke-miterlimit="8" fill="#FFFFFF"/><text fill="#ED7D31" font-family="Cambria Math,Cambria Math_MSFontService,sans-serif" font-weight="400" font-size="24" transform="translate(1160.06 -201)">𝑇<tspan font-size="18" x="15.62" y="-9">†</tspan></text><path d="M988-324C988-330.627 993.596-336 1000.5-336 1007.4-336 1013-330.627 1013-324 1013-317.373 1007.4-312 1000.5-312 993.596-312 988-317.373 988-324Z" fill="#FFFFFF" fill-rule="evenodd"/><path d="M1000.5-336 1000.5-312M988-324 1013-324" stroke="#ED7D31" stroke-width="2" stroke-miterlimit="8" fill="none" fill-rule="evenodd"/><path d="M988-324C988-330.627 993.596-336 1000.5-336 1007.4-336 1013-330.627 1013-324 1013-317.373 1007.4-312 1000.5-312 993.596-312 988-317.373 988-324Z" stroke="#ED7D31" stroke-width="2" stroke-miterlimit="8" fill="none" fill-rule="evenodd"/><path d="M996-267C996-269.761 998.015-272 1000.5-272 1002.99-272 1005-269.761 1005-267 1005-264.239 1002.99-262 1000.5-262 998.015-262 996-264.239 996-267Z" fill="#ED7D31" fill-rule="evenodd"/><path d="M0 0 0.000104987 39.4288" stroke="#ED7D31" stroke-width="2" stroke-miterlimit="8" fill="none" fill-rule="evenodd" transform="matrix(1 0 0 -1 1000 -272.571)"/><rect x="1037" y="-343" width="39" height="36" stroke="#ED7D31" stroke-width="2" stroke-miterlimit="8" fill="#FFFFFF"/><text fill="#ED7D31" font-family="Cambria Math,Cambria Math_MSFontService,sans-serif" font-weight="400" font-size="24" transform="translate(1046.99 -317)"><tspan font-size="24" x="5.33325" y="0">𝑇</tspan></text><path d="M1100-324.5C1100-331.404 1105.6-337 1112.5-337 1119.4-337 1125-331.404 1125-324.5 1125-317.596 1119.4-312 1112.5-312 1105.6-312 1100-317.596 1100-324.5Z" fill="#FFFFFF" fill-rule="evenodd"/><path d="M1112.5-337 1112.5-312M1100-324.5 1125-324.5" stroke="#ED7D31" stroke-width="2" stroke-miterlimit="8" fill="none" fill-rule="evenodd"/><path d="M1100-324.5C1100-331.404 1105.6-337 1112.5-337 1119.4-337 1125-331.404 1125-324.5 1125-317.596 1119.4-312 1112.5-312 1105.6-312 1100-317.596 1100-324.5Z" stroke="#ED7D31" stroke-width="2" stroke-miterlimit="8" fill="none" fill-rule="evenodd"/><path d="M1108-210C1108-212.761 1110.01-215 1112.5-215 1114.99-215 1117-212.761 1117-210 1117-207.239 1114.99-205 1112.5-205 1110.01-205 1108-207.239 1108-210Z" fill="#ED7D31" fill-rule="evenodd"/><path d="M0 0 0.000104987 97.2236" stroke="#ED7D31" stroke-width="2" stroke-miterlimit="8" fill="none" fill-rule="evenodd" transform="matrix(1 0 0 -1 1112 -214.776)"/><path d="M1026.75-184.5 1026.75-163 1037.5-163 1016-141.5 994.5-163 1005.25-163 1005.25-184.5Z" stroke="#5B9BD5" stroke-width="3" stroke-miterlimit="8" fill="#DEEBF7" fill-rule="evenodd" fill-opacity="0.501961"/><rect x="881.5" y="-136.5" width="244" height="161" stroke="#5B9BD5" stroke-width="3" stroke-miterlimit="8" fill="#DEEBF7" fill-opacity="0.501961"/><rect x="713.5" y="-148.5" width="217" height="104" stroke="#FFC000" stroke-width="3" stroke-miterlimit="8" fill="#FFF2CC" fill-opacity="0.501961"/><text font-family="Cambria Math,Cambria Math_MSFontService,sans-serif" font-weight="400" font-size="27" transform="translate(674.284 6)">𝑞<tspan font-size="20" x="13.8133" y="6">2</tspan><tspan font-size="27" x="0" y="-58">𝑞</tspan><tspan font-size="20" x="13.1933" y="-52">1</tspan><tspan font-size="27" x="-0.158936" y="-115">𝑞</tspan><tspan font-size="20" x="13.6544" y="-109">0</tspan></text><path d="M707-2 1228.61-1.99989" stroke="#000000" stroke-width="2" stroke-miterlimit="8" fill="none" fill-rule="evenodd"/><path d="M707-60 1228.61-59.9999" stroke="#000000" stroke-width="2" stroke-miterlimit="8" fill="none" fill-rule="evenodd"/><path d="M707-117 1228.81-117" stroke="#000000" stroke-width="2" stroke-miterlimit="8" fill="none" fill-rule="evenodd"/><rect x="774" y="-137" width="39" height="37" stroke="#ED7D31" stroke-width="2" stroke-miterlimit="8" fill="#FFFFFF"/><text fill="#ED7D31" font-family="Cambria Math,Cambria Math_MSFontService,sans-serif" font-weight="400" font-size="24" transform="translate(783.728 -111)"><tspan font-size="24" x="5.33337" y="0">𝑇</tspan></text><path d="M1087-59.5C1087-66.4036 1092.6-72 1099.5-72 1106.4-72 1112-66.4036 1112-59.5 1112-52.5964 1106.4-47 1099.5-47 1092.6-47 1087-52.5964 1087-59.5Z" fill="#FFFFFF" fill-rule="evenodd"/><path d="M1099.5-72 1099.5-47M1087-59.5 1112-59.5" stroke="#ED7D31" stroke-width="2" stroke-miterlimit="8" fill="none" fill-rule="evenodd"/><path d="M1087-59.5C1087-66.4036 1092.6-72 1099.5-72 1106.4-72 1112-66.4036 1112-59.5 1112-52.5964 1106.4-47 1099.5-47 1092.6-47 1087-52.5964 1087-59.5Z" stroke="#ED7D31" stroke-width="2" stroke-miterlimit="8" fill="none" fill-rule="evenodd"/><path d="M1094-1.5C1094-3.98528 1096.24-6 1099-6 1101.76-6 1104-3.98528 1104-1.5 1104 0.985281 1101.76 3 1099 3 1096.24 3 1094 0.985281 1094-1.5Z" fill="#ED7D31" fill-rule="evenodd"/><path d="M0 0 0.000104987 40.8401" stroke="#ED7D31" stroke-width="2" stroke-miterlimit="8" fill="none" fill-rule="evenodd" transform="matrix(-1 0 0 1 1099 -47)"/><path d="M728-116.5C728-123.404 733.596-129 740.5-129 747.404-129 753-123.404 753-116.5 753-109.596 747.404-104 740.5-104 733.596-104 728-109.596 728-116.5Z" fill="#FFFFFF" fill-rule="evenodd"/><path d="M740.5-129 740.5-104M728-116.5 753-116.5" stroke="#ED7D31" stroke-width="2" stroke-miterlimit="8" fill="none" fill-rule="evenodd"/><path d="M728-116.5C728-123.404 733.596-129 740.5-129 747.404-129 753-123.404 753-116.5 753-109.596 747.404-104 740.5-104 733.596-104 728-109.596 728-116.5Z" stroke="#ED7D31" stroke-width="2" stroke-miterlimit="8" fill="none" fill-rule="evenodd"/><path d="M735-59C735-61.7614 737.239-64 740-64 742.761-64 745-61.7614 745-59 745-56.2386 742.761-54 740-54 737.239-54 735-56.2386 735-59Z" fill="#ED7D31" fill-rule="evenodd"/><path d="M0 0 0.000104987 40.0804" stroke="#ED7D31" stroke-width="2" stroke-miterlimit="8" fill="none" fill-rule="evenodd" transform="matrix(1 0 0 -1 740 -63.9196)"/><rect x="835" y="-137" width="39" height="37" stroke="#ED7D31" stroke-width="2" stroke-miterlimit="8" fill="#FFFFFF"/><text fill="#ED7D31" font-family="Cambria Math,Cambria Math_MSFontService,sans-serif" font-weight="400" font-size="24" transform="translate(845.02 -111)"><tspan font-size="24" x="5.33331" y="0">𝑇</tspan></text><path d="M1070-1.5C1070 5.40356 1064.4 11 1057.5 11 1050.6 11 1045 5.40356 1045-1.5 1045-8.40356 1050.6-14 1057.5-14 1064.4-14 1070-8.40356 1070-1.5Z" fill="#FFFFFF" fill-rule="evenodd"/><path d="M1057.5 11 1057.5-14M1070-1.5 1045-1.5" stroke="#ED7D31" stroke-width="2" stroke-miterlimit="8" fill="none" fill-rule="evenodd"/><path d="M1070-1.5C1070 5.40356 1064.4 11 1057.5 11 1050.6 11 1045 5.40356 1045-1.5 1045-8.40356 1050.6-14 1057.5-14 1064.4-14 1070-8.40356 1070-1.5Z" stroke="#ED7D31" stroke-width="2" stroke-miterlimit="8" fill="none" fill-rule="evenodd"/><path d="M1063-118C1063-115.239 1060.76-113 1058-113 1055.24-113 1053-115.239 1053-118 1053-120.761 1055.24-123 1058-123 1060.76-123 1063-120.761 1063-118Z" fill="#ED7D31" fill-rule="evenodd"/><path d="M0 0 0.000104987 98.8353" stroke="#ED7D31" stroke-width="2" stroke-miterlimit="8" fill="none" fill-rule="evenodd" transform="matrix(-1 1.22465e-16 1.22465e-16 1 1058 -113)"/><rect x="1141" y="-20" width="38" height="37" stroke="#ED7D31" stroke-width="2" stroke-miterlimit="8" fill="#FFFFFF"/><text fill="#ED7D31" font-family="Cambria Math,Cambria Math_MSFontService,sans-serif" font-weight="400" font-size="24" transform="translate(1150.22 7)">𝑇<tspan font-size="18" x="15.62" y="-9">†</tspan></text><path d="M899-116.5C899-123.404 904.596-129 911.5-129 918.404-129 924-123.404 924-116.5 924-109.596 918.404-104 911.5-104 904.596-104 899-109.596 899-116.5Z" fill="#FFFFFF" fill-rule="evenodd"/><path d="M911.5-129 911.5-104M899-116.5 924-116.5" stroke="#ED7D31" stroke-width="2" stroke-miterlimit="8" fill="none" fill-rule="evenodd"/><path d="M899-116.5C899-123.404 904.596-129 911.5-129 918.404-129 924-123.404 924-116.5 924-109.596 918.404-104 911.5-104 904.596-104 899-109.596 899-116.5Z" stroke="#ED7D31" stroke-width="2" stroke-miterlimit="8" fill="none" fill-rule="evenodd"/><path d="M907-59C907-61.7614 909.015-64 911.5-64 913.985-64 916-61.7614 916-59 916-56.2386 913.985-54 911.5-54 909.015-54 907-56.2386 907-59Z" fill="#ED7D31" fill-rule="evenodd"/><path d="M0 0 0.000104987 40.0804" stroke="#ED7D31" stroke-width="2" stroke-miterlimit="8" fill="none" fill-rule="evenodd" transform="matrix(1 0 0 -1 912 -63.9196)"/><rect x="987" y="-20" width="39" height="37" stroke="#ED7D31" stroke-width="2" stroke-miterlimit="8" fill="#FFFFFF"/><text fill="#ED7D31" font-family="Cambria Math,Cambria Math_MSFontService,sans-serif" font-weight="400" font-size="24" transform="translate(996.487 6)"><tspan font-size="24" x="5.33337" y="0">𝑇</tspan></text><path d="M968-2.5C968 4.40356 962.404 10 955.5 10 948.596 10 943 4.40356 943-2.5 943-9.40356 948.596-15 955.5-15 962.404-15 968-9.40356 968-2.5Z" fill="#FFFFFF" fill-rule="evenodd"/><path d="M955.5 10 955.5-15M968-2.5 943-2.5" stroke="#ED7D31" stroke-width="2" stroke-miterlimit="8" fill="none" fill-rule="evenodd"/><path d="M968-2.5C968 4.40356 962.404 10 955.5 10 948.596 10 943 4.40356 943-2.5 943-9.40356 948.596-15 955.5-15 962.404-15 968-9.40356 968-2.5Z" stroke="#ED7D31" stroke-width="2" stroke-miterlimit="8" fill="none" fill-rule="evenodd"/><path d="M960-60C960-57.2386 957.761-55 955-55 952.239-55 950-57.2386 950-60 950-62.7614 952.239-65 955-65 957.761-65 960-62.7614 960-60Z" fill="#ED7D31" fill-rule="evenodd"/><path d="M0 0 0.000104987 40.5318" stroke="#ED7D31" stroke-width="2" stroke-miterlimit="8" fill="none" fill-rule="evenodd" transform="matrix(-1 1.22465e-16 1.22465e-16 1 955 -55)"/><rect x="711.5" y="81.5001" width="217" height="103" stroke="#FFC000" stroke-width="3" stroke-miterlimit="8" fill="#FFF2CC" fill-opacity="0.501961"/><rect x="722.5" y="53.5001" width="253" height="202" stroke="#70AD47" stroke-width="3" stroke-miterlimit="8" fill="#E2F0D9" fill-opacity="0.2"/><text font-family="Cambria Math,Cambria Math_MSFontService,sans-serif" font-weight="400" font-size="27" transform="translate(674.344 220)">𝑞<tspan font-size="20" x="13.8134" y="5">2</tspan><tspan font-size="27" x="0" y="-58">𝑞</tspan><tspan font-size="20" x="13.1934" y="-53">1</tspan><tspan font-size="27" x="-0.15918" y="-115">𝑞</tspan><tspan font-size="20" x="13.6542" y="-110">0</tspan></text><path d="M707 212 1228.61 212" stroke="#000000" stroke-width="2" stroke-miterlimit="8" fill="none" fill-rule="evenodd"/><path d="M707 154 1228.61 154" stroke="#000000" stroke-width="2" stroke-miterlimit="8" fill="none" fill-rule="evenodd"/><path d="M707 97 1228.81 97.0001" stroke="#000000" stroke-width="2" stroke-miterlimit="8" fill="none" fill-rule="evenodd"/><rect x="770" y="136" width="39" height="36" stroke="#ED7D31" stroke-width="2" stroke-miterlimit="8" fill="#FFFFFF"/><text fill="#ED7D31" font-family="Cambria Math,Cambria Math_MSFontService,sans-serif" font-weight="400" font-size="24" transform="translate(779.911 162)"><tspan font-size="24" x="5.33337" y="0">𝑇</tspan></text><path d="M1087 153.5C1087 146.596 1092.6 141 1099.5 141 1106.4 141 1112 146.596 1112 153.5 1112 160.404 1106.4 166 1099.5 166 1092.6 166 1087 160.404 1087 153.5Z" fill="#FFFFFF" fill-rule="evenodd"/><path d="M1099.5 141 1099.5 166M1087 153.5 1112 153.5" stroke="#ED7D31" stroke-width="2" stroke-miterlimit="8" fill="none" fill-rule="evenodd"/><path d="M1087 153.5C1087 146.596 1092.6 141 1099.5 141 1106.4 141 1112 146.596 1112 153.5 1112 160.404 1106.4 166 1099.5 166 1092.6 166 1087 160.404 1087 153.5Z" stroke="#ED7D31" stroke-width="2" stroke-miterlimit="8" fill="none" fill-rule="evenodd"/><path d="M1094 212C1094 209.239 1096.24 207 1099 207 1101.76 207 1104 209.239 1104 212 1104 214.761 1101.76 217 1099 217 1096.24 217 1094 214.761 1094 212Z" fill="#ED7D31" fill-rule="evenodd"/><path d="M0 0 0.000104987 40.8401" stroke="#ED7D31" stroke-width="2" stroke-miterlimit="8" fill="none" fill-rule="evenodd" transform="matrix(-1 0 0 1 1099 166)"/><path d="M751 154C751 160.627 745.404 166 738.5 166 731.596 166 726 160.627 726 154 726 147.373 731.596 142 738.5 142 745.404 142 751 147.373 751 154Z" fill="#FFFFFF" fill-rule="evenodd"/><path d="M738.5 166 738.5 142M751 154 726 154" stroke="#ED7D31" stroke-width="2" stroke-miterlimit="8" fill="none" fill-rule="evenodd"/><path d="M751 154C751 160.627 745.404 166 738.5 166 731.596 166 726 160.627 726 154 726 147.373 731.596 142 738.5 142 745.404 142 751 147.373 751 154Z" stroke="#ED7D31" stroke-width="2" stroke-miterlimit="8" fill="none" fill-rule="evenodd"/><path d="M744 97C744 99.7614 741.761 102 739 102 736.239 102 734 99.7614 734 97 734 94.2386 736.239 92 739 92 741.761 92 744 94.2386 744 97Z" fill="#ED7D31" fill-rule="evenodd"/><path d="M739 141.429 739 102" stroke="#ED7D31" stroke-width="2" stroke-miterlimit="8" fill="none" fill-rule="evenodd"/><rect x="834" y="135" width="38" height="37" stroke="#ED7D31" stroke-width="2" stroke-miterlimit="8" fill="#FFFFFF"/><text fill="#ED7D31" font-family="Cambria Math,Cambria Math_MSFontService,sans-serif" font-weight="400" font-size="24" transform="translate(843.146 161)"><tspan font-size="24" x="5.33331" y="0">𝑇</tspan></text><path d="M1070 212.5C1070 219.404 1064.4 225 1057.5 225 1050.6 225 1045 219.404 1045 212.5 1045 205.596 1050.6 200 1057.5 200 1064.4 200 1070 205.596 1070 212.5Z" fill="#FFFFFF" fill-rule="evenodd"/><path d="M1057.5 225 1057.5 200M1070 212.5 1045 212.5" stroke="#ED7D31" stroke-width="2" stroke-miterlimit="8" fill="none" fill-rule="evenodd"/><path d="M1070 212.5C1070 219.404 1064.4 225 1057.5 225 1050.6 225 1045 219.404 1045 212.5 1045 205.596 1050.6 200 1057.5 200 1064.4 200 1070 205.596 1070 212.5Z" stroke="#ED7D31" stroke-width="2" stroke-miterlimit="8" fill="none" fill-rule="evenodd"/><path d="M1063 96C1063 98.7614 1060.76 101 1058 101 1055.24 101 1053 98.7614 1053 96 1053 93.2386 1055.24 91 1058 91 1060.76 91 1063 93.2386 1063 96Z" fill="#ED7D31" fill-rule="evenodd"/><path d="M0 0 0.000104987 99.4869" stroke="#ED7D31" stroke-width="2" stroke-miterlimit="8" fill="none" fill-rule="evenodd" transform="matrix(-1 1.22465e-16 1.22465e-16 1 1058 101)"/><rect x="1141" y="194" width="39" height="36" stroke="#ED7D31" stroke-width="2" stroke-miterlimit="8" fill="#FFFFFF"/><text fill="#ED7D31" font-family="Cambria Math,Cambria Math_MSFontService,sans-serif" font-weight="400" font-size="24" transform="translate(1150.28 220)">𝑇<tspan font-size="18" x="15.62" y="-9">†</tspan></text><path d="M921 153.5C921 160.404 915.404 166 908.5 166 901.596 166 896 160.404 896 153.5 896 146.596 901.596 141 908.5 141 915.404 141 921 146.596 921 153.5Z" fill="#FFFFFF" fill-rule="evenodd"/><path d="M908.5 166 908.5 141M921 153.5 896 153.5" stroke="#ED7D31" stroke-width="2" stroke-miterlimit="8" fill="none" fill-rule="evenodd"/><path d="M921 153.5C921 160.404 915.404 166 908.5 166 901.596 166 896 160.404 896 153.5 896 146.596 901.596 141 908.5 141 915.404 141 921 146.596 921 153.5Z" stroke="#ED7D31" stroke-width="2" stroke-miterlimit="8" fill="none" fill-rule="evenodd"/><path d="M913 97C913 99.7614 910.985 102 908.5 102 906.015 102 904 99.7614 904 97 904 94.2386 906.015 92 908.5 92 910.985 92 913 94.2386 913 97Z" fill="#ED7D31" fill-rule="evenodd"/><path d="M909 140.777 909 102" stroke="#ED7D31" stroke-width="2" stroke-miterlimit="8" fill="none" fill-rule="evenodd"/><rect x="987" y="193" width="39" height="37" stroke="#ED7D31" stroke-width="2" stroke-miterlimit="8" fill="#FFFFFF"/><text fill="#ED7D31" font-family="Cambria Math,Cambria Math_MSFontService,sans-serif" font-weight="400" font-size="24" transform="translate(996.547 219)"><tspan font-size="24" x="5.33331" y="0">𝑇</tspan></text><path d="M968 211.5C968 218.404 962.404 224 955.5 224 948.596 224 943 218.404 943 211.5 943 204.596 948.596 199 955.5 199 962.404 199 968 204.596 968 211.5Z" fill="#FFFFFF" fill-rule="evenodd"/><path d="M955.5 224 955.5 199M968 211.5 943 211.5" stroke="#ED7D31" stroke-width="2" stroke-miterlimit="8" fill="none" fill-rule="evenodd"/><path d="M968 211.5C968 218.404 962.404 224 955.5 224 948.596 224 943 218.404 943 211.5 943 204.596 948.596 199 955.5 199 962.404 199 968 204.596 968 211.5Z" stroke="#ED7D31" stroke-width="2" stroke-miterlimit="8" fill="none" fill-rule="evenodd"/><path d="M960 154C960 156.761 957.761 159 955 159 952.239 159 950 156.761 950 154 950 151.239 952.239 149 955 149 957.761 149 960 151.239 960 154Z" fill="#ED7D31" fill-rule="evenodd"/><path d="M0 0 0.000104987 40.5318" stroke="#ED7D31" stroke-width="2" stroke-miterlimit="8" fill="none" fill-rule="evenodd" transform="matrix(-1 1.22465e-16 1.22465e-16 1 955 159)"/><rect x="722.5" y="311.5" width="253" height="161" stroke="#70AD47" stroke-width="3" stroke-miterlimit="8" fill="#E2F0D9" fill-opacity="0.2"/><path d="M1142.5 465.5 1047.73 465.5 1047.73 406.938 929.5 406.938 929.5 304.5 1142.5 304.5Z" stroke="#5B9BD5" stroke-width="3" stroke-miterlimit="8" fill="#DEEBF7" fill-rule="evenodd" fill-opacity="0.501961"/><text font-family="Cambria Math,Cambria Math_MSFontService,sans-serif" font-weight="400" font-size="27" transform="translate(674.258 449)">𝑞<tspan font-size="20" x="13.8134" y="6">2</tspan><tspan font-size="27" x="0" y="-58">𝑞</tspan><tspan font-size="20" x="13.1933" y="-52">1</tspan><tspan font-size="27" x="-0.158936" y="-115">𝑞</tspan><tspan font-size="20" x="13.6544" y="-109">0</tspan></text><path d="M707 441 1228.61 441" stroke="#000000" stroke-width="2" stroke-miterlimit="8" fill="none" fill-rule="evenodd"/><path d="M707 383 1228.61 383" stroke="#000000" stroke-width="2" stroke-miterlimit="8" fill="none" fill-rule="evenodd"/><path d="M707 326 1228.81 326" stroke="#000000" stroke-width="2" stroke-miterlimit="8" fill="none" fill-rule="evenodd"/><path d="M1102 383.5C1102 376.596 1107.6 371 1114.5 371 1121.4 371 1127 376.596 1127 383.5 1127 390.404 1121.4 396 1114.5 396 1107.6 396 1102 390.404 1102 383.5Z" fill="#FFFFFF" fill-rule="evenodd"/><path d="M1114.5 371 1114.5 396M1102 383.5 1127 383.5" stroke="#ED7D31" stroke-width="2" stroke-miterlimit="8" fill="none" fill-rule="evenodd"/><path d="M1102 383.5C1102 376.596 1107.6 371 1114.5 371 1121.4 371 1127 376.596 1127 383.5 1127 390.404 1121.4 396 1114.5 396 1107.6 396 1102 390.404 1102 383.5Z" stroke="#ED7D31" stroke-width="2" stroke-miterlimit="8" fill="none" fill-rule="evenodd"/><path d="M1110 441.5C1110 439.015 1112.24 437 1115 437 1117.76 437 1120 439.015 1120 441.5 1120 443.985 1117.76 446 1115 446 1112.24 446 1110 443.985 1110 441.5Z" fill="#ED7D31" fill-rule="evenodd"/><path d="M0 0 0.000104987 40.8401" stroke="#ED7D31" stroke-width="2" stroke-miterlimit="8" fill="none" fill-rule="evenodd" transform="matrix(-1 0 0 1 1115 396)"/><path d="M1086 440.5C1086 447.404 1080.4 453 1073.5 453 1066.6 453 1061 447.404 1061 440.5 1061 433.596 1066.6 428 1073.5 428 1080.4 428 1086 433.596 1086 440.5Z" fill="#FFFFFF" fill-rule="evenodd"/><path d="M1073.5 453 1073.5 428M1086 440.5 1061 440.5" stroke="#ED7D31" stroke-width="2" stroke-miterlimit="8" fill="none" fill-rule="evenodd"/><path d="M1086 440.5C1086 447.404 1080.4 453 1073.5 453 1066.6 453 1061 447.404 1061 440.5 1061 433.596 1066.6 428 1073.5 428 1080.4 428 1086 433.596 1086 440.5Z" stroke="#ED7D31" stroke-width="2" stroke-miterlimit="8" fill="none" fill-rule="evenodd"/><path d="M1078 325C1078 327.761 1075.76 330 1073 330 1070.24 330 1068 327.761 1068 325 1068 322.239 1070.24 320 1073 320 1075.76 320 1078 322.239 1078 325Z" fill="#ED7D31" fill-rule="evenodd"/><path d="M0 0 0.000104987 98.1837" stroke="#ED7D31" stroke-width="2" stroke-miterlimit="8" fill="none" fill-rule="evenodd" transform="matrix(-1 1.22465e-16 1.22465e-16 1 1073 330)"/><rect x="1156" y="423" width="39" height="37" stroke="#ED7D31" stroke-width="2" stroke-miterlimit="8" fill="#FFFFFF"/><text fill="#ED7D31" font-family="Cambria Math,Cambria Math_MSFontService,sans-serif" font-weight="400" font-size="24" transform="translate(1165.84 449)">𝑇<tspan font-size="18" x="15.62" y="-8">†</tspan></text><rect x="815" y="364" width="39" height="37" stroke="#ED7D31" stroke-width="2" stroke-miterlimit="8" fill="#FFFFFF"/><text fill="#ED7D31" font-family="Cambria Math,Cambria Math_MSFontService,sans-serif" font-weight="400" font-size="24" transform="translate(824.656 390)"><tspan font-size="24" x="5.33337" y="0">𝑇</tspan></text><path d="M796 383C796 389.627 790.404 395 783.5 395 776.596 395 771 389.627 771 383 771 376.373 776.596 371 783.5 371 790.404 371 796 376.373 796 383Z" fill="#FFFFFF" fill-rule="evenodd"/><path d="M783.5 395 783.5 371M796 383 771 383" stroke="#ED7D31" stroke-width="2" stroke-miterlimit="8" fill="none" fill-rule="evenodd"/><path d="M796 383C796 389.627 790.404 395 783.5 395 776.596 395 771 389.627 771 383 771 376.373 776.596 371 783.5 371 790.404 371 796 376.373 796 383Z" stroke="#ED7D31" stroke-width="2" stroke-miterlimit="8" fill="none" fill-rule="evenodd"/><path d="M788 326C788 328.761 785.985 331 783.5 331 781.015 331 779 328.761 779 326 779 323.239 781.015 321 783.5 321 785.985 321 788 323.239 788 326Z" fill="#ED7D31" fill-rule="evenodd"/><path d="M783 370.429 783 331" stroke="#ED7D31" stroke-width="2" stroke-miterlimit="8" fill="none" fill-rule="evenodd"/><rect x="878" y="365" width="39" height="37" stroke="#ED7D31" stroke-width="2" stroke-miterlimit="8" fill="#FFFFFF"/><text fill="#ED7D31" font-family="Cambria Math,Cambria Math_MSFontService,sans-serif" font-weight="400" font-size="24" transform="translate(887.891 391)"><tspan font-size="24" x="5.33331" y="0">𝑇</tspan></text><path d="M966 383C966 389.627 960.404 395 953.5 395 946.596 395 941 389.627 941 383 941 376.373 946.596 371 953.5 371 960.404 371 966 376.373 966 383Z" fill="#FFFFFF" fill-rule="evenodd"/><path d="M953.5 395 953.5 371M966 383 941 383" stroke="#ED7D31" stroke-width="2" stroke-miterlimit="8" fill="none" fill-rule="evenodd"/><path d="M966 383C966 389.627 960.404 395 953.5 395 946.596 395 941 389.627 941 383 941 376.373 946.596 371 953.5 371 960.404 371 966 376.373 966 383Z" stroke="#ED7D31" stroke-width="2" stroke-miterlimit="8" fill="none" fill-rule="evenodd"/><path d="M958 326C958 328.761 955.761 331 953 331 950.239 331 948 328.761 948 326 948 323.239 950.239 321 953 321 955.761 321 958 323.239 958 326Z" fill="#ED7D31" fill-rule="evenodd"/><path d="M953 370.429 953 331" stroke="#ED7D31" stroke-width="2" stroke-miterlimit="8" fill="none" fill-rule="evenodd"/><rect x="991" y="423" width="39" height="37" stroke="#ED7D31" stroke-width="2" stroke-miterlimit="8" fill="#FFFFFF"/><text fill="#ED7D31" font-family="Cambria Math,Cambria Math_MSFontService,sans-serif" font-weight="400" font-size="24" transform="translate(1000.32 449)"><tspan font-size="24" x="5.33337" y="0">𝑇</tspan></text><path d="M755 441C755 447.627 749.404 453 742.5 453 735.596 453 730 447.627 730 441 730 434.373 735.596 429 742.5 429 749.404 429 755 434.373 755 441Z" fill="#FFFFFF" fill-rule="evenodd"/><path d="M742.5 453 742.5 429M755 441 730 441" stroke="#ED7D31" stroke-width="2" stroke-miterlimit="8" fill="none" fill-rule="evenodd"/><path d="M755 441C755 447.627 749.404 453 742.5 453 735.596 453 730 447.627 730 441 730 434.373 735.596 429 742.5 429 749.404 429 755 434.373 755 441Z" stroke="#ED7D31" stroke-width="2" stroke-miterlimit="8" fill="none" fill-rule="evenodd"/><path d="M747 383C747 385.761 744.985 388 742.5 388 740.015 388 738 385.761 738 383 738 380.239 740.015 378 742.5 378 744.985 378 747 380.239 747 383Z" fill="#ED7D31" fill-rule="evenodd"/><path d="M0 0 0.000104987 40.5318" stroke="#ED7D31" stroke-width="2" stroke-miterlimit="8" fill="none" fill-rule="evenodd" transform="matrix(-1 1.22465e-16 1.22465e-16 1 742 388)"/><rect x="992.5" y="521.5" width="94.9999" height="175" stroke="#5B9BD5" stroke-width="3" stroke-miterlimit="8" fill="#DEEBF7" fill-opacity="0.501961"/><text font-family="Cambria Math,Cambria Math_MSFontService,sans-serif" font-weight="400" font-size="27" transform="translate(674.198 672)">𝑞<tspan font-size="20" x="13.8133" y="5">2</tspan><tspan font-size="27" x="0" y="-58">𝑞</tspan><tspan font-size="20" x="13.1933" y="-53">1</tspan><tspan font-size="27" x="-0.159058" y="-115">𝑞</tspan><tspan font-size="20" x="13.6543" y="-110">0</tspan></text><path d="M707 664 1228.61 664" stroke="#000000" stroke-width="2" stroke-miterlimit="8" fill="none" fill-rule="evenodd"/><path d="M707 606 1228.61 606" stroke="#000000" stroke-width="2" stroke-miterlimit="8" fill="none" fill-rule="evenodd"/><path d="M707 549 1228.81 549" stroke="#000000" stroke-width="2" stroke-miterlimit="8" fill="none" fill-rule="evenodd"/><path d="M1003 605.5C1003 598.596 1008.37 593 1015 593 1021.63 593 1027 598.596 1027 605.5 1027 612.404 1021.63 618 1015 618 1008.37 618 1003 612.404 1003 605.5Z" fill="#FFFFFF" fill-rule="evenodd"/><path d="M1015 593 1015 618M1003 605.5 1027 605.5" stroke="#ED7D31" stroke-width="2" stroke-miterlimit="8" fill="none" fill-rule="evenodd"/><path d="M1003 605.5C1003 598.596 1008.37 593 1015 593 1021.63 593 1027 598.596 1027 605.5 1027 612.404 1021.63 618 1015 618 1008.37 618 1003 612.404 1003 605.5Z" stroke="#ED7D31" stroke-width="2" stroke-miterlimit="8" fill="none" fill-rule="evenodd"/><path d="M1010 663.5C1010 661.015 1012.24 659 1015 659 1017.76 659 1020 661.015 1020 663.5 1020 665.985 1017.76 668 1015 668 1012.24 668 1010 665.985 1010 663.5Z" fill="#ED7D31" fill-rule="evenodd"/><path d="M0 0 0.000104987 40.8401" stroke="#ED7D31" stroke-width="2" stroke-miterlimit="8" fill="none" fill-rule="evenodd" transform="matrix(-1 0 0 1 1015 618)"/><path d="M1076 664C1076 670.627 1070.4 676 1063.5 676 1056.6 676 1051 670.627 1051 664 1051 657.373 1056.6 652 1063.5 652 1070.4 652 1076 657.373 1076 664Z" fill="#FFFFFF" fill-rule="evenodd"/><path d="M1063.5 676 1063.5 652M1076 664 1051 664" stroke="#ED7D31" stroke-width="2" stroke-miterlimit="8" fill="none" fill-rule="evenodd"/><path d="M1076 664C1076 670.627 1070.4 676 1063.5 676 1056.6 676 1051 670.627 1051 664 1051 657.373 1056.6 652 1063.5 652 1070.4 652 1076 657.373 1076 664Z" stroke="#ED7D31" stroke-width="2" stroke-miterlimit="8" fill="none" fill-rule="evenodd"/><path d="M1069 548C1069 550.761 1066.76 553 1064 553 1061.24 553 1059 550.761 1059 548 1059 545.239 1061.24 543 1064 543 1066.76 543 1069 545.239 1069 548Z" fill="#ED7D31" fill-rule="evenodd"/><path d="M0 0 0.000104987 98.705" stroke="#ED7D31" stroke-width="2" stroke-miterlimit="8" fill="none" fill-rule="evenodd" transform="matrix(-1 1.22465e-16 1.22465e-16 1 1064 553)"/><rect x="1106" y="645" width="39" height="37" stroke="#ED7D31" stroke-width="2" stroke-miterlimit="8" fill="#FFFFFF"/><text fill="#ED7D31" font-family="Cambria Math,Cambria Math_MSFontService,sans-serif" font-weight="400" font-size="24" transform="translate(1115.9 672)">𝑇<tspan font-size="18" x="15.62" y="-9">†</tspan></text><rect x="815" y="587" width="39" height="37" stroke="#ED7D31" stroke-width="2" stroke-miterlimit="8" fill="#FFFFFF"/><text fill="#ED7D31" font-family="Cambria Math,Cambria Math_MSFontService,sans-serif" font-weight="400" font-size="24" transform="translate(824.596 613)"><tspan font-size="24" x="5.33331" y="0">𝑇</tspan></text><path d="M796 605.5C796 612.404 790.404 618 783.5 618 776.596 618 771 612.404 771 605.5 771 598.596 776.596 593 783.5 593 790.404 593 796 598.596 796 605.5Z" fill="#FFFFFF" fill-rule="evenodd"/><path d="M783.5 618 783.5 593M796 605.5 771 605.5" stroke="#ED7D31" stroke-width="2" stroke-miterlimit="8" fill="none" fill-rule="evenodd"/><path d="M796 605.5C796 612.404 790.404 618 783.5 618 776.596 618 771 612.404 771 605.5 771 598.596 776.596 593 783.5 593 790.404 593 796 598.596 796 605.5Z" stroke="#ED7D31" stroke-width="2" stroke-miterlimit="8" fill="none" fill-rule="evenodd"/><path d="M788 549C788 551.761 785.761 554 783 554 780.239 554 778 551.761 778 549 778 546.239 780.239 544 783 544 785.761 544 788 546.239 788 549Z" fill="#ED7D31" fill-rule="evenodd"/><path d="M783 593.429 783 554" stroke="#ED7D31" stroke-width="2" stroke-miterlimit="8" fill="none" fill-rule="evenodd"/><rect x="878" y="588" width="39" height="37" stroke="#ED7D31" stroke-width="2" stroke-miterlimit="8" fill="#FFFFFF"/><text fill="#ED7D31" font-family="Cambria Math,Cambria Math_MSFontService,sans-serif" font-weight="400" font-size="24" transform="translate(887.831 614)"><tspan font-size="24" x="5.33331" y="0">𝑇</tspan></text><rect x="934" y="645" width="38" height="37" stroke="#ED7D31" stroke-width="2" stroke-miterlimit="8" fill="#FFFFFF"/><text fill="#ED7D31" font-family="Cambria Math,Cambria Math_MSFontService,sans-serif" font-weight="400" font-size="24" transform="translate(943.144 672)"><tspan font-size="24" x="5.33331" y="0">𝑇</tspan></text><path d="M755 664C755 670.627 749.404 676 742.5 676 735.596 676 730 670.627 730 664 730 657.373 735.596 652 742.5 652 749.404 652 755 657.373 755 664Z" fill="#FFFFFF" fill-rule="evenodd"/><path d="M742.5 676 742.5 652M755 664 730 664" stroke="#ED7D31" stroke-width="2" stroke-miterlimit="8" fill="none" fill-rule="evenodd"/><path d="M755 664C755 670.627 749.404 676 742.5 676 735.596 676 730 670.627 730 664 730 657.373 735.596 652 742.5 652 749.404 652 755 657.373 755 664Z" stroke="#ED7D31" stroke-width="2" stroke-miterlimit="8" fill="none" fill-rule="evenodd"/><path d="M747 606C747 608.761 744.985 611 742.5 611 740.015 611 738 608.761 738 606 738 603.239 740.015 601 742.5 601 744.985 601 747 603.239 747 606Z" fill="#ED7D31" fill-rule="evenodd"/><path d="M0 0 0.000104987 40.5318" stroke="#ED7D31" stroke-width="2" stroke-miterlimit="8" fill="none" fill-rule="evenodd" transform="matrix(-1 1.22465e-16 1.22465e-16 1 742 611)"/><path d="M823.75 3.50005 823.75 25.0001 834.5 25.0001 813 46.5 791.5 25.0001 802.25 25.0001 802.25 3.50005Z" stroke="#FFC000" stroke-width="3" stroke-miterlimit="8" fill="#FFF2CC" fill-rule="evenodd" fill-opacity="0.501961"/><path d="M859.75 261.5 859.75 283 870.5 283 849 304.5 827.5 283 838.25 283 838.25 261.5Z" stroke="#70AD47" stroke-width="3" stroke-miterlimit="8" fill="#E2F0D9" fill-rule="evenodd" fill-opacity="0.501961"/><path d="M1056.75 472.5 1056.75 495 1067.5 495 1046 516.5 1024.5 495 1035.25 495 1035.25 472.5Z" stroke="#5B9BD5" stroke-width="3" stroke-miterlimit="8" fill="#DEEBF7" fill-rule="evenodd" fill-opacity="0.501961"/><text fill="#70AD47" font-family="Cambria Math,Cambria Math_MSFontService,sans-serif" font-weight="400" font-size="32" transform="translate(1202.93 -408)">𝑺<tspan font-size="23" x="18.1666" y="6">𝟐</tspan><tspan font-size="23" x="32.1666" y="6">𝟏</tspan><tspan font-size="32" x="12.2524" y="69">𝑻</tspan><tspan font-size="23" x="32.2524" y="75">𝟐𝟏</tspan><tspan fill="#5B9BD5" font-size="32" x="-365.316" y="179">𝑺</tspan><tspan fill="#5B9BD5" font-size="23" x="-347.149" y="185">𝟐</tspan><tspan fill="#5B9BD5" font-size="23" x="-333.149" y="185">𝟐</tspan><tspan fill="#5B9BD5" font-size="32" x="-68.4291" y="331">𝑻</tspan><tspan fill="#5B9BD5" font-size="23" x="-48.4291" y="338">𝟐</tspan><tspan fill="#5B9BD5" font-size="23" x="-34.4291" y="338">𝟐</tspan><tspan fill="#FFC000" font-size="32" x="-476.335" y="391">𝑺</tspan><tspan fill="#FFC000" font-size="23" x="-458.168" y="398">𝟐</tspan><tspan fill="#FFC000" font-size="23" x="-444.168" y="398">𝟑</tspan><tspan fill="#FFC000" font-size="32" x="-538.068" y="478">𝑻</tspan><tspan fill="#FFC000" font-size="23" x="-518.068" y="484">𝟐</tspan><tspan fill="#FFC000" font-size="23" x="-504.068" y="484">𝟑</tspan><tspan font-size="32" x="-222.498" y="678">𝑺</tspan><tspan font-size="23" x="-204.331" y="685">𝟐𝟒</tspan><tspan font-size="32" x="-347.352" y="763">𝑻</tspan><tspan font-size="23" x="-327.352" y="769">𝟐𝟒</tspan><tspan fill="#5B9BD5" font-size="32" x="-76.4767" y="903">𝑺</tspan><tspan fill="#5B9BD5" font-size="23" x="-58.3101" y="910">𝟐𝟓</tspan><tspan fill="#5B9BD5" font-size="32" x="-106.773" y="986">𝑻</tspan><tspan fill="#5B9BD5" font-size="23" x="-86.7729" y="992">𝟐𝟓</tspan><tspan fill="#9F5ED0" font-size="32" x="-496.708" y="9">|</tspan><tspan fill="#9F5ED0" font-size="32" x="-486.541" y="9">𝑪</tspan><tspan fill="#9F5ED0" font-size="23" x="-466.541" y="16">𝟐𝟏</tspan><tspan fill="#9F5ED0" font-size="32" x="-437.214" y="9">|</tspan><tspan fill="#9F5ED0" font-size="32" x="-418.161" y="9">=</tspan><tspan fill="#9F5ED0" font-size="32" x="-385.441" y="9">𝟗</tspan><tspan fill="#9F5ED0" font-size="32" x="-491.388" y="233">|</tspan><tspan fill="#9F5ED0" font-size="32" x="-481.221" y="233">𝑪</tspan><tspan fill="#9F5ED0" font-size="23" x="-461.221" y="239">𝟐𝟐</tspan><tspan fill="#9F5ED0" font-size="32" x="-431.895" y="233">|</tspan><tspan fill="#9F5ED0" font-size="32" x="-412.841" y="233">=</tspan><tspan fill="#9F5ED0" font-size="32" x="-380.122" y="233">𝟗</tspan><tspan fill="#9F5ED0" font-size="32" x="-119.416" y="462">|</tspan><tspan fill="#9F5ED0" font-size="32" x="-109.25" y="462">𝑪</tspan><tspan fill="#9F5ED0" font-size="23" x="-89.2495" y="468">𝟐𝟑</tspan><tspan fill="#9F5ED0" font-size="32" x="-59.9229" y="462">|</tspan><tspan fill="#9F5ED0" font-size="32" x="-40.8695" y="462">=</tspan><tspan fill="#9F5ED0" font-size="32" x="-8.14954" y="462">𝟗</tspan><tspan fill="#9F5ED0" font-size="32" x="-124.548" y="667">|</tspan><tspan fill="#9F5ED0" font-size="32" x="-114.382" y="667">𝑪</tspan><tspan fill="#9F5ED0" font-size="23" x="-94.3816" y="674">𝟐𝟑</tspan><tspan fill="#9F5ED0" font-size="32" x="-65.0549" y="667">|</tspan><tspan fill="#9F5ED0" font-size="32" x="-46.0016" y="667">=</tspan><tspan fill="#9F5ED0" font-size="32" x="-13.2816" y="667">𝟗</tspan><tspan fill="#9F5ED0" font-size="32" x="-497.5" y="919">|</tspan><tspan fill="#9F5ED0" font-size="32" x="-487.334" y="919">𝑪</tspan><tspan fill="#9F5ED0" font-size="23" x="-467.334" y="926">𝟐𝟑</tspan><tspan fill="#9F5ED0" font-size="32" x="-438.007" y="919">|</tspan><tspan fill="#9F5ED0" font-size="32" x="-418.954" y="919">=</tspan><tspan fill="#9F5ED0" font-size="32" x="-386.234" y="919">𝟖</tspan><tspan fill="#9F5ED0" font-size="32" x="-491.789" y="1118">|</tspan><tspan fill="#9F5ED0" font-size="32" x="-481.623" y="1118">𝑪</tspan><tspan fill="#9F5ED0" font-size="23" x="-461.623" y="1124">𝟐𝟑</tspan><tspan fill="#9F5ED0" font-size="32" x="-432.296" y="1118">|</tspan><tspan fill="#9F5ED0" font-size="32" x="-413.243" y="1118">=</tspan><tspan fill="#9F5ED0" font-size="32" x="-380.523" y="1118">𝟖</tspan></text></g></svg>